<svg xmlns="http://www.w3.org/2000/svg" width="26.667" height="26.667" viewBox="0 0 20 20"  fill="#b05000" xmlns:v="https://vecta.io/nano"><path d="M9.555 12.512a.67.67 0 0 0 .89 0c.16-.141 3.93-3.504 3.93-6.988 0-2.414-1.961-4.379-4.375-4.379a4.38 4.38 0 0 0-4.375 4.378c0 3.484 3.77 6.848 3.93 6.988zM10 4.379a1.14 1.14 0 0 1 1.133 1.145c0 .629-.508 1.145-1.133 1.145s-1.133-.516-1.133-1.145A1.14 1.14 0 0 1 10 4.379zm8.406 8.133l-.504-1.777c-.082-.289-.348-.488-.648-.488h-3.617l-.414.586c-1.012 1.363-2.043 2.285-2.156 2.387-.297.258-.676.398-1.066.398a1.63 1.63 0 0 1-1.066-.398c-.113-.102-1.145-1.023-2.156-2.387l-.414-.586H2.746c-.301 0-.566.199-.648.488l-.602 2.117L15 15.324zM19.973 18l-1.293-4.539-6.426 5.395h7.074c.211 0 .41-.098.535-.266s.168-.387.109-.59zM3.285 14.133l-2.051-.375L.027 18c-.059.203-.02.418.109.586a.66.66 0 0 0 .535.27h2.613zm0 0"/><path d="M4.227 14.305v4.551h6.566l3.273-2.746zm0 0"/></svg>