<svg xmlns:svg="http://www.w3.org/2000/svg" xmlns="http://www.w3.org/2000/svg" xmlns:xlink="http://www.w3.org/1999/xlink" version="1.0" width="96" height="96" viewBox="0 0 128 128" preserveAspectRatio="xMidYMid" xmlns:sodipodi="http://sodipodi.sourceforge.net/DTD/sodipodi-0.dtd" xmlns:inkscape="http://www.inkscape.org/namespaces/inkscape" xmlns:anigen="http://www.anigen.org/namespace" anigen:version="0.8.1"><circle cx="70" cy="70" r="60" transform="matrix(1 0 0 1 -5 -5)" style="fill:#fefbf0;stroke:#b05000;stroke-width:2px;"/><g><path d="M17.3 57.6a6.3 6.3.0 1 1-6.28 6.28 6.3 6.3.0 0 1 6.3-6.3zM29 24.04a4.72 4.72.0 1 1-4.7 4.72 4.72 4.72.0 0 1 4.7-4.72zm35.12-22.7A15.72 15.72.0 1 1 48.4 17.06 15.72 15.72.0 0 1 64.12 1.34zm35.1 13.27A14.15 14.15.0 1 1 85.1 28.8a14.15 14.15.0 0 1 14.15-14.15zm11.7 36.7a12.58 12.58.0 1 1-12.57 12.6 12.58 12.58.0 0 1 12.58-12.58zM99.22 88a11 11 0 1 1-11 11 11 11 0 0 1 11-11zm-35.1 13.27a9.44 9.44.0 1 1-9.43 9.44 9.44 9.44.0 0 1 9.4-9.45zM29.02 91.1a7.86 7.86.0 1 1-7.88 7.9A7.86 7.86.0 0 1 29 91.1z" fill="#b05000" transform="matrix(0.8 0 0 0.8 15 15)"/><animateTransform attributeName="transform" type="rotate" from="360 65 65" to="0 65 65" dur="2s" repeatCount="indefinite"/></g></svg>