<svg xmlns:svg="http://www.w3.org/2000/svg" xmlns="http://www.w3.org/2000/svg" xmlns:xlink="http://www.w3.org/1999/xlink" version="1.0" width="96" height="96" viewBox="0 0 128 128" id="svg4957" preserveAspectRatio="xMidYMid" xmlns:sodipodi="http://sodipodi.sourceforge.net/DTD/sodipodi-0.dtd" xmlns:inkscape="http://www.inkscape.org/namespaces/inkscape" xmlns:anigen="http://www.anigen.org/namespace" anigen:version="0.8.1"><defs id="defs5652"><filter id="filter4713" x="-61.125" y="-59.5" height="122.25" width="119"><feGaussianBlur id="feGaussianBlur5886" stdDeviation="7.511448529839981e-8"/></filter><filter id="filter7523" x="-61.125" y="-59.5" height="122.25" width="119"><feGaussianBlur id="feGaussianBlur4149" stdDeviation="7.511448529839981e-8"/></filter></defs><sodipodi:namedview id="base" bordercolor="#666666" borderopacity="1" inkscape:cx="56.4725650551556" inkscape:cy="-52.92662350913716" inkscape:zoom="4.000000000000001"/><ellipse id="ellipse3128" cx="66.34756505515561" cy="67.42662350913716" rx="61.124999999999986" ry="59.49999999999999" transform="matrix(1.0163600444793701 0 0 1.0525208711624146 -3.335451126098633 -7.1662983894348145)" style="fill:#fefbf0;fill-opacity:1;opacity:1;stroke:#b05000;stroke-opacity:1;filter:url(&quot;#filter7523&quot;)"/><g id="g5494"><path d="M17.3 57.6a6.3 6.3.0 1 1-6.28 6.28 6.3 6.3.0 0 1 6.3-6.3zM29 24.04a4.72 4.72.0 1 1-4.7 4.72 4.72 4.72.0 0 1 4.7-4.72zm35.12-22.7A15.72 15.72.0 1 1 48.4 17.06 15.72 15.72.0 0 1 64.12 1.34zm35.1 13.27A14.15 14.15.0 1 1 85.1 28.8a14.15 14.15.0 0 1 14.15-14.15zm11.7 36.7a12.58 12.58.0 1 1-12.57 12.6 12.58 12.58.0 0 1 12.58-12.58zM99.22 88a11 11 0 1 1-11 11 11 11 0 0 1 11-11zm-35.1 13.27a9.44 9.44.0 1 1-9.43 9.44 9.44 9.44.0 0 1 9.4-9.45zM29.02 91.1a7.86 7.86.0 1 1-7.88 7.9A7.86 7.86.0 0 1 29 91.1z" fill="#b05000" fill-opacity="1" id="path2869" transform="matrix(0.796684980392456 0 0 0.7970603704452515 11.359213829040527 14.198132514953613)" inkscape:transform-center-x="NaN" inkscape:transform-center-y="NaN"/><animateTransform attributeName="transform" type="rotate" from="360 64 64" to="0 64 64" dur="2160ms" repeatCount="indefinite" id="animateTransform9268"/></g></svg>