<svg xmlns="http://www.w3.org/2000/svg" xml:space="preserve" version="1.1" viewBox="0 0 47500 47500"><defs><clipPath id="a"><path d="M0 38000h38000V0H0v38000"/></clipPath></defs><g fill-opacity="1" fill-rule="nonzero" clip-path="url(#a)" transform="matrix(1.25 0 0-1.25 0 47500)"><path d="M23088 4170c0-1997-1619-2712-3616-2712s-3616 715-3616 2712l904 8136c0 1996 715 1807 2712 1807 1997 0 2712 189 2712-1807l904-8136" fill="#662113"/><path d="M31590 9325c-6294 5392-8843 13112-12118 13112-3276 0-5824-7720-12118-13112C4710 7059 5970 5748 9595 6010c3232 233 6255 966 9877 966 3622 0 6645-733 9876-965 3627-263 4887 1048 2242 3314" fill="#5c913b"/><path d="M29546 11462c-4837 4435-7555 10787-10074 10787-2517 0-5237-6356-10073-10790-3848-3525 5033-4316 10069 0 5034-4316 13917-3525 10074 0" fill="#3e721d"/><path d="M29546 15055c-4837 4144-7555 10077-10074 10077-2517 0-5237-5933-10073-10077-3848-3292 5033-4031 10069 0 5034-4030 13917-3292 10074 0" fill="#5c913b"/><path d="M27336 17997c-3775 3235-5897 7868-7864 7868-1966 0-4090-4633-7865-7868-3000-2570 3933-3146 7865 0 3930-3146 10865-2570 7864 0" fill="#3e721d"/><path d="M27336 20689c-3775 3235-5897 7867-7864 7867-1966 0-4090-4632-7865-7867-3000-2571 3933-3147 7865 0 3930-3147 10865-2571 7864 0" fill="#5c913b"/><path d="M25818 23080c-3047 2610-4760 6349-6347 6349-1586 0-3300-3740-6347-6349-2422-2075 3174-2540 6347 0 3173-2540 8770-2075 6347 0" fill="#3e721d"/><path d="M25818 25106c-3047 2610-4760 6349-6347 6349-1586 0-3300-3740-6347-6349-2422-2075 3174-2540 6347 0 3173-2540 8770-2075 6347 0" fill="#5c913b"/><path d="M24300 28089c-2317 1986-3621 4831-4829 4831-1207 0-2511-2845-4830-4831-1842-1580 2415-1937 4830 0 2415-1937 6674-1580 4830 0" fill="#3e721d"/><path d="M24300 29169c-2317 1986-3621 4832-4829 4832-1207 0-2511-2846-4830-4832-1842-1580 2415-1933 4830 0 2415-1933 6674-1580 4830 0" fill="#5c913b"/><path d="M19000 24958a1500 1500 0 10-2999-1 1500 1500 0 00 2999 0M23000 12000a2000 2000 0 10-4001 1 2000 2000 0 00 4001 0" fill="#ffcc4d"/><path d="M26000 21500a2500 2500 0 10-5000 0 2500 2500 0 00 5000 0M13000 11000a2000 2000 0 10-4001 1 2000 2000 0 00 4000 0" fill="#dd2e44"/><path d="M17000 18000a2000 2000 0 10-4001 1 2000 2000 0 00 4000-1m11998-4000a2000 2000 0 10-4002 1 2000 2000 0 00 4000 0" fill="#a6d388"/><path d="M20379 35321c143-275 512-549 817-609l1380-270c304-60 376-290 158-511l-983-1005c-217-222-365-656-326-965l170-1394c38-308-160-448-439-310l-1256 625c-280 138-739 144-1020 12l-1274-594c-283-130-476 14-430 322l203 1389c46 307-90 745-302 973l-958 1028c-216 227-139 457 170 509l1383 234c307 50 681 316 832 588l682 1229c150 272 393 269 537-6l650-1245" fill="#ffac33"/></g></svg>
