<?xml version="1.0" standalone="no"?>
<!DOCTYPE svg PUBLIC "-//W3C//DTD SVG 20010904//EN"
 "http://www.w3.org/TR/2001/REC-SVG-20010904/DTD/svg10.dtd">
<svg version="1.0" xmlns="http://www.w3.org/2000/svg"
 width="700.000000pt" height="700.000000pt" viewBox="0 0 700.000000 700.000000"
 preserveAspectRatio="xMidYMid meet">
<metadata>
Created by potrace 1.11, written by Peter Selinger 2001-2013
</metadata>
<g transform="translate(0.000000,700.000000) scale(0.100000,-0.100000)"
fill="#000000" stroke="none">
<path d="M2893 5848 c-12 -6 -25 -24 -29 -42 -5 -17 -8 -33 -9 -36 -1 -3 -5
-18 -10 -35 -13 -50 -57 -103 -200 -247 -130 -132 -136 -140 -133 -175 l3 -36
95 -31 c65 -21 96 -36 98 -48 3 -15 -5 -16 -65 -12 -37 2 -79 6 -93 9 -65 12
-78 14 -125 20 -67 8 -159 54 -220 111 -157 145 -193 162 -380 179 -63 6 -658
6 -705 0 -96 -12 -137 -34 -145 -78 -6 -30 5 -137 20 -207 5 -23 17 -99 17
-110 1 -40 -5 -59 -19 -64 -17 -5 -47 -7 -238 -21 -43 -4 -82 -8 -86 -11 -8
-4 -15 -45 -25 -128 -7 -65 -27 -110 -64 -148 -63 -63 -62 -57 -74 -278 -3
-58 -8 -166 -11 -240 -9 -219 -18 -338 -28 -390 -7 -39 -26 -50 -136 -80 -70
-19 -129 -42 -156 -60 -24 -17 -51 -30 -60 -30 -9 0 -25 -5 -35 -10 -24 -13
-20 -43 23 -155 l30 -80 -1 -295 c-2 -262 1 -306 19 -395 60 -292 191 -521
388 -674 228 -178 503 -189 741 -30 172 114 273 288 325 559 28 145 29 147
178 194 87 28 73 35 240 -121 128 -119 289 -184 441 -178 157 6 284 69 457
228 77 71 136 102 209 112 30 4 62 9 71 10 9 2 56 6 105 10 49 3 109 8 134 10
25 2 81 6 125 10 44 3 96 8 115 10 19 2 62 7 95 10 l60 6 1 -83 c3 -296 23
-447 79 -615 63 -189 156 -337 311 -495 182 -185 365 -301 579 -367 132 -40
148 -42 295 -47 235 -6 423 52 620 194 142 103 235 217 353 435 77 142 79 145
120 155 23 6 72 18 110 27 103 26 309 139 397 218 92 82 233 315 256 422 10
44 22 121 22 135 0 8 1 92 2 185 1 203 -7 242 -85 400 -63 128 -120 214 -196
292 -142 148 -366 267 -539 289 -100 12 -266 11 -356 -2 -107 -16 -109 -15
-180 80 -98 133 -163 215 -216 271 -208 225 -442 397 -747 550 -276 139 -387
183 -616 245 -82 22 -193 52 -245 66 -52 14 -111 36 -130 49 -33 22 -47 23
-265 29 -126 4 -248 9 -270 10 -22 2 -50 4 -62 5 -13 1 -23 4 -23 9 0 4 46 39
101 77 105 72 159 126 159 158 0 51 -36 71 -148 83 l-69 6 -6 55 c-6 60 -24
94 -61 119 -30 19 -103 25 -133 12z m351 -283 c-7 -17 -83 -74 -131 -99 -46
-23 -126 -31 -141 -14 -8 10 -8 20 1 37 28 55 109 90 209 91 56 0 66 -3 62
-15z m-568 -170 c10 -25 -16 -73 -42 -79 -52 -13 -56 9 -13 59 34 38 47 43 55
20z m3290 -1655 c34 -19 42 -69 15 -91 -16 -13 -29 -15 -58 -8 -21 5 -41 9
-45 9 -17 0 -68 54 -68 71 0 33 104 46 156 19z m258 -33 c69 -32 114 -73 97
-90 -15 -15 -118 -18 -171 -5 -51 13 -84 52 -75 87 4 14 12 29 18 34 19 12 70
2 131 -26z m187 -241 c54 -8 162 -49 166 -63 8 -23 -199 -136 -291 -159 l-29
-7 36 48 c41 53 44 70 23 138 -17 57 -11 60 95 43z m-2934 -277 l28 -11 -30
-13 c-34 -14 -132 -12 -148 4 -25 25 95 41 150 20z m-3045 -41 c20 20 37 14
86 -35 63 -64 92 -102 92 -123 0 -14 -9 -17 -65 -15 -167 6 -188 19 -192 113
-1 37 0 75 3 85 5 17 9 16 35 -9 23 -22 32 -25 41 -16z m6248 22 c6 -10 13
-47 17 -81 l6 -62 -134 6 c-148 7 -175 12 -183 33 -5 13 7 28 46 60 19 15 176
62 210 63 17 1 31 -6 38 -19z m-1159 -147 c22 -20 47 -49 55 -64 12 -24 12
-30 -1 -43 -14 -14 -27 -18 -108 -30 -32 -5 -77 8 -77 23 0 9 31 40 80 80 l25
21 -35 -6 c-105 -16 -132 2 -59 38 51 25 75 22 120 -19z m-638 -22 c24 -9 43
-39 32 -49 -11 -12 -78 -3 -93 11 -33 34 7 58 61 38z m1492 -35 c39 -3 81 -8
95 -10 14 -2 52 -7 85 -10 109 -11 145 -23 145 -46 0 -5 -16 -29 -36 -55 -32
-42 -34 -49 -20 -64 17 -19 16 -39 -5 -71 l-15 -23 -57 26 c-113 51 -347 217
-347 245 0 12 25 19 60 16 14 -2 57 -5 95 -8z m-2012 -57 c37 -19 123 -75 137
-89 3 -3 32 -27 65 -55 33 -27 80 -70 104 -95 52 -53 45 -58 -52 -41 -34 6
-75 13 -92 16 -16 3 -41 8 -55 12 -14 3 -30 7 -37 9 -6 1 -51 11 -100 23 -48
11 -101 22 -116 25 -37 6 -57 23 -57 48 0 32 29 77 59 92 18 10 30 26 34 46 6
26 11 30 37 30 17 0 50 -10 73 -21z m-3885 -19 c120 -20 132 -24 132 -44 0
-32 -147 -135 -198 -139 -24 -2 -26 2 -39 68 -7 39 -15 81 -18 94 -3 20 1 41
8 41 1 0 53 -9 115 -20z m4195 -15 c40 -16 77 -58 77 -86 0 -11 -3 -19 -6 -19
-9 0 -44 20 -67 38 -87 70 -90 103 -4 67z m-2393 -28 c20 -11 25 -20 24 -50
-1 -20 -9 -48 -18 -62 -16 -25 -17 -25 -48 -9 -47 24 -109 90 -102 108 10 27
101 35 144 13z m142 -84 c40 -31 73 -72 64 -80 -3 -3 -24 -5 -48 -5 -52 1 -78
27 -78 78 0 42 15 43 62 7z m4044 -87 c33 -24 72 -55 87 -68 l29 -23 -69 -61
c-103 -92 -130 -114 -141 -114 -11 0 -30 32 -62 107 l-19 42 50 67 c27 37 49
73 49 80 0 22 14 17 76 -30z m-5804 -5 c-3 -40 -85 -212 -113 -236 -17 -16
-20 -16 -48 15 -38 43 -65 103 -57 132 6 23 39 48 131 100 67 37 91 34 87 -11z
m5036 7 c4 -19 -34 -102 -54 -119 -11 -9 -22 -3 -55 29 -23 24 -38 46 -34 53
10 16 103 57 123 55 9 -2 18 -10 20 -18z m-4364 -36 c3 -5 1 -24 -3 -43 -5
-19 -12 -46 -15 -61 -4 -16 -11 -28 -17 -28 -15 0 -108 92 -109 106 0 18 134
42 144 26z m2936 -46 c19 -3 53 -8 75 -12 22 -3 43 -8 46 -10 3 -2 21 -6 40
-9 19 -3 66 -12 105 -21 93 -20 92 -20 142 -29 23 -4 44 -11 47 -15 12 -19
-370 -162 -470 -176 -28 -4 -44 -2 -52 7 -16 21 -32 77 -38 134 -3 28 -8 57
-11 67 -14 46 18 81 66 72 8 -1 31 -5 50 -8z m-3519 -88 c3 -107 -2 -206 -12
-236 -9 -27 -14 -32 -32 -26 -31 10 -73 45 -86 72 -9 18 -3 36 34 108 67 132
94 154 96 82z m176 -28 c51 -105 99 -270 77 -270 -20 0 -44 25 -58 60 -21 54
-43 52 -52 -5 -3 -25 -10 -45 -15 -45 -13 0 -21 58 -22 161 -1 110 9 172 26
167 7 -2 26 -33 44 -68z m193 39 c42 -25 85 -64 111 -101 18 -25 19 -30 5 -55
-26 -50 -82 -107 -98 -100 -19 7 -69 110 -94 191 -18 57 -18 58 1 72 25 19 34
18 75 -7z m5108 -24 c42 -47 58 -104 34 -121 -61 -46 -100 -17 -100 73 0 54
10 83 28 83 4 0 22 -16 38 -35z m-1514 -191 c-1 -18 -18 -56 -41 -90 -45 -67
-144 -211 -184 -267 l-28 -39 -55 55 -55 55 55 57 c47 49 64 75 50 75 -2 0
-23 -7 -47 -16 -72 -26 -81 -25 -111 3 -52 50 -39 62 143 129 149 55 216 74
249 71 21 -2 25 -7 24 -33z m806 -53 c14 -10 25 -27 25 -37 0 -17 -8 -19 -70
-20 -38 0 -85 5 -103 11 -33 11 -33 12 -16 30 47 46 114 53 164 16z m-356 -21
c21 -16 83 -72 137 -124 53 -52 130 -116 171 -143 135 -88 137 -85 -47 -82
-152 2 -195 8 -195 29 0 5 -12 35 -26 66 -27 58 -94 254 -94 273 0 17 12 13
54 -19z m-313 -22 c4 -169 -3 -316 -15 -321 -9 -4 -247 -2 -253 2 -10 6 244
361 258 361 5 0 9 -19 10 -42z m175 -65 c20 -43 41 -91 49 -108 7 -16 22 -51
34 -77 34 -76 33 -76 -70 -77 l-91 -1 7 92 c3 51 8 107 10 123 13 103 17 125
21 125 3 0 21 -35 40 -77z m687 -8 c20 -9 37 -24 37 -32 0 -7 -16 -50 -37 -94
l-36 -80 -35 33 c-19 18 -47 50 -63 71 -27 38 -28 40 -11 65 39 62 75 71 145
37z"/>
</g>
</svg>
