<?xml version="1.0" standalone="no"?>
<!DOCTYPE svg PUBLIC "-//W3C//DTD SVG 20010904//EN"
 "http://www.w3.org/TR/2001/REC-SVG-20010904/DTD/svg10.dtd">
<svg version="1.0" xmlns="http://www.w3.org/2000/svg"
 width="154.000000pt" height="154.000000pt" viewBox="0 0 154.000000 154.000000"
 preserveAspectRatio="xMidYMid meet">
<metadata>
Created by potrace 1.11, written by Peter Selinger 2001-2013
</metadata>
<g transform="translate(0.000000,154.000000) scale(0.100000,-0.100000)"
fill="#000000" stroke="none">
<path d="M637 1294 c-4 -4 -7 -15 -7 -23 0 -9 -18 -32 -40 -51 -22 -19 -40
-38 -40 -42 0 -4 12 -15 28 -23 27 -16 27 -16 2 -11 -14 3 -35 6 -46 6 -12 0
-36 14 -53 32 -30 31 -32 31 -138 35 -60 1 -114 -1 -122 -6 -11 -7 -12 -17 -4
-50 6 -22 8 -43 5 -46 -3 -3 -23 -5 -45 -5 -35 0 -39 -2 -34 -20 3 -13 -2 -28
-12 -38 -14 -13 -19 -35 -21 -87 -4 -129 -4 -129 -31 -136 -44 -11 -69 -21
-69 -29 0 -4 7 -20 14 -36 8 -15 12 -32 9 -37 -3 -5 -5 -38 -5 -73 0 -161 130
-277 242 -216 38 21 76 80 83 127 2 21 12 34 31 44 26 12 30 11 50 -13 21 -25
80 -54 104 -50 6 1 21 2 32 3 11 0 37 17 58 36 39 35 46 37 176 47 l39 3 2
-65 c6 -187 200 -337 358 -276 52 19 110 74 134 126 15 32 24 39 55 44 53 9
122 77 138 136 23 84 -1 172 -61 231 -43 42 -95 61 -165 61 -55 -1 -62 1 -76
26 -54 91 -184 177 -336 223 -37 11 -74 23 -82 26 -8 3 -44 6 -79 6 l-63 1 32
26 c33 27 34 50 2 50 -10 0 -22 10 -27 22 -11 23 -27 33 -38 22z m59 -80 c-26
-18 -47 -18 -40 0 5 14 43 26 54 18 3 -2 -4 -10 -14 -18z m-110 -41 c-10 -10
-19 5 -10 18 6 11 8 11 12 0 2 -7 1 -15 -2 -18z m734 -359 c0 -9 -7 -14 -17
-12 -25 5 -28 28 -4 28 12 0 21 -6 21 -16z m56 2 c24 -18 17 -26 -18 -19 -17
3 -25 10 -21 19 7 18 14 18 39 0z m52 -52 c30 -9 28 -16 -14 -36 -33 -17 -34
-17 -25 1 7 12 6 22 -1 29 -14 14 2 16 40 6z m-666 -66 c-9 -9 -15 -9 -24 0
-9 9 -7 12 12 12 19 0 21 -3 12 -12z m711 -8 c4 -17 0 -20 -27 -20 -44 0 -52
11 -19 26 38 17 40 17 46 -6z m-1350 -8 c18 -20 14 -33 -9 -26 -47 14 -47 14
-34 29 16 19 23 19 43 -3z m1095 -14 c17 -17 15 -28 -7 -28 -22 0 -35 15 -26
30 8 13 18 13 33 -2z m-133 -8 c3 -5 -1 -10 -10 -10 -9 0 -13 5 -10 10 3 6 8
10 10 10 2 0 7 -4 10 -10z m369 -9 c23 -1 26 -4 17 -15 -6 -8 -10 -18 -9 -24
5 -18 -16 -14 -54 10 -45 27 -49 40 -10 34 15 -2 40 -5 56 -5z m-456 -33 c23
-18 41 -37 41 -41 1 -5 -3 -6 -7 -3 -5 3 -23 8 -40 11 -17 3 -43 10 -58 15
-26 10 -26 11 -9 30 24 26 26 26 73 -12z m-865 15 c8 -7 -23 -32 -40 -33 -7 0
-13 9 -13 20 0 14 7 20 23 20 13 0 27 -3 30 -7z m907 -8 c7 -8 8 -15 2 -15 -5
0 -15 7 -22 15 -7 8 -8 15 -2 15 5 0 15 -7 22 -15z m-530 -3 c0 -14 -11 -21
-26 -15 -21 8 -17 23 6 23 11 0 20 -4 20 -8z m30 -17 c10 -12 10 -15 -4 -15
-9 0 -16 7 -16 15 0 8 2 15 4 15 2 0 9 -7 16 -15z m-390 -10 c0 -4 -7 -20 -16
-36 -15 -29 -16 -30 -29 -12 -13 16 -12 20 6 36 21 17 39 22 39 12z m1099 -21
c-9 -11 -15 -12 -23 -4 -8 8 -7 13 4 20 20 12 33 1 19 -16z m198 1 c2 -1 -8
-12 -21 -24 l-24 -23 -12 22 c-10 18 -8 24 7 35 13 10 22 11 33 2 8 -6 16 -12
17 -12z m-1154 -11 c-4 -11 -8 -12 -20 -3 -11 10 -11 14 -1 20 17 10 28 2 21
-17z m692 2 l60 -13 -39 -17 c-62 -26 -86 -30 -86 -15 0 8 -3 24 -6 37 -7 25
-9 25 71 8z m-817 -28 c-2 -43 -7 -51 -23 -38 -11 9 -10 16 2 40 19 38 24 38
21 -2z m97 -27 c-14 -14 -17 -14 -25 -1 -5 8 -10 26 -10 39 l0 24 25 -23 c23
-22 24 -25 10 -39z m-47 7 c6 -16 8 -28 3 -28 -5 0 -12 6 -14 13 -3 6 -6 3 -6
-7 -1 -12 -4 -16 -10 -10 -5 5 -7 24 -4 42 6 36 12 33 31 -10z m1158 4 c-10
-10 -29 15 -21 28 6 9 10 8 17 -4 6 -10 7 -20 4 -24z m-336 -10 c0 -5 -14 -28
-31 -52 -24 -32 -33 -39 -40 -29 -5 8 -4 18 1 23 16 16 12 30 -4 17 -10 -9
-16 -9 -21 -1 -9 15 -6 17 41 34 47 18 54 18 54 8z m172 -24 c-6 -6 -16 -7
-22 -3 -9 6 -9 9 1 16 17 10 34 0 21 -13z m-145 -50 c-4 -47 -8 -62 -18 -60
-8 2 -15 8 -17 13 -2 5 -10 9 -18 9 -8 0 -14 2 -14 5 0 6 63 95 67 95 3 0 2
-28 0 -62z m99 30 c15 -18 31 -33 35 -33 4 0 14 -6 21 -13 11 -11 9 -17 -12
-32 -14 -11 -28 -20 -31 -20 -3 0 -17 29 -31 65 -15 36 -23 65 -18 65 5 0 21
-15 36 -32z m-42 -34 c14 -31 26 -61 26 -66 0 -5 -15 -8 -32 -6 -18 2 -32 6
-30 11 1 4 2 32 2 62 0 30 2 55 4 55 3 0 16 -25 30 -56z m135 14 c-10 -19 -12
-19 -27 -4 -14 14 -15 18 -3 25 24 15 42 2 30 -21z"/>
</g>
</svg>
