<?xml version="1.0" standalone="no"?>
<!DOCTYPE svg PUBLIC "-//W3C//DTD SVG 20010904//EN"
 "http://www.w3.org/TR/2001/REC-SVG-20010904/DTD/svg10.dtd">
<svg version="1.0" xmlns="http://www.w3.org/2000/svg"
 width="700.000000pt" height="700.000000pt" viewBox="0 0 700.000000 700.000000"
 preserveAspectRatio="xMidYMid meet">
<metadata>
Created by potrace 1.11, written by Peter Selinger 2001-2013
</metadata>
<g transform="translate(0.000000,700.000000) scale(0.100000,-0.100000)"
fill="#000000" stroke="none">
<path d="M2894 5850 c-24 -10 -33 -28 -41 -85 -11 -81 -47 -126 -273 -340 -56
-53 -80 -96 -72 -127 6 -25 25 -34 109 -53 76 -17 121 -49 89 -61 -15 -6 -86
-1 -141 10 -32 6 -96 15 -150 22 -73 8 -143 44 -205 106 -102 101 -193 161
-260 172 -70 11 -230 18 -440 19 -520 1 -550 -7 -537 -151 4 -37 9 -78 12 -92
3 -14 7 -36 10 -50 2 -14 7 -36 10 -50 3 -14 7 -46 9 -72 4 -38 2 -48 -12 -52
-18 -5 -108 -13 -251 -21 -46 -2 -85 -6 -87 -8 -4 -4 -12 -52 -19 -127 -10
-89 -19 -108 -75 -161 -32 -29 -50 -55 -51 -70 0 -13 -2 -33 -4 -44 -2 -11 -7
-83 -10 -160 -25 -614 -28 -650 -59 -670 -11 -7 -57 -21 -101 -31 -94 -20
-151 -43 -183 -74 -15 -14 -37 -23 -60 -24 -32 -1 -37 -5 -40 -27 -2 -15 14
-69 34 -120 l38 -94 -1 -150 c0 -82 -2 -199 -5 -260 -9 -250 56 -498 186 -705
48 -78 42 -70 113 -148 103 -115 242 -202 372 -232 231 -54 492 49 646 254 79
107 141 261 159 401 11 80 27 133 45 148 13 12 71 33 202 73 11 3 46 -24 100
-77 112 -108 169 -151 262 -195 214 -101 451 -55 654 129 20 18 51 47 71 66
93 87 137 100 377 117 50 3 106 7 125 9 19 2 73 6 120 10 47 3 101 8 120 10
19 2 62 7 95 10 l60 6 2 -128 c5 -288 16 -377 65 -537 65 -215 175 -388 361
-569 383 -373 899 -481 1306 -273 228 116 382 279 510 541 34 68 70 129 80
135 11 5 37 12 58 16 21 3 46 7 55 10 9 3 25 7 35 9 110 23 335 153 422 244
49 52 126 162 164 236 31 60 69 155 62 155 -3 0 -1 8 4 18 5 10 13 49 17 87 8
79 9 357 1 395 -3 14 -8 43 -12 65 -10 51 -101 236 -161 325 -127 190 -328
334 -559 401 -100 29 -340 36 -445 14 -36 -8 -73 -14 -82 -15 -24 0 -57 34
-119 125 -63 93 -66 97 -140 184 -204 239 -462 438 -784 601 -82 42 -168 84
-190 93 -22 9 -83 35 -135 58 -102 45 -249 90 -480 146 -157 38 -179 46 -210
75 -11 11 -28 19 -38 18 -90 -6 -251 -2 -507 15 -63 4 -65 4 -65 15 0 5 44 38
98 73 107 70 149 109 158 143 16 63 -22 91 -129 98 -43 2 -81 6 -83 9 -3 2 -6
29 -7 59 -3 62 -25 98 -75 122 -35 17 -84 20 -118 6z m356 -277 c9 -9 -79 -80
-127 -104 -61 -30 -147 -38 -156 -15 -17 44 47 101 137 121 47 11 135 10 146
-2z m-570 -193 c0 -37 -31 -70 -65 -70 -35 0 -33 31 6 69 39 40 59 40 59 1z
m3302 -1650 c26 -32 24 -78 -4 -89 -20 -7 -34 -7 -83 3 -48 10 -98 62 -84 87
11 21 37 27 103 24 38 -2 54 -8 68 -25z m241 -20 c35 -16 74 -41 87 -55 22
-23 23 -27 8 -41 -26 -26 -158 -17 -213 15 -22 12 -31 26 -33 50 -7 68 48 80
151 31z m262 -262 c38 -11 78 -26 88 -33 18 -12 18 -14 -5 -35 -21 -20 -169
-98 -214 -113 -11 -4 -36 -13 -56 -20 -46 -18 -48 -6 -8 33 47 46 53 72 30
131 -11 28 -18 55 -15 60 8 13 97 2 180 -23z m-2996 -262 c35 -22 -64 -43
-132 -29 -52 11 -51 26 3 39 43 10 103 5 129 -10z m3201 -37 c13 -47 16 -107
6 -117 -8 -7 -115 -6 -171 2 -16 3 -48 5 -71 5 -22 1 -49 7 -59 15 -18 13 -18
15 -2 40 10 14 24 26 32 26 8 0 15 4 15 9 0 5 10 11 23 14 12 3 58 16 102 30
44 13 87 22 97 19 10 -2 22 -20 28 -43z m-6296 14 c25 -27 25 -27 46 -8 21 19
21 19 94 -57 74 -76 96 -115 71 -124 -14 -6 -105 1 -185 12 -25 4 -50 14 -57
23 -13 18 -16 181 -2 181 4 0 19 -12 33 -27z m5149 -161 c54 -55 58 -79 14
-100 -29 -14 -118 -23 -149 -14 -25 6 -23 36 5 55 12 9 36 28 52 42 l30 27
-30 -6 c-64 -14 -76 -15 -90 -9 -36 13 -10 39 60 61 37 12 48 6 108 -56z
m-638 -12 c36 -40 1 -62 -64 -39 -29 10 -41 36 -24 52 14 15 70 6 88 -13z
m1490 -26 c83 -11 97 -13 180 -20 136 -11 153 -30 90 -100 -40 -43 -41 -47
-20 -64 20 -17 19 -43 -4 -71 -17 -21 -20 -22 -52 -9 -64 25 -284 167 -341
219 -62 56 -24 67 147 45z m-1991 -76 c98 -59 317 -250 304 -264 -12 -11 -48
-7 -198 25 -293 62 -335 72 -346 84 -9 9 -8 24 2 59 12 39 20 49 49 59 28 11
35 18 35 41 0 55 57 54 154 -4z m-3959 7 c157 -20 165 -22 165 -50 0 -42 -176
-156 -216 -141 -9 4 -14 9 -12 12 3 3 0 29 -7 57 -8 29 -17 72 -20 95 -6 44
-6 44 22 38 15 -3 46 -8 68 -11z m4246 -27 c36 -20 59 -53 59 -83 0 -20 -9
-19 -50 6 -51 31 -90 70 -90 92 0 21 22 17 81 -15z m-2385 -28 c2 0 4 -12 3
-27 -1 -42 -24 -98 -41 -101 -18 -4 -93 52 -122 91 -15 21 -17 30 -8 39 19 19
94 26 131 11 18 -7 35 -13 37 -13z m145 -101 c48 -46 52 -52 34 -58 -20 -8
-65 -6 -97 4 -23 8 -36 52 -29 98 3 21 45 1 92 -44z m-1786 -76 c-10 -56 -106
-237 -128 -241 -32 -6 -111 125 -98 162 14 39 204 147 225 126 4 -4 5 -25 1
-47z m5758 46 c12 -7 53 -37 91 -67 l68 -56 -34 -31 c-18 -16 -65 -58 -103
-92 -38 -35 -72 -63 -75 -63 -7 0 -65 116 -75 147 -5 17 4 32 38 68 25 25 47
59 51 75 6 34 8 35 39 19z m-721 -34 c-7 -39 -51 -125 -65 -125 -17 0 -87 69
-87 86 0 6 15 18 33 26 17 8 43 20 57 26 38 17 66 11 62 -13z m-4365 -47 c-4
-13 -11 -47 -17 -76 -7 -28 -14 -52 -17 -52 -9 0 -123 113 -123 122 0 4 10 8
23 8 12 0 27 4 34 8 6 4 33 8 58 10 45 2 47 1 42 -20z m2948 -32 c17 -3 39 -8
50 -10 149 -29 383 -78 395 -82 28 -10 -116 -70 -369 -154 -93 -31 -119 -36
-142 -28 -31 11 -33 15 -49 103 -20 113 -23 155 -11 169 12 14 66 15 126 2z
m-3531 -172 c-2 -130 -12 -184 -37 -184 -21 0 -95 59 -102 81 -11 33 104 244
129 236 7 -3 11 -48 10 -133z m170 70 c35 -72 95 -255 89 -271 -12 -31 -56 0
-68 49 -10 39 -31 54 -43 31 -5 -10 -10 -31 -10 -46 1 -34 -8 -45 -25 -28 -13
13 -15 247 -3 296 10 40 31 29 60 -31z m212 18 c49 -36 114 -108 114 -126 0
-14 -64 -101 -92 -123 -12 -11 -18 -9 -35 10 -23 25 -93 194 -93 224 0 49 49
56 106 15z m5106 -32 c15 -25 30 -57 33 -72 6 -23 2 -29 -24 -42 -64 -34 -89
-13 -92 77 -4 98 35 115 83 37z m-1521 -157 c3 -35 -3 -47 -69 -142 -73 -106
-183 -264 -188 -270 -2 -3 -29 21 -59 53 l-55 57 55 51 c50 46 69 78 46 78 -5
0 -30 -9 -56 -20 -60 -26 -71 -25 -98 6 -46 53 -43 59 41 92 192 75 292 108
344 111 30 1 38 -2 39 -16z m813 -82 c37 -39 22 -53 -53 -52 -34 0 -66 3 -70
5 -4 3 -20 7 -35 10 -41 7 -44 15 -16 37 66 53 123 53 174 0z m-681 -149 c-2
-81 -5 -160 -6 -177 l-2 -30 -133 -3 c-72 -1 -132 1 -132 6 0 11 151 233 214
312 31 41 51 59 55 51 4 -7 6 -78 4 -159z m301 148 c17 -10 83 -71 146 -135
76 -77 132 -124 165 -140 28 -13 66 -37 85 -54 l35 -30 -172 -1 c-121 0 -173
3 -173 11 0 6 -21 56 -47 110 -25 55 -44 102 -40 105 3 3 -7 36 -23 72 -36 86
-32 97 24 62z m-89 -180 c37 -85 69 -161 72 -167 4 -10 -18 -13 -92 -13 l-97
0 6 93 c15 193 25 262 36 250 5 -4 39 -78 75 -163z m641 81 c23 -10 44 -23 47
-28 4 -6 -12 -49 -35 -97 l-42 -86 -44 42 c-24 24 -53 56 -64 71 -19 26 -19
29 -3 53 44 68 71 77 141 45z"/>
</g>
</svg>
