<?xml version="1.0" standalone="no"?>
<!DOCTYPE svg PUBLIC "-//W3C//DTD SVG 20010904//EN"
 "http://www.w3.org/TR/2001/REC-SVG-20010904/DTD/svg10.dtd">
<svg version="1.0" xmlns="http://www.w3.org/2000/svg"
 width="260.000000pt" height="260.000000pt" viewBox="0 0 260.000000 260.000000"
 preserveAspectRatio="xMidYMid meet">
<metadata>
Created by potrace 1.11, written by Peter Selinger 2001-2013
</metadata>
<g transform="translate(0.000000,260.000000) scale(0.100000,-0.100000)"
fill="#000000" stroke="none">
<path d="M1073 2173 c-7 -2 -13 -17 -13 -32 0 -27 -31 -65 -99 -122 -32 -27
-41 -57 -18 -63 6 -3 24 -7 40 -10 15 -4 27 -11 27 -17 0 -6 -11 -8 -27 -5
-16 4 -50 9 -78 12 -42 4 -56 11 -93 49 -24 26 -58 48 -79 54 -20 6 -107 10
-192 10 -194 -1 -193 -1 -173 -100 8 -39 12 -72 10 -74 -2 -2 -32 -5 -68 -7
l-65 -3 -5 -48 c-4 -37 -10 -51 -28 -60 -22 -12 -23 -18 -27 -177 -3 -90 -9
-168 -13 -172 -4 -4 -25 -10 -47 -14 -22 -3 -48 -13 -59 -22 -10 -10 -20 -16
-22 -14 -2 1 -8 2 -14 2 -14 0 -12 -22 6 -58 17 -36 20 -69 12 -157 -21 -224
124 -438 297 -438 90 0 175 55 217 141 24 50 25 53 36 122 7 42 9 45 52 57
l44 13 47 -46 c104 -102 227 -103 331 -2 56 54 56 55 173 62 44 3 103 8 130
11 l50 5 1 -92 c1 -142 44 -251 141 -351 127 -132 294 -185 443 -141 105 31
203 119 245 219 24 55 29 61 58 63 51 4 141 51 185 95 23 23 53 69 69 102 23
52 27 73 27 155 1 86 -2 101 -31 160 -56 118 -146 189 -268 216 -37 8 -130 6
-155 -4 -23 -9 -28 -5 -63 48 -70 109 -203 221 -342 289 -74 37 -173 79 -185
79 -3 0 -37 9 -76 21 -39 11 -78 21 -86 21 -9 0 -21 7 -28 15 -8 10 -18 12
-27 6 -9 -4 -30 -5 -47 -1 -17 3 -59 6 -93 6 -35 -1 -63 2 -63 6 0 3 19 17 42
30 74 41 80 88 10 88 -36 0 -39 2 -35 24 7 35 -38 64 -74 49z m135 -102 c7 -2
-24 -28 -45 -39 -25 -14 -63 -16 -63 -4 0 33 56 55 108 43z m-212 -78 c-2 -10
-10 -19 -19 -21 -20 -4 -22 9 -5 26 17 17 27 15 24 -5z m1232 -620 c3 -19 -1
-23 -22 -23 -29 0 -63 29 -46 40 6 4 23 7 38 6 20 -1 28 -7 30 -23z m92 2 c51
-27 37 -47 -25 -36 -32 5 -40 11 -41 29 -2 27 23 29 66 7z m127 -111 c2 -6
-24 -23 -57 -38 -74 -31 -80 -32 -52 -6 17 17 20 25 12 40 -5 10 -10 23 -10
28 0 13 102 -10 107 -24z m-2284 -92 c4 9 15 3 36 -20 40 -42 40 -56 0 -48
-17 3 -40 6 -50 6 -16 0 -19 7 -19 43 1 38 2 40 14 24 11 -14 15 -15 19 -5z
m1137 8 c0 -5 -16 -10 -35 -10 -19 0 -35 5 -35 10 0 6 16 10 35 10 19 0 35 -4
35 -10z m1184 -6 c3 -9 6 -24 6 -35 0 -17 -5 -19 -37 -15 -21 3 -48 5 -60 5
-41 2 -25 29 25 44 62 19 59 19 66 1z m-424 -60 c21 -21 22 -27 10 -34 -19
-12 -70 -13 -70 -1 0 5 10 16 23 25 l22 16 -27 -6 c-17 -4 -28 -2 -28 4 0 9
12 15 41 21 3 0 16 -10 29 -25z m-235 -5 c10 -15 -1 -22 -24 -14 -12 3 -19 11
-16 16 8 12 32 11 40 -2z m595 -14 c14 -2 35 -4 48 -4 26 -1 29 -18 5 -38 -13
-10 -15 -16 -6 -19 9 -4 10 -11 3 -24 -10 -18 -16 -16 -91 32 -102 65 -95 75
41 53z m-729 -62 c37 -32 64 -59 59 -61 -6 -2 -43 4 -82 13 -40 9 -84 19 -98
22 -31 5 -30 5 -23 31 3 12 12 22 19 22 8 0 13 3 13 8 -7 40 38 26 112 -35z
m-1463 32 c1 -1 0 -8 -3 -16 -5 -13 -74 -54 -80 -47 -1 2 -5 20 -9 41 l-7 38
48 -7 c26 -3 49 -8 51 -9z m1533 -16 c6 -13 6 -19 -1 -19 -12 0 -50 31 -50 41
0 14 41 -4 51 -22z m-902 -3 c0 -6 -4 -19 -8 -29 -6 -17 -8 -17 -34 3 -31 25
-34 37 -9 42 25 6 52 -3 51 -16z m49 -25 c28 -25 28 -28 -5 -27 -20 1 -27 6
-28 24 -2 27 3 27 33 3z m-658 -24 c0 -7 -8 -28 -18 -47 -32 -64 -33 -64 -53
-33 -27 40 -24 50 19 72 44 24 52 25 52 8z m1860 -27 c-12 -29 -14 -30 -31
-14 -25 23 -24 28 9 40 35 13 37 11 22 -26z m305 15 l30 -25 -40 -35 -39 -36
-18 33 c-16 32 -16 33 2 47 11 7 20 20 20 27 0 20 11 17 45 -11z m-1923 -30
l-8 -29 -24 24 -25 25 30 6 c17 3 31 5 32 4 1 0 -1 -14 -5 -30z m1168 -5 c51
-11 96 -20 99 -20 14 -1 -31 -21 -111 -48 -96 -34 -92 -35 -103 42 -9 55 -14
54 115 26z m-1378 -62 c-4 -62 -10 -68 -41 -41 -20 17 -20 17 6 65 15 27 29
45 33 41 3 -5 4 -34 2 -65z m77 1 c13 -33 20 -63 18 -66 -9 -8 -27 7 -27 23 0
8 -5 14 -11 14 -5 0 -9 -8 -7 -18 2 -11 -1 -18 -7 -18 -9 1 -10 23 -6 104 2
39 18 24 40 -39z m93 17 c15 -16 16 -22 5 -35 -34 -45 -36 -45 -57 4 -23 55
-24 62 -7 68 13 5 32 -7 59 -37z m1870 -28 c-27 -11 -30 -9 -34 22 -7 46 13
56 33 18 16 -31 16 -33 1 -40z m-570 -33 c-3 -5 -26 -39 -50 -73 l-45 -64 -21
22 -21 21 24 20 c28 23 22 36 -10 19 -19 -11 -24 -10 -36 6 -7 9 -12 19 -10
20 1 2 38 16 82 32 54 20 82 26 87 19 4 -6 4 -16 0 -22z m301 -9 c25 -19 5
-30 -41 -21 -35 6 -36 8 -17 21 23 17 35 17 58 0z m-250 -53 c-2 -32 -4 -78
-4 -103 -1 -25 -3 -48 -5 -52 -9 -14 -54 15 -54 36 0 15 -3 17 -11 9 -12 -12
-39 -7 -39 8 0 12 102 159 110 159 3 0 5 -26 3 -57z m162 2 c29 -30 57 -55 64
-55 6 0 21 -9 33 -20 17 -16 19 -22 9 -34 -19 -23 -77 -54 -88 -47 -5 3 -20
33 -33 66 -13 33 -28 66 -33 73 -5 6 -7 12 -3 12 4 0 0 14 -9 30 -25 48 3 37
60 -25z m-75 -40 c9 -22 25 -59 35 -83 10 -23 15 -45 12 -48 -3 -3 -21 -6 -39
-6 -69 -1 -66 -5 -62 75 5 71 11 137 14 147 1 5 12 -18 40 -85z m248 40 c2 -2
-4 -18 -13 -35 l-17 -33 -26 26 c-25 26 -25 27 -8 46 15 17 22 18 40 9 11 -6
22 -12 24 -13z"/>
</g>
</svg>
