<?xml version="1.0" standalone="no"?>
<!DOCTYPE svg PUBLIC "-//W3C//DTD SVG 20010904//EN"
 "http://www.w3.org/TR/2001/REC-SVG-20010904/DTD/svg10.dtd">
<svg version="1.0" xmlns="http://www.w3.org/2000/svg"
 width="16.000000pt" height="16.000000pt" viewBox="0 0 16.000000 16.000000"
 preserveAspectRatio="xMidYMid meet">
<metadata>
Created by potrace 1.11, written by Peter Selinger 2001-2013
</metadata>
<g transform="translate(0.000000,16.000000) scale(0.002286,-0.002286)"
fill="#000000" stroke="none">
<path d="M2962 5819 c-40 -20 -119 -98 -202 -199 -25 -30 -47 -57 -50 -60 -48
-48 -112 -180 -107 -219 6 -39 -12 -69 -45 -76 -42 -10 -108 -7 -148 5 -19 6
-46 13 -60 16 -22 5 -68 27 -260 126 -171 88 -508 132 -797 104 -183 -18 -260
-69 -279 -186 -13 -79 -27 -126 -50 -172 -42 -82 -79 -112 -162 -128 -93 -17
-134 -65 -147 -170 -10 -83 -41 -140 -85 -157 -41 -17 -64 -52 -81 -128 -13
-63 -16 -97 -23 -330 -8 -245 -18 -381 -32 -430 -21 -76 -40 -91 -75 -59 -27
24 -85 19 -147 -12 -63 -33 -95 -82 -109 -169 -15 -95 -8 -435 12 -535 2 -13
7 -42 10 -65 3 -22 8 -47 10 -55 2 -8 6 -31 9 -51 12 -80 77 -312 114 -405 35
-88 93 -200 111 -214 3 -3 18 -21 33 -41 106 -142 276 -248 443 -275 42 -7
162 -4 211 5 120 23 228 85 321 185 74 78 97 116 167 275 63 141 125 238 195
306 130 126 217 140 228 37 6 -62 24 -104 57 -134 67 -63 178 -95 338 -97 237
-4 467 78 575 205 37 42 125 88 193 101 14 2 41 8 60 13 19 5 71 12 115 16 44
3 101 9 127 14 78 12 194 12 237 0 23 -6 54 -24 69 -40 31 -32 65 -118 82
-205 22 -114 91 -360 120 -430 4 -11 26 -66 49 -123 63 -162 104 -226 206
-328 283 -279 824 -503 1095 -454 167 30 452 220 687 459 83 84 129 148 143
201 14 52 110 119 330 230 138 69 198 110 271 183 141 141 222 311 258 547 26
165 21 303 -13 400 -87 245 -339 518 -607 657 -41 22 -84 42 -95 46 -86 26
-140 37 -209 43 -100 7 -113 9 -182 29 -147 43 -295 142 -483 325 -248 240
-452 385 -774 549 -199 101 -258 126 -471 203 -136 48 -300 92 -425 114 -129
22 -129 22 -265 29 -66 3 -131 8 -145 10 -131 23 -172 43 -170 84 1 14 2 33 1
43 -1 17 -48 38 -87 38 -54 0 -68 52 -33 120 23 45 29 49 63 56 20 3 34 -7 73
-52 97 -114 100 -117 140 -118 35 -1 38 1 41 30 7 76 -197 292 -306 323 -23 7
-40 5 -70 -10z m3028 -2004 c22 -26 30 -96 15 -132 -23 -56 -95 -87 -142 -62
-54 29 -4 150 82 197 26 15 30 15 45 -3z m489 -339 c79 -41 139 -134 148 -230
8 -90 -19 -147 -83 -173 -65 -27 -67 -48 -8 -100 27 -23 52 -43 56 -43 7 0 26
-54 34 -96 20 -109 -108 -318 -236 -388 -86 -47 -245 -47 -245 -1 0 11 27 41
65 72 180 149 226 202 214 250 -3 12 -26 30 -56 44 -69 32 -83 55 -65 106 11
32 58 104 87 133 25 25 83 105 100 138 33 63 25 85 -33 96 -55 10 -101 49
-110 93 -7 39 14 95 42 109 28 14 47 12 90 -10z m-6008 -338 c40 -44 70 -125
119 -332 52 -216 116 -322 211 -350 81 -24 148 -1 240 84 100 91 191 105 217
33 21 -61 -36 -179 -102 -211 -21 -10 -34 -11 -58 -3 -72 25 -100 4 -112 -85
-11 -76 -21 -85 -54 -48 -15 16 -48 60 -75 97 -43 61 -71 87 -82 76 -2 -3 -6
-38 -9 -78 -2 -40 -9 -78 -14 -83 -43 -43 -228 215 -247 345 -4 27 -2 60 5 82
11 32 10 38 -7 50 -10 7 -31 16 -47 19 -43 9 -65 33 -82 92 -32 111 6 334 57
334 10 0 28 -10 40 -22z m5050 -94 c56 -28 72 -118 33 -181 -19 -30 -46 -20
-98 38 -39 43 -56 82 -56 126 0 31 74 42 121 17z m-1072 -187 c78 -38 178
-134 210 -201 18 -35 27 -83 37 -179 15 -144 21 -186 28 -208 3 -8 8 -32 11
-54 3 -22 12 -67 20 -100 37 -157 43 -267 18 -317 -26 -52 -79 -63 -118 -23
-32 31 -33 93 -5 185 21 68 35 123 45 178 5 28 3 32 -17 32 -13 0 -56 -25 -96
-55 -95 -72 -127 -87 -176 -87 -31 1 -46 7 -63 27 -61 70 9 182 181 291 85 54
58 61 -106 28 -112 -22 -173 -20 -217 7 -57 36 -57 169 0 200 29 15 117 6 234
-23 50 -13 97 -22 106 -20 25 5 29 37 8 71 -38 63 -136 114 -244 126 -87 10
-126 57 -90 111 40 61 125 65 234 11z m-2077 -36 c46 -17 115 -117 96 -137
-21 -21 -91 -4 -183 43 -81 41 -114 80 -83 99 36 22 104 20 170 -5z m3135
-535 c112 -25 185 -124 176 -240 -7 -104 -102 -240 -228 -326 -67 -46 -91 -44
-100 10 -15 87 -152 311 -262 427 -27 29 -17 -18 39 -189 63 -192 73 -248 52
-290 -11 -21 -23 -28 -56 -32 -24 -4 -52 -4 -63 -2 -11 3 -23 5 -27 5 -3 1
-20 13 -38 27 -58 49 -74 104 -74 244 1 112 11 181 35 235 23 53 52 75 97 75
34 0 111 -34 149 -67 53 -45 69 -57 127 -97 115 -79 202 -90 224 -27 14 41 -9
82 -82 142 -73 61 -98 96 -78 108 14 8 67 7 109 -3z"/>
</g>
</svg>
