<?xml version="1.0" standalone="no"?>
<!DOCTYPE svg PUBLIC "-//W3C//DTD SVG 20010904//EN"
 "http://www.w3.org/TR/2001/REC-SVG-20010904/DTD/svg10.dtd">
<svg version="1.0" xmlns="http://www.w3.org/2000/svg"
 width="1024.000000pt" height="1024.000000pt" viewBox="0 0 1024.000000 1024.000000"
 preserveAspectRatio="xMidYMid meet">
<metadata>
Created by potrace 1.14, written by Peter Selinger 2001-2017
</metadata>
<g transform="translate(0.000000,1024.000000) scale(0.100000,-0.100000)"
fill="#000000" stroke="none">
<path d="M5335 10217 c-6 -7 -10 -31 -10 -55 0 -46 21 -72 58 -72 10 0 15 -4
12 -10 -3 -5 -1 -10 4 -10 6 0 11 -6 11 -14 0 -8 12 -24 28 -36 22 -18 35 -21
70 -16 36 5 42 3 42 -13 0 -23 25 -43 72 -59 45 -16 52 -13 193 87 194 137
190 134 163 144 -26 10 -98 3 -107 -10 -3 -5 -22 -19 -41 -31 -20 -11 -47 -31
-60 -43 -14 -11 -44 -32 -67 -46 -42 -24 -44 -24 -88 -10 -25 9 -45 13 -45 10
0 -3 -8 5 -18 17 -16 20 -21 21 -41 10 -19 -10 -29 -9 -57 6 -29 16 -34 23
-29 45 7 32 1 37 -48 41 -38 2 -51 16 -37 38 5 8 19 11 36 7 34 -6 54 1 54 19
0 18 -80 19 -95 1z"/>
<path d="M4750 10200 c0 -11 4 -20 9 -20 6 0 9 9 8 20 -1 11 -5 20 -9 20 -4 0
-8 -9 -8 -20z"/>
<path d="M4860 10206 c0 -7 7 -19 15 -26 13 -11 15 -8 15 14 0 16 -5 26 -15
26 -8 0 -15 -6 -15 -14z"/>
<path d="M4510 10201 c-32 -5 -54 -16 -77 -39 -17 -18 -40 -32 -51 -32 -11 0
-25 -7 -32 -15 -11 -13 -10 -18 6 -30 13 -11 15 -15 4 -13 -8 2 -14 -2 -13 -7
1 -6 -22 -11 -50 -13 -29 -2 -56 -7 -60 -11 -15 -15 19 -28 65 -23 35 3 49 9
53 23 4 10 17 22 29 25 13 3 41 25 63 48 30 32 51 45 81 50 26 4 45 13 52 26
12 22 11 23 -70 11z"/>
<path d="M4786 10151 c-74 -6 -102 -25 -78 -54 10 -11 30 -13 90 -10 91 6 116
21 87 53 -10 11 -21 19 -24 18 -3 -1 -37 -4 -75 -7z"/>
<path d="M6254 10083 c-57 -51 -81 -62 -123 -56 -36 5 -41 3 -41 -14 0 -11
-11 -26 -25 -33 -28 -15 -30 -42 -3 -46 10 -1 29 6 42 17 13 10 34 19 46 19
20 0 79 26 90 39 3 4 24 21 48 40 23 18 40 37 36 42 -9 15 -49 10 -70 -8z"/>
<path d="M4822 10025 c-12 -9 -44 -19 -71 -22 l-49 -6 26 -28 c14 -16 30 -29
37 -29 6 0 21 -9 34 -21 14 -14 31 -19 46 -16 16 2 31 -3 41 -14 10 -11 34
-24 56 -29 21 -6 38 -15 38 -21 0 -6 4 -7 10 -4 5 3 7 0 4 -9 -6 -16 46 -47
130 -76 27 -9 53 -24 58 -33 4 -9 12 -25 17 -34 5 -12 25 -20 57 -25 47 -7 50
-6 116 44 65 49 67 53 74 104 7 62 4 76 -19 80 -12 1 -17 -5 -17 -19 1 -22 1
-22 15 -3 14 19 15 18 15 -13 0 -24 -4 -32 -13 -28 -12 4 -58 -25 -115 -74 -9
-7 -29 -7 -70 2 -31 6 -64 12 -72 12 -8 0 -21 6 -28 13 -7 7 -19 11 -27 8 -8
-4 -15 -1 -15 6 0 6 -4 9 -9 6 -5 -3 -12 2 -15 11 -6 15 4 27 28 36 12 4 -2
47 -16 47 -5 0 -22 -9 -36 -21 l-27 -20 -17 21 c-10 12 -18 28 -18 36 0 9 -11
14 -30 14 -16 0 -30 4 -30 10 0 17 -54 37 -80 30 -32 -9 -55 7 -39 26 6 8 20
14 30 14 12 0 16 5 13 14 -3 8 2 16 13 19 16 4 16 5 -2 6 -11 0 -30 -6 -43
-14z"/>
<path d="M3535 9983 c-38 -14 -72 -27 -74 -29 -6 -6 32 -74 41 -74 13 0 9 20
-4 20 -11 1 58 29 71 30 2 0 1 -7 -3 -15 -7 -20 28 -55 54 -55 12 0 31 -7 44
-15 13 -8 42 -17 65 -19 23 -2 49 -10 59 -18 30 -25 108 -49 137 -42 21 5 32
1 51 -20 14 -14 33 -26 43 -26 17 0 48 -12 160 -62 38 -17 50 -18 81 -9 47 14
50 14 50 -2 0 -39 125 -106 198 -107 13 0 36 -6 50 -14 69 -37 162 -68 185
-62 26 6 97 66 97 82 0 6 -5 15 -11 21 -8 8 -23 3 -54 -19 -34 -24 -49 -29
-74 -23 -17 4 -31 13 -31 20 0 16 -20 23 -73 27 -34 2 -38 4 -32 25 6 27 -6
29 -41 6 -23 -15 -28 -15 -60 0 -19 9 -34 22 -34 28 0 7 -12 10 -30 7 -22 -3
-35 2 -51 18 -12 13 -28 20 -38 17 -9 -3 -1 8 18 24 21 18 31 34 27 41 -10 17
-41 15 -56 -3 -7 -8 -16 -13 -20 -10 -4 3 -13 -2 -20 -10 -15 -18 -43 -19 -72
-4 -16 9 -19 17 -14 42 4 25 3 28 -5 15 -13 -23 -77 -25 -85 -3 -5 11 -10 12
-26 4 -15 -8 -19 -8 -14 0 5 7 -1 11 -14 11 -32 0 -60 18 -60 39 0 28 -10 31
-41 16 -23 -13 -36 -13 -74 -3 -25 7 -45 16 -45 20 0 4 -8 5 -17 2 -21 -7 27
41 49 49 10 4 10 8 -2 21 -14 14 -19 13 -58 -13 -48 -31 -82 -31 -117 1 -11
11 -29 18 -41 15 -11 -2 -26 3 -34 11 -11 13 -11 17 4 28 10 7 16 19 14 27 -2
11 -16 10 -73 -10z"/>
<path d="M4333 9960 c-32 -30 -73 -40 -73 -18 0 6 -3 8 -7 4 -10 -10 26 -36
48 -36 26 0 72 43 68 63 -3 14 -9 12 -36 -13z"/>
<path d="M4446 9954 c-19 -19 -20 -26 -4 -42 25 -25 98 -5 98 27 0 31 -68 42
-94 15z"/>
<path d="M4633 9962 c-81 -6 -80 -54 2 -67 37 -6 42 -4 55 19 19 36 -1 52 -57
48z"/>
<path d="M3725 9929 c-9 -14 -2 -20 14 -10 8 6 9 11 3 15 -6 3 -14 1 -17 -5z"/>
<path d="M6810 9927 c0 -7 7 -23 16 -35 18 -26 81 -31 90 -7 4 8 11 12 18 8 7
-4 8 -3 1 4 -13 13 -91 43 -110 43 -8 0 -15 -6 -15 -13z"/>
<path d="M4540 9921 c0 -5 5 -13 10 -16 6 -3 10 -2 10 4 0 5 -4 13 -10 16 -5
3 -10 2 -10 -4z"/>
<path d="M5275 9891 c-3 -6 -12 -8 -18 -5 -7 4 -4 -1 5 -12 14 -14 21 -15 30
-6 9 9 9 15 1 23 -8 8 -13 8 -18 0z"/>
<path d="M6038 9886 c-16 -5 -28 -15 -28 -22 0 -22 -34 -25 -98 -8 -64 17 -94
11 -77 -16 10 -15 110 -60 134 -60 11 0 38 16 61 35 23 19 46 35 51 35 14 0
11 37 -3 42 -7 3 -25 0 -40 -6z"/>
<path d="M3185 9856 c-40 -19 -46 -25 -32 -31 26 -11 65 2 78 26 6 11 9 22 7
24 -2 2 -26 -6 -53 -19z"/>
<path d="M4440 9835 c0 -18 41 -29 75 -21 14 4 25 13 25 21 0 11 -13 15 -50
15 -37 0 -50 -4 -50 -15z"/>
<path d="M3050 9799 c-27 -15 -29 -18 -10 -13 14 3 32 12 40 20 19 19 12 17
-30 -7z"/>
<path d="M6702 9810 c4 -14 36 -25 92 -34 l29 -5 -20 20 c-24 25 -108 40 -101
19z"/>
<path d="M6840 9800 c-13 -9 -13 -11 0 -20 18 -11 39 5 24 20 -6 6 -15 6 -24
0z"/>
<path d="M3220 9780 c0 -5 5 -10 11 -10 5 0 7 5 4 10 -3 6 -8 10 -11 10 -2 0
-4 -4 -4 -10z"/>
<path d="M3175 9764 c-9 -9 -14 -21 -13 -28 7 -20 111 -66 147 -64 25 2 37 -2
45 -17 23 -40 75 -61 91 -35 10 16 56 11 104 -10 24 -11 54 -20 67 -20 12 0
26 -4 29 -10 3 -5 14 -10 23 -10 10 0 59 -20 110 -45 51 -25 98 -45 105 -45 8
0 38 -18 67 -40 59 -44 62 -45 91 -30 31 17 110 -3 171 -43 30 -20 61 -37 68
-37 7 0 22 -7 31 -16 16 -14 23 -15 49 -4 27 11 39 9 127 -26 54 -21 100 -41
103 -44 15 -16 50 -29 55 -20 3 6 19 10 35 10 31 0 90 43 90 66 0 20 -27 29
-45 14 -44 -36 -175 -17 -175 25 0 11 -7 14 -25 9 -16 -4 -46 2 -80 16 -44 18
-61 20 -83 12 -31 -11 -73 -12 -66 0 3 4 -11 14 -31 22 -43 18 -44 38 -5 68
29 21 40 48 19 48 -5 0 -26 -11 -46 -25 -30 -20 -39 -22 -56 -12 -61 37 -61
37 -74 20 -7 -9 -13 -12 -13 -5 0 7 -10 12 -22 12 -19 0 -20 -2 -8 -10 12 -8
11 -10 -6 -10 -20 0 -53 -27 -52 -43 0 -5 -3 -11 -6 -14 -3 -4 -6 1 -6 10 0
10 -4 17 -9 17 -4 0 -6 11 -4 24 5 22 -7 31 -49 40 -13 2 -21 16 -9 16 7 0 10
4 7 8 -3 5 -19 7 -36 4 -21 -3 -37 2 -51 14 -12 11 -37 24 -58 30 -32 9 -36
14 -34 40 1 16 -1 22 -3 13 -9 -30 -124 -10 -124 21 0 4 13 13 30 20 39 16 57
37 42 52 -8 8 -24 2 -58 -20 -26 -18 -51 -29 -56 -26 -5 4 -33 12 -61 20 -41
11 -60 11 -91 2 -34 -11 -40 -10 -52 7 -14 19 -9 40 7 30 5 -4 9 1 9 10 0 13
-8 11 -47 -9 -30 -14 -54 -21 -63 -16 -8 5 -30 14 -47 20 -18 7 -30 16 -27 21
9 15 -14 10 -31 -7z m1532 -510 c-3 -3 -12 -4 -19 -1 -8 3 -5 6 6 6 11 1 17
-2 13 -5z"/>
<path d="M6127 9763 c-10 -11 -30 -16 -51 -15 -38 3 -50 -7 -40 -33 12 -31 53
-38 90 -14 37 22 59 53 49 69 -9 15 -29 12 -48 -7z"/>
<path d="M3048 9741 c-23 -13 -31 -14 -48 -3 -25 15 -67 16 -76 0 -4 -7 -3 -8
4 -4 7 4 12 3 12 -3 0 -13 74 -34 78 -22 2 5 11 7 21 4 9 -2 23 3 30 11 20 24
8 34 -21 17z"/>
<path d="M5671 9652 l-104 -54 -34 16 c-39 19 -53 20 -53 6 0 -6 12 -16 28
-22 15 -7 34 -20 44 -29 15 -15 14 -18 -22 -38 -21 -11 -45 -21 -54 -21 -9 0
-28 -14 -43 -30 -17 -19 -33 -28 -42 -25 -9 3 -12 3 -8 -1 4 -4 -10 -18 -31
-32 -20 -14 -53 -39 -72 -57 -19 -18 -46 -38 -59 -45 -13 -7 -85 -58 -160
-113 -99 -74 -144 -101 -166 -102 -21 0 -33 -7 -40 -23 -8 -18 -17 -23 -45
-22 -55 3 -60 1 -61 -17 0 -12 -4 -8 -11 10 -5 15 -16 27 -24 27 -17 0 -18
-13 -2 -43 6 -12 14 -29 18 -37 4 -9 30 -19 63 -24 54 -9 58 -8 83 17 15 15
34 27 43 27 9 0 37 15 63 33 155 108 209 150 240 186 55 64 190 167 293 222
48 25 58 36 68 70 3 9 50 39 105 68 100 51 124 74 100 96 -10 10 -36 0 -117
-43z"/>
<path d="M6705 9685 c-56 -19 -76 -45 -35 -45 11 0 20 5 20 11 0 5 3 8 8 5 10
-6 45 21 41 31 -2 5 -17 4 -34 -2z"/>
<path d="M6990 9675 c-16 -20 -3 -55 22 -55 11 0 43 -6 71 -14 29 -8 71 -17
95 -19 36 -4 42 -2 40 11 -4 22 -29 32 -46 19 -10 -8 -11 -5 -3 17 6 14 8 27
6 27 -3 1 -26 3 -52 4 -55 3 -80 8 -89 18 -12 11 -31 8 -44 -8z"/>
<path d="M2726 9639 c-20 -16 -19 -17 24 -45 25 -16 46 -36 48 -44 7 -29 25
-40 64 -40 33 0 45 -6 71 -36 32 -36 123 -94 148 -94 7 0 22 -9 34 -20 23 -22
86 -59 162 -95 28 -13 54 -29 58 -34 3 -6 14 -11 23 -11 9 0 30 -14 47 -30 19
-18 45 -32 65 -35 25 -3 46 -17 76 -50 23 -25 50 -46 60 -47 11 0 24 -2 29 -3
6 -2 17 -3 25 -4 8 0 20 -11 25 -23 6 -13 24 -26 45 -31 19 -5 40 -13 47 -18
19 -16 105 1 146 28 34 24 42 35 38 56 -1 4 -3 16 -4 27 -4 23 -17 39 -17 20
0 -7 -3 -10 -6 -7 -4 4 -19 -2 -34 -13 -15 -11 -35 -17 -47 -14 -12 3 -24 1
-27 -5 -10 -16 -37 -13 -57 5 -20 18 -36 12 -50 -20 -9 -21 -10 -21 -5 2 2 12
0 22 -5 22 -5 0 -9 6 -9 13 0 18 -35 37 -59 30 -29 -7 -71 5 -71 21 0 7 23 27
50 44 53 33 70 56 52 74 -7 7 -29 -1 -71 -24 l-62 -33 -22 27 c-15 18 -27 24
-35 19 -18 -11 -63 -1 -69 15 -3 8 -11 14 -19 14 -8 0 -14 5 -14 10 0 6 -11
15 -25 20 -33 13 -32 28 7 60 19 16 28 31 24 38 -11 18 -26 14 -26 -7 0 -47
-95 -68 -127 -28 -10 13 -29 27 -43 30 -48 13 -56 23 -40 51 7 14 15 24 18 22
2 -3 22 2 44 11 33 13 43 14 64 2 22 -12 27 -10 51 13 26 27 24 52 -3 41 -9
-3 -14 -13 -11 -24 6 -22 -14 -31 -33 -15 -21 16 -40 52 -40 74 0 10 -3 21 -6
25 -7 7 -52 -11 -75 -30 -9 -7 -19 -10 -22 -7 -4 4 -11 -5 -17 -20 -5 -14 -21
-31 -35 -38 -22 -10 -34 -7 -88 19 -34 17 -83 34 -109 37 -35 5 -48 12 -49 24
-4 72 -1 67 -48 67 -27 0 -53 -7 -65 -16z m1137 -586 c-7 -2 -19 -2 -25 0 -7
3 -2 5 12 5 14 0 19 -2 13 -5z"/>
<path d="M6578 9579 c-42 -45 -46 -47 -79 -40 -24 5 -41 4 -52 -4 -15 -10 -15
-14 -1 -33 11 -16 26 -22 52 -22 32 0 45 8 89 53 28 28 56 62 62 74 21 40 -24
23 -71 -28z"/>
<path d="M7385 9561 c-110 -117 -160 -163 -195 -181 -31 -16 -40 -17 -75 -5
-45 16 -55 13 -55 -19 0 -59 84 -95 147 -63 37 19 202 197 226 244 10 19 17
46 15 61 -3 26 -5 25 -63 -37z"/>
<path d="M5120 9595 c-6 -8 -9 -20 -5 -27 4 -7 0 -5 -8 4 -7 10 -29 19 -47 20
-27 3 -36 -2 -50 -27 -9 -16 -28 -36 -42 -44 -21 -12 -29 -12 -56 1 -26 14
-33 14 -43 2 -23 -28 3 -52 76 -70 18 -4 32 3 65 36 34 34 46 41 67 35 36 -9
59 2 73 35 18 42 -3 67 -30 35z"/>
<path d="M6877 9581 c-27 -32 80 -70 111 -39 7 7 12 21 12 33 0 18 -6 20 -56
20 -35 0 -60 -5 -67 -14z"/>
<path d="M7238 9583 c7 -3 16 -2 19 1 4 3 -2 6 -13 5 -11 0 -14 -3 -6 -6z"/>
<path d="M3980 9510 c0 -5 5 -10 10 -10 6 0 10 5 10 10 0 6 -4 10 -10 10 -5 0
-10 -4 -10 -10z"/>
<path d="M6843 9481 c-12 -10 -19 -22 -15 -27 4 -5 0 -3 -8 3 -8 6 -33 13 -55
15 -40 3 -40 3 -40 -32 0 -28 5 -37 28 -48 16 -8 43 -15 60 -16 18 -2 54 -11
80 -20 47 -16 50 -16 83 5 43 26 64 56 64 91 0 41 -17 43 -57 8 -28 -25 -41
-30 -62 -25 -37 9 -50 23 -44 45 7 25 -5 25 -34 1z"/>
<path d="M7638 9463 c-19 -23 20 -49 84 -58 29 -4 62 -13 73 -20 11 -7 42 -16
68 -20 26 -3 73 -15 104 -26 31 -10 58 -17 60 -15 8 8 -161 110 -189 113 -17
2 -37 8 -45 14 -7 6 -13 8 -13 3 0 -5 -4 -4 -8 2 -4 6 -33 14 -64 17 -44 4
-60 2 -70 -10z"/>
<path d="M2355 9423 c-27 -20 -40 -32 -27 -29 30 10 62 -1 56 -19 -3 -7 8 -26
25 -41 17 -15 31 -35 31 -45 0 -24 38 -59 64 -59 12 0 58 16 104 37 l84 37 -7
60 c-10 90 -20 96 -102 58 -104 -47 -119 -49 -148 -18 -13 14 -20 26 -15 26 5
0 7 7 4 15 -8 20 -11 19 -69 -22z"/>
<path d="M3250 9425 c-10 -12 -10 -15 4 -15 9 0 16 7 16 15 0 8 -2 15 -4 15
-2 0 -9 -7 -16 -15z"/>
<path d="M2850 9410 c0 -5 5 -10 11 -10 5 0 7 5 4 10 -3 6 -8 10 -11 10 -2 0
-4 -4 -4 -10z"/>
<path d="M6276 9361 c-7 -11 18 -33 27 -24 4 3 7 1 7 -5 0 -7 -18 -10 -52 -8
-59 4 -85 -8 -67 -30 6 -8 19 -14 29 -14 10 0 23 -6 29 -14 16 -19 36 -15 58
12 10 13 29 28 43 35 14 7 26 23 28 35 3 20 -1 22 -47 22 -27 0 -52 -4 -55 -9z"/>
<path d="M3580 9340 c0 -16 5 -21 23 -18 12 2 22 10 22 18 0 8 -10 16 -22 18
-18 3 -23 -2 -23 -18z"/>
<path d="M2360 9343 c-8 -3 -28 -15 -44 -26 -16 -12 -26 -16 -22 -9 6 9 2 10
-18 0 -33 -14 -33 -28 -1 -28 35 0 72 19 90 47 9 12 14 23 13 22 -2 0 -10 -3
-18 -6z"/>
<path d="M3430 9315 c-10 -12 -10 -15 3 -15 19 0 31 16 18 24 -5 3 -14 -1 -21
-9z"/>
<path d="M2044 9207 c-147 -110 -177 -137 -152 -137 8 0 18 4 24 8 5 5 70 28
144 52 74 23 140 49 146 56 12 15 5 76 -12 107 -9 16 -26 7 -150 -86z"/>
<path d="M7472 9298 c-7 -7 -12 -24 -12 -38 0 -31 22 -45 95 -59 59 -12 114
-25 170 -41 22 -6 71 -18 108 -26 38 -8 73 -17 79 -20 6 -4 38 -13 72 -20 101
-21 199 -44 231 -54 64 -20 214 -52 229 -48 16 3 -109 113 -130 113 -6 0 -18
5 -25 11 -8 6 -41 14 -73 18 -33 4 -76 16 -97 28 -22 12 -46 18 -59 15 -24 -6
-127 18 -147 34 -7 6 -32 12 -55 14 -83 5 -131 18 -135 35 -3 12 -16 16 -53
16 -26 0 -54 5 -62 11 -7 6 -30 9 -50 7 -20 -3 -39 0 -43 6 -8 14 -28 13 -43
-2z"/>
<path d="M6603 9283 c4 -6 1 -16 -7 -22 -11 -9 -15 -9 -19 1 -4 8 -6 7 -6 -4
-1 -12 6 -18 19 -18 11 0 23 -6 26 -14 3 -9 13 -12 22 -9 9 3 -1 -8 -23 -25
-22 -17 -49 -32 -61 -32 -13 0 -39 -20 -65 -51 -61 -70 -214 -224 -283 -284
-48 -42 -63 -49 -92 -46 -25 2 -34 -1 -32 -11 2 -7 -3 -12 -11 -10 -10 2 -12
-4 -7 -24 6 -24 -1 -35 -70 -101 l-77 -73 -64 0 c-49 0 -65 -4 -70 -16 -3 -9
0 -20 8 -24 74 -42 74 -87 1 -81 -32 2 -42 -1 -42 -13 0 -8 4 -17 9 -20 5 -3
11 -14 14 -25 4 -17 -1 -19 -66 -16 l-71 3 -56 -53 c-98 -95 -124 -114 -141
-104 -12 6 -30 -5 -75 -49 -33 -31 -72 -66 -88 -77 -28 -20 -29 -21 -13 -52
15 -28 15 -32 -2 -47 -10 -9 -21 -16 -25 -16 -4 0 -19 -11 -34 -25 -32 -30
-49 -31 -82 -5 -29 23 -50 26 -50 7 0 -24 -44 -57 -68 -50 -43 11 -19 -47 28
-67 16 -7 30 -18 30 -25 0 -7 -26 -29 -57 -50 -32 -21 -74 -51 -95 -67 l-36
-28 -29 23 c-15 12 -66 48 -113 79 -47 31 -96 67 -110 80 -13 12 -51 41 -85
63 -52 34 -67 40 -118 40 -40 0 -61 5 -67 15 -8 13 -12 13 -27 -3 -17 -17 -17
-19 2 -29 43 -25 77 -67 70 -89 l-7 -20 41 21 41 20 34 -22 c105 -71 307 -220
304 -226 -2 -4 -37 -40 -79 -80 -54 -51 -81 -71 -93 -66 -18 7 -46 -12 -46
-30 0 -6 7 -2 15 8 8 11 18 17 21 13 11 -10 -66 -96 -81 -91 -8 3 -12 11 -9
19 3 7 -5 15 -18 19 -37 9 -56 7 -60 -7 -2 -11 -8 -9 -23 5 -15 14 -16 18 -3
13 22 -9 31 10 13 25 -8 7 -15 18 -15 25 0 8 -14 16 -31 20 -17 4 -48 21 -68
39 -20 18 -49 40 -66 50 -45 28 -179 128 -187 140 -4 6 -1 12 7 14 8 2 15 8
15 13 0 6 -4 7 -10 4 -5 -3 -25 -7 -45 -9 -50 -4 -62 -19 -41 -50 9 -14 26
-31 38 -37 13 -6 34 -22 48 -35 26 -24 78 -61 170 -121 30 -20 75 -53 100 -72
25 -20 52 -41 61 -46 9 -6 29 -19 44 -29 26 -19 28 -19 40 -3 7 9 16 17 20 17
5 0 0 -9 -10 -20 -10 -11 -15 -23 -12 -26 8 -8 -53 -85 -109 -139 -47 -45 -73
-83 -79 -113 -2 -12 -20 -46 -39 -76 -19 -30 -47 -78 -61 -106 -14 -27 -29
-50 -34 -50 -9 0 -63 -115 -65 -140 -1 -13 -49 -143 -91 -245 -19 -47 -52
-178 -82 -330 -27 -134 -28 -152 -28 -430 0 -259 3 -304 23 -418 44 -244 115
-469 217 -683 49 -104 51 -112 34 -122 -16 -10 -21 -8 -32 14 l-13 25 -36 -36
c-35 -37 -36 -37 -69 -22 -19 9 -64 29 -101 46 -38 16 -68 36 -68 43 0 16 -42
42 -83 52 -36 8 -131 62 -148 82 -11 13 -10 18 1 25 36 21 42 28 38 40 -4 10
-14 4 -34 -18 -16 -18 -37 -33 -47 -33 -20 0 -171 71 -202 95 -17 14 -18 18
-6 38 13 21 13 22 -6 4 -11 -9 -29 -17 -40 -17 -21 0 -161 66 -197 93 -19 14
-19 16 -3 40 28 43 19 53 -16 19 -18 -18 -40 -32 -49 -32 -19 0 -195 87 -203
100 -3 6 -14 10 -23 10 -9 0 -39 11 -67 24 -27 13 -69 32 -93 41 -61 26 -70
40 -43 68 22 24 28 47 12 47 -5 0 -26 -17 -47 -37 -21 -21 -35 -33 -31 -27 14
24 -42 22 -70 -2 -25 -21 -26 -25 -12 -39 8 -8 42 -24 74 -36 33 -11 67 -27
75 -34 8 -7 60 -34 115 -60 55 -26 130 -63 168 -81 37 -19 72 -34 77 -34 10 0
296 -136 411 -196 37 -19 72 -34 78 -34 22 0 346 -161 371 -184 14 -13 67 -45
118 -70 91 -46 92 -46 109 -26 24 27 28 26 50 -17 10 -21 42 -75 70 -119 l51
-81 -86 -64 c-47 -35 -94 -68 -103 -72 -16 -9 -117 29 -264 99 -40 18 -79 34
-85 34 -7 0 -81 33 -164 74 -83 40 -194 93 -246 117 -52 24 -97 46 -100 50 -3
3 -34 18 -70 34 -62 26 -223 102 -427 203 -51 25 -93 51 -93 58 0 7 17 26 37
43 27 23 48 31 75 31 39 0 45 9 32 44 -11 30 -41 16 -93 -43 -28 -33 -59 -62
-69 -65 -11 -4 -51 11 -97 34 -43 22 -88 40 -99 40 -21 0 -17 10 6 14 16 2 62
46 49 46 -5 0 -14 -6 -20 -14 -23 -27 -59 -28 -108 -1 -27 14 -55 25 -63 25
-8 0 -28 9 -45 20 -34 22 -66 26 -62 8 1 -7 -5 -12 -13 -13 -8 0 -15 -7 -15
-15 0 -9 55 -42 145 -87 263 -130 594 -291 650 -316 179 -80 769 -373 790
-393 14 -12 50 -34 80 -47 30 -13 104 -46 163 -72 l108 -49 34 19 c19 10 57
36 84 59 28 23 70 56 95 73 l45 33 30 -39 c17 -22 29 -45 26 -53 -3 -7 -121
-129 -263 -270 l-257 -257 156 -153 c86 -84 177 -177 203 -207 43 -50 48 -53
64 -38 48 45 172 147 178 147 4 0 14 7 23 15 32 30 181 151 225 183 26 18 46
38 46 45 0 7 -9 32 -20 55 -26 52 -25 53 8 42 l27 -10 -28 25 c-24 21 -27 28
-17 40 18 21 27 19 74 -20 24 -19 46 -35 50 -35 4 0 30 -16 59 -35 40 -27 52
-41 53 -62 2 -44 5 -49 14 -28 5 11 9 14 9 7 1 -7 6 -10 11 -7 8 5 7 12 -2 23
-9 11 -1 9 22 -6 102 -66 186 -106 223 -106 21 -1 41 2 43 6 7 11 -43 21 -57
12 -7 -4 2 14 20 39 18 26 36 47 40 47 5 0 53 -21 107 -46 451 -209 999 -280
1499 -194 326 56 660 184 933 358 12 8 22 12 22 9 0 -13 -193 -125 -315 -182
-236 -113 -439 -177 -695 -220 -150 -26 -145 -33 8 -10 254 38 488 113 737
235 277 137 474 277 685 489 390 392 622 845 722 1406 20 115 23 162 23 410 0
247 -3 295 -23 405 -24 133 -73 335 -98 403 -50 135 -69 183 -76 193 -9 12 74
98 85 88 4 -4 7 4 7 18 0 30 25 57 33 36 4 -9 9 -7 18 7 7 11 25 33 41 48 50
50 31 66 -21 18 -17 -16 -31 -27 -31 -23 0 3 -9 -3 -20 -13 -11 -10 -17 -22
-14 -27 3 -5 -2 -12 -12 -15 -11 -3 -32 -26 -49 -51 -16 -25 -35 -47 -40 -49
-6 -2 -32 41 -59 94 -51 104 -141 259 -163 282 -8 7 -11 23 -8 35 2 11 2 15
-1 9 -7 -15 -17 -6 -54 47 -31 46 -110 140 -178 213 l-54 57 91 97 c50 54 91
102 91 107 0 5 19 32 43 60 24 28 63 80 87 116 23 36 60 90 80 120 21 31 52
89 69 130 18 41 36 79 42 85 5 5 9 35 9 67 0 48 -3 56 -16 51 -8 -3 -13 -12
-10 -20 3 -8 2 -12 -2 -9 -5 3 -23 -26 -40 -64 -18 -37 -57 -103 -87 -145 -30
-42 -55 -79 -55 -82 0 -18 -163 -217 -259 -315 l-113 -118 -28 23 c-15 12 -74
60 -131 107 -57 47 -121 96 -141 110 -40 26 -45 35 -28 45 6 4 8 12 4 18 -3 7
2 3 12 -8 13 -16 15 -16 11 -3 -4 11 0 19 11 22 10 3 57 46 106 95 102 102
102 109 11 131 -31 7 -58 17 -61 22 -3 4 -10 8 -15 8 -6 0 -4 -7 5 -15 8 -8
24 -15 35 -15 11 0 23 -4 26 -10 3 -5 15 -10 26 -10 32 0 22 -20 -51 -97 -39
-40 -68 -77 -66 -82 3 -4 -1 -8 -9 -8 -8 0 -12 4 -9 9 7 10 -299 160 -331 162
-14 0 -25 6 -25 12 0 16 34 44 54 44 9 0 15 4 12 9 -3 5 7 23 23 41 24 29 32
31 62 25 19 -3 52 -15 75 -25 22 -10 58 -21 80 -25 30 -5 25 -1 -27 18 -37 14
-75 30 -86 36 -11 5 -23 8 -26 4 -4 -3 -13 -1 -20 5 -8 7 -24 8 -43 3 -20 -5
-38 -3 -59 10 -16 9 -43 20 -59 24 l-30 6 24 -19 c13 -11 30 -18 36 -15 7 2
15 0 19 -6 9 -15 -46 -63 -66 -58 -12 3 -16 0 -12 -9 3 -9 -2 -14 -17 -14 -13
0 -20 -5 -17 -12 2 -7 18 -13 36 -12 25 0 29 -2 19 -13 -15 -15 -88 -26 -88
-13 0 4 6 10 13 13 25 9 -9 26 -116 57 -155 44 -290 71 -301 60 -16 -16 -46
-12 -40 5 4 8 13 15 20 15 15 0 76 39 82 53 2 4 9 7 14 7 6 0 24 14 39 31 30
34 46 34 114 4 41 -18 75 -25 75 -15 0 5 -16 14 -35 20 -19 6 -35 16 -35 21 0
5 -9 9 -19 9 -11 0 -23 5 -26 10 -3 6 -19 10 -35 10 -21 0 -33 -8 -47 -30 -9
-16 -22 -29 -28 -28 -17 4 -52 -20 -103 -68 -44 -42 -50 -44 -87 -38 -22 3
-77 12 -123 19 -45 7 -85 15 -89 18 -3 4 13 27 36 52 22 24 41 51 41 58 0 8 9
26 21 41 11 14 25 41 30 59 12 46 87 120 113 113 33 -8 116 48 116 78 0 42
-39 51 -87 19 -16 -10 -27 -12 -36 -6 -19 16 -67 25 -67 13 0 -5 5 -10 10 -10
20 0 9 -39 -18 -62 -15 -12 -28 -26 -29 -31 -1 -4 -3 -11 -6 -15 -2 -4 -2 -2
-1 5 3 13 -53 36 -67 27 -18 -11 -8 -35 19 -46 15 -6 30 -11 35 -10 21 5 -2
-25 -90 -114 -53 -55 -96 -104 -95 -110 1 -6 -8 -20 -20 -31 -22 -19 -38 -21
-250 -25 -126 -3 -228 -3 -228 0 0 3 59 65 132 139 73 73 128 133 124 133 -5
0 8 18 28 40 30 33 36 48 36 84 0 38 4 48 31 67 19 13 48 23 72 23 39 2 48 9
180 146 77 80 146 160 154 178 7 18 26 40 42 50 48 29 91 87 91 121 0 39 -11
39 -63 -1 -50 -40 -58 -48 -102 -116 -20 -29 -42 -55 -50 -58 -8 -4 -15 -11
-15 -18 0 -6 -46 -57 -103 -114 l-103 -102 -47 6 c-45 6 -47 6 -47 -18 0 -14
-9 -33 -21 -44 -12 -10 -28 -32 -36 -49 -9 -16 -67 -83 -129 -147 -63 -65
-114 -122 -114 -128 0 -5 -6 -10 -14 -10 -7 0 -22 -12 -32 -27 -10 -15 -56
-64 -101 -109 -77 -77 -84 -82 -145 -93 -145 -28 -366 -98 -505 -161 -56 -26
-64 -27 -45 -10 12 11 22 25 22 29 0 5 63 68 140 141 92 86 148 133 165 135
29 3 65 32 65 51 0 8 16 20 35 28 23 10 40 26 49 46 7 17 27 38 46 48 22 11
38 29 45 50 12 38 140 162 167 162 23 0 82 53 128 115 44 58 81 96 139 145 23
19 51 51 61 72 11 21 39 48 66 65 26 15 66 48 89 72 l42 44 49 -11 c83 -19
165 -19 177 -1 6 9 7 24 2 35 -4 11 -7 23 -6 27 1 5 -11 7 -26 5 -16 -2 -33 3
-39 12 -10 12 -17 12 -39 2 -22 -10 -32 -10 -58 3 -40 20 -123 33 -114 18z
m240 -58 c29 -7 30 -8 9 -12 -35 -7 -52 4 -51 29 1 15 3 17 6 7 2 -9 18 -20
36 -24z m244 -605 c-2 -24 -10 -25 -26 -6 -10 11 -8 15 6 19 10 3 19 5 20 6 1
0 1 -8 0 -19z m-77 -70 c0 -5 -2 -10 -4 -10 -3 0 -8 5 -11 10 -3 6 -1 10 4 10
6 0 11 -4 11 -10z m-1090 -15 c0 -7 -30 -13 -34 -7 -3 4 4 9 15 9 10 1 19 0
19 -2z m909 -460 c289 -42 576 -140 833 -282 71 -39 213 -126 227 -139 3 -3
-218 -228 -490 -502 -272 -273 -590 -594 -707 -712 l-212 -215 -212 215 c-117
118 -435 439 -708 713 -289 290 -491 501 -485 505 130 89 364 214 505 270 184
73 413 131 590 151 52 6 109 13 125 15 64 9 436 -4 534 -19z m-1839 -828 c0
-2 -17 -19 -37 -38 -20 -18 -31 -25 -23 -14 20 26 60 61 60 52z m-110 -110 c0
-2 -9 -12 -20 -22 -24 -21 -27 -14 -4 9 15 15 24 20 24 13z m-105 -124 c-76
-90 -74 -88 -71 -68 1 9 10 22 19 27 10 5 15 13 12 17 -2 5 2 14 10 21 8 7 12
16 9 21 -3 5 3 6 12 2 12 -4 15 -3 10 6 -5 7 -2 10 6 9 7 -2 12 3 11 10 -2 6
4 12 12 12 8 0 15 5 15 12 0 6 3 9 6 5 3 -3 -20 -36 -51 -74z m-132 -186
c-103 -170 -229 -441 -258 -559 -7 -26 -25 -40 -25 -19 0 5 -3 17 -7 27 -5 13
-3 15 7 9 9 -5 11 -4 6 4 -10 16 3 53 16 45 7 -5 9 2 4 20 -8 34 1 69 16 60 8
-5 9 -1 5 10 -5 11 -3 15 5 10 8 -5 9 1 4 20 -4 17 -3 25 3 22 12 -8 22 20 14
41 -5 12 -3 14 7 8 10 -6 12 -4 7 8 -7 19 12 69 23 62 3 -2 6 6 6 18 -1 13 4
21 12 19 8 -1 11 2 8 7 -9 13 4 42 16 35 5 -3 8 2 6 12 -2 11 2 18 8 17 7 -1
10 6 7 16 -3 10 1 22 8 26 8 6 10 4 4 -5 -5 -9 -4 -11 4 -6 6 4 9 11 6 16 -6
10 21 70 31 70 3 0 2 -5 -2 -12 -4 -7 -3 -8 4 -4 6 4 9 12 6 19 -2 7 6 22 18
33 23 19 23 19 8 -1 -14 -19 -14 -19 3 -6 10 8 16 20 13 28 -3 8 -2 12 3 9 5
-3 16 6 25 19 9 14 21 23 26 20 5 -3 -16 -47 -47 -98z m-273 -612 c0 -8 -5
-15 -11 -15 -5 0 -8 4 -5 9 4 5 0 12 -6 14 -8 3 -6 6 5 6 9 1 17 -6 17 -14z
m-13 -31 c-3 -3 -12 -4 -19 -1 -8 3 -5 6 6 6 11 1 17 -2 13 -5z m2833 -1829
c387 -387 702 -706 699 -709 -14 -13 -156 -100 -227 -139 -259 -144 -545 -240
-841 -284 -161 -24 -521 -24 -682 0 -296 44 -582 140 -841 284 -71 39 -213
126 -227 139 -5 5 1400 1414 1409 1414 3 0 322 -317 710 -705z m-4040 494 c0
-4 -5 -11 -11 -15 -7 -4 -10 -1 -7 7 3 8 1 23 -4 34 -9 20 -9 20 6 1 9 -11 16
-23 16 -27z m250 -121 c0 -4 -5 -8 -11 -8 -5 0 -8 4 -5 9 3 5 -1 14 -9 21 -8
7 -15 17 -15 23 0 5 9 0 20 -13 11 -13 20 -27 20 -32z m4560 -1132 c0 -2 -8
-10 -17 -17 -16 -13 -17 -12 -4 4 13 16 21 21 21 13z"/>
<path d="M6142 9226 c-12 -7 -20 -15 -17 -18 4 -3 1 -9 -6 -14 -8 -4 -10 -3
-5 4 5 8 0 12 -13 12 -15 0 -21 -7 -21 -22 0 -16 -26 -47 -79 -95 -44 -40 -84
-73 -89 -73 -5 0 -16 -8 -23 -17 -13 -17 -12 -17 6 -4 11 8 -13 -16 -54 -55
-41 -38 -82 -74 -93 -79 -18 -11 -93 -79 -223 -203 -39 -37 -97 -90 -130 -119
-33 -29 -91 -80 -128 -113 -53 -48 -74 -61 -95 -58 -19 2 -27 -2 -27 -12 0 -8
-7 -15 -15 -15 -30 0 -16 -39 20 -57 19 -9 38 -17 43 -18 4 0 61 48 126 108
128 116 318 286 440 395 101 90 297 273 338 316 18 19 30 39 26 45 -4 8 -3 8
6 0 8 -8 25 3 62 40 28 28 51 53 50 55 -2 10 -78 8 -99 -3z"/>
<path d="M5976 9215 c-3 -8 -12 -12 -20 -9 -18 7 -27 -8 -16 -26 7 -11 13 -11
34 4 14 9 26 23 26 31 0 19 -16 19 -24 0z"/>
<path d="M4566 9199 c-21 -11 -50 -31 -64 -45 -15 -13 -32 -24 -39 -24 -7 0
-24 -12 -39 -27 -15 -15 -36 -29 -47 -30 -11 -2 -30 -15 -43 -28 -24 -26 -48
-32 -59 -15 -13 20 -27 9 -22 -17 7 -40 -1 -54 -30 -47 -19 5 -32 -1 -57 -25
-35 -34 -65 -40 -128 -27 -31 7 -38 5 -38 -8 0 -8 14 -25 30 -38 28 -20 40
-41 23 -36 -5 1 -23 -6 -42 -16 -25 -13 -36 -15 -41 -6 -11 18 -45 7 -45 -15
0 -27 44 -50 80 -41 16 4 46 25 66 47 20 21 40 39 45 39 5 0 27 14 48 30 22
17 51 30 66 30 30 0 50 16 50 42 0 11 7 18 19 18 11 0 32 10 48 23 15 13 51
37 78 55 161 101 209 141 200 165 -9 22 -12 21 -59 -4z m-180 -167 c-10 -2
-22 0 -28 6 -6 6 0 7 19 4 21 -5 23 -7 9 -10z"/>
<path d="M2445 9158 c-20 -18 -79 -70 -129 -114 -50 -45 -106 -89 -123 -98
-21 -11 -41 -33 -55 -64 l-23 -47 -77 -2 c-43 -1 -80 2 -83 8 -10 14 -23 11
-29 -8 -6 -19 14 -87 30 -103 5 -5 46 -12 90 -16 l82 -7 34 54 c19 30 47 60
61 68 15 8 27 18 27 23 0 4 5 8 11 8 13 0 255 216 262 234 11 27 -13 96 -33
96 -4 0 -24 -15 -45 -32z"/>
<path d="M2997 9099 c-57 -34 -74 -40 -103 -35 -19 4 -34 12 -34 18 0 7 -5 6
-15 -2 -9 -7 -13 -21 -9 -35 3 -13 -1 -28 -10 -37 -8 -9 -12 -18 -9 -22 4 -3
-3 -6 -13 -6 -27 0 -59 -24 -50 -38 4 -8 21 -3 52 14 37 21 55 25 88 20 33 -5
52 -1 99 23 94 47 119 78 101 125 -9 23 -21 20 -97 -25z"/>
<path d="M7339 9054 c-35 -29 -48 -35 -83 -32 -31 2 -41 -1 -41 -12 0 -8 -7
-15 -15 -15 -32 0 -13 -31 35 -56 l50 -27 51 48 51 48 69 -19 c37 -10 76 -16
86 -13 27 8 58 54 58 85 0 33 -10 36 -45 13 -24 -16 -89 -11 -101 7 -13 22
-73 8 -115 -27z"/>
<path d="M1995 9041 c-7 -12 12 -24 25 -16 11 7 4 25 -10 25 -5 0 -11 -4 -15
-9z"/>
<path d="M3221 8996 c-7 -8 -34 -20 -61 -26 -28 -7 -47 -16 -44 -21 3 -5 2 -9
-3 -9 -73 -4 -106 -11 -141 -29 -44 -23 -52 -40 -27 -61 13 -10 22 -10 53 3
32 14 84 28 109 29 5 0 17 7 28 14 11 8 26 14 35 14 8 0 34 10 58 22 41 23 59
48 47 68 -9 15 -41 12 -54 -4z"/>
<path d="M1710 8935 l-35 -36 33 16 c18 9 37 25 42 36 17 30 -3 22 -40 -16z"/>
<path d="M4683 8937 c-13 -5 -23 -14 -23 -19 0 -5 -11 -13 -25 -18 -26 -10
-32 -24 -15 -35 6 -3 10 -1 10 5 0 6 4 9 8 6 4 -2 25 10 47 28 39 33 38 52 -2
33z"/>
<path d="M2675 8880 c-33 -27 -64 -50 -70 -50 -6 0 -21 -11 -33 -25 -12 -14
-28 -25 -34 -25 -17 0 -118 -96 -118 -112 0 -7 -25 -29 -55 -47 -53 -34 -66
-53 -45 -66 18 -11 11 -25 -22 -45 -20 -12 -37 -16 -47 -11 -9 5 -38 11 -64
14 -57 8 -71 -10 -40 -51 29 -38 135 -67 175 -46 33 17 42 31 43 68 0 22 7 33
30 46 17 9 39 33 50 53 11 20 31 41 44 47 14 6 31 20 39 31 8 11 25 24 38 29
13 5 32 27 44 50 11 22 24 40 29 40 5 0 39 25 75 57 55 47 64 59 55 75 -15 27
-29 23 -94 -32z"/>
<path d="M4847 8899 c-20 -12 -23 -29 -3 -29 17 0 40 26 29 33 -5 3 -16 1 -26
-4z"/>
<path d="M8550 8839 c0 -80 9 -99 46 -99 25 0 39 15 47 51 5 21 -2 33 -43 74
l-50 49 0 -75z"/>
<path d="M8029 8884 c-20 -24 1 -47 57 -61 27 -6 85 -21 129 -33 44 -12 96
-25 115 -30 50 -13 134 -12 148 2 22 22 14 41 -15 35 -15 -3 -38 -1 -52 4 -13
6 -94 28 -180 50 -86 22 -163 42 -172 44 -9 3 -22 -2 -30 -11z"/>
<path d="M3260 8870 c-13 -9 -10 -15 19 -39 25 -23 33 -37 33 -64 0 -19 3 -38
7 -44 11 -17 124 -93 137 -93 10 0 11 -6 3 -27 -8 -22 -6 -30 12 -50 13 -13
34 -23 49 -23 29 0 54 -22 64 -57 6 -18 15 -23 40 -23 39 0 51 12 60 61 8 44
17 53 74 70 54 16 65 29 52 63 -13 34 -28 33 -113 -9 -73 -36 -144 -47 -134
-21 8 19 -35 57 -74 65 -18 4 -34 12 -36 18 -5 14 63 81 95 94 12 5 22 13 22
19 0 16 -40 12 -46 -5 -4 -8 -10 -13 -14 -10 -5 3 -13 -3 -19 -12 -6 -10 -11
-15 -11 -10 0 4 -14 0 -31 -8 -27 -14 -33 -15 -52 -2 -31 21 -77 68 -77 80 0
9 -29 36 -40 37 -3 0 -12 -5 -20 -10z m95 -99 c3 -5 1 -12 -4 -15 -5 -3 -11 1
-15 9 -6 16 9 21 19 6z m155 -111 c0 -5 -2 -10 -4 -10 -3 0 -8 5 -11 10 -3 6
-1 10 4 10 6 0 11 -4 11 -10z"/>
<path d="M7099 8875 c-1 -3 -2 -11 -3 -17 0 -7 -8 -13 -16 -13 -38 0 -15 -51
26 -60 11 -2 45 -11 77 -19 144 -40 173 -47 202 -49 16 -2 50 -10 75 -19 62
-22 173 -49 245 -59 33 -4 98 -17 145 -28 47 -11 132 -31 190 -45 58 -13 113
-27 122 -31 12 -5 27 3 48 23 30 30 40 62 19 62 -5 0 -7 -5 -3 -11 8 -13 -66
-7 -136 11 -25 6 -65 15 -90 20 -101 20 -180 43 -174 51 3 5 -2 9 -10 9 -9 0
-16 -4 -16 -10 0 -18 -29 -10 -44 12 -12 17 -18 20 -28 10 -7 -7 -29 -12 -50
-12 -20 0 -43 -6 -49 -13 -11 -11 -16 -10 -31 5 -23 23 -23 22 14 74 24 33 29
47 20 56 -8 8 -21 2 -51 -25 l-40 -36 -48 16 c-26 9 -52 19 -58 23 -5 4 -36
10 -67 14 -31 3 -69 11 -85 18 -15 6 -31 12 -35 12 -3 1 -10 4 -14 9 -4 4 -24
7 -44 7 -20 0 -40 3 -44 7 -8 8 -46 15 -47 8z"/>
<path d="M4470 8822 c0 -16 8 -23 28 -27 15 -3 44 -14 65 -24 24 -13 37 -15
37 -8 -1 15 -66 57 -89 57 -9 0 -22 5 -29 12 -9 9 -12 7 -12 -10z"/>
<path d="M7881 8826 c-7 -8 -21 -12 -32 -9 -22 6 -69 -31 -69 -54 0 -27 37
-12 80 32 24 25 42 45 38 45 -3 0 -11 -6 -17 -14z"/>
<path d="M4827 8803 c-3 -5 -36 -25 -72 -44 -36 -18 -65 -37 -65 -41 0 -4 -13
-8 -29 -8 -32 0 -61 -22 -61 -46 0 -20 9 -18 29 7 9 12 28 23 42 24 32 4 141
58 158 79 7 8 11 21 9 28 -3 8 -7 8 -11 1z"/>
<path d="M1542 8777 c-25 -27 -28 -37 -9 -37 16 0 47 32 47 48 0 19 -14 14
-38 -11z"/>
<path d="M2825 8790 c-8 -12 10 -37 37 -51 26 -14 36 16 13 41 -20 22 -40 26
-50 10z m50 -20 c3 -5 2 -10 -4 -10 -5 0 -13 5 -16 10 -3 6 -2 10 4 10 5 0 13
-4 16 -10z"/>
<path d="M3681 8774 c0 -11 3 -14 6 -6 3 7 2 16 -1 19 -3 4 -6 -2 -5 -13z"/>
<path d="M3027 8744 c-22 -12 -25 -17 -15 -28 19 -20 68 2 68 30 0 18 -18 17
-53 -2z"/>
<path d="M3101 8714 c-24 -14 -50 -32 -58 -40 -8 -8 -21 -14 -28 -14 -8 0 -18
-6 -22 -12 -4 -7 -20 -24 -36 -37 -24 -22 -28 -23 -40 -9 -20 27 -72 32 -94
10 -10 -10 -25 -22 -33 -25 -8 -4 -33 -18 -55 -32 -22 -14 -50 -31 -62 -37
-13 -6 -23 -15 -23 -20 0 -4 -9 -8 -21 -8 -12 0 -39 -14 -61 -31 -40 -32 -45
-33 -125 -15 -18 4 -21 1 -17 -17 11 -60 81 -102 127 -78 13 7 30 11 37 9 9
-2 16 6 18 19 2 12 10 27 18 33 8 7 14 21 14 30 0 19 44 60 63 60 5 0 30 16
53 36 24 19 44 32 44 29 0 -4 14 4 31 16 28 19 35 20 71 10 39 -12 41 -11 146
52 59 35 108 72 110 81 5 21 -5 20 -57 -10z"/>
<path d="M3258 8690 c-7 -11 -23 -20 -35 -20 -12 0 -24 -4 -28 -10 -3 -5 -28
-21 -55 -36 -28 -15 -50 -31 -50 -35 0 -4 -10 -5 -22 -2 -21 5 -22 4 -7 -12
16 -16 22 -14 103 29 114 61 126 69 126 83 0 22 -19 24 -32 3z"/>
<path d="M8333 8673 c-14 -21 -17 -44 -16 -101 2 -40 5 -77 8 -82 3 -5 29 -12
56 -16 31 -4 62 -16 79 -30 23 -20 38 -23 90 -23 48 1 69 -4 89 -19 22 -16 54
-22 147 -30 79 -6 123 -6 132 0 6 6 12 32 12 60 0 27 4 57 10 67 7 14 2 25
-26 52 -34 33 -37 34 -131 38 -76 2 -102 7 -123 22 -18 14 -50 22 -101 26 -48
4 -83 12 -101 24 -14 11 -36 19 -48 19 -12 0 -30 5 -40 10 -16 8 -23 5 -37
-17z m103 -90 c-4 -5 12 -13 36 -20 42 -11 40 -12 -44 -11 -49 0 -88 5 -88 9
0 5 7 9 16 9 8 0 12 5 9 10 -4 6 10 10 36 10 23 0 39 -3 35 -7z"/>
<path d="M8380 8570 c0 -5 5 -10 11 -10 5 0 7 5 4 10 -3 6 -8 10 -11 10 -2 0
-4 -4 -4 -10z"/>
<path d="M5304 8673 c0 -11 -6 -17 -16 -17 -10 1 -17 -1 -16 -5 2 -21 -4 -30
-18 -24 -10 4 -29 -7 -52 -30 -20 -19 -57 -52 -80 -73 -24 -22 -57 -52 -74
-67 -17 -16 -33 -25 -37 -20 -8 12 -50 10 -59 -2 -7 -11 -70 -35 -90 -35 -6 0
-22 -4 -37 -10 -21 -8 -24 -13 -16 -28 5 -10 25 -26 44 -37 34 -18 35 -18 68
1 29 17 34 26 37 62 3 45 4 45 59 25 11 -4 41 20 139 113 18 17 57 49 87 71
70 53 89 72 82 84 -10 15 -23 10 -21 -8z m-474 -308 c0 -8 -2 -15 -4 -15 -2 0
-6 7 -10 15 -3 8 -1 15 4 15 6 0 10 -7 10 -15z"/>
<path d="M6279 8674 c-10 -12 -9 -18 3 -31 19 -19 61 -8 56 14 -5 24 -44 35
-59 17z"/>
<path d="M4540 8619 c-24 -12 -39 -14 -50 -7 -12 8 -28 2 -66 -23 -27 -19 -53
-39 -57 -46 -12 -19 -86 -35 -124 -28 -28 5 -33 3 -33 -13 0 -32 52 -49 84
-26 11 8 33 14 48 14 16 0 28 4 28 9 0 14 79 61 85 51 3 -6 -1 -10 -9 -10 -26
0 -18 -15 9 -18 34 -3 42 18 15 40 -12 10 -18 18 -14 19 5 0 17 2 27 4 9 2 17
-1 17 -6 0 -18 47 -9 67 14 43 47 35 56 -27 26z"/>
<path d="M1745 8595 c-32 -27 -83 -33 -103 -13 -9 9 -15 9 -23 1 -19 -19 -1
-61 31 -78 17 -9 30 -19 30 -22 0 -4 -12 -20 -27 -35 -28 -30 -93 -40 -93 -15
0 8 -3 7 -9 -3 -12 -18 -4 -33 12 -23 26 15 -21 -32 -67 -69 -50 -40 -55 -41
-118 -22 -10 3 -37 -13 -71 -43 -30 -26 -80 -70 -112 -97 l-56 -48 -49 9 c-54
11 -76 4 -67 -21 6 -14 16 -16 57 -10 50 7 81 -5 79 -30 -1 -6 -38 -46 -84
-88 l-82 -77 -39 10 c-22 6 -45 17 -53 24 -12 12 -10 15 13 21 14 3 32 17 39
30 9 17 16 21 27 14 13 -8 13 -13 -3 -39 -13 -22 -14 -32 -6 -37 7 -4 9 -3 6
3 -4 5 5 20 18 31 l25 22 -26 25 c-30 30 -32 30 -65 1 -36 -31 -46 -54 -43
-96 6 -79 35 -113 108 -123 38 -6 41 -4 128 80 71 70 88 92 88 116 0 35 12 50
116 149 77 72 84 77 117 71 32 -5 40 -1 86 42 34 31 51 56 51 71 0 13 3 23 8
22 13 -4 86 39 107 62 11 12 20 34 20 48 0 20 7 27 30 34 40 10 55 33 55 85 0
50 -11 54 -55 18z"/>
<path d="M7167 8544 c-13 -14 -7 -25 21 -35 15 -5 35 -23 44 -39 14 -24 24
-30 52 -30 19 0 79 -16 132 -35 73 -26 112 -35 163 -35 58 -1 71 -4 105 -30
39 -30 66 -38 66 -21 0 19 33 20 57 1 14 -11 44 -25 66 -31 34 -9 44 -8 66 8
28 21 67 90 57 101 -11 10 -41 -14 -38 -30 2 -7 0 -10 -3 -6 -4 4 -16 1 -27
-6 -22 -15 -61 -7 -107 22 -19 13 -22 21 -17 50 l5 35 -34 -33 -34 -33 -49 32
c-37 23 -60 31 -96 31 -26 0 -60 7 -76 15 -16 8 -35 12 -43 9 -8 -3 -32 3 -54
14 -21 11 -60 22 -88 26 -27 4 -65 10 -84 13 -24 4 -32 2 -27 -6 11 -17 -25
-13 -38 5 -6 8 -15 12 -19 8z m123 -38 c0 -2 -7 -9 -15 -16 -13 -11 -14 -10
-9 4 5 14 24 23 24 12z m219 -40 c-2 -2 -17 -6 -34 -10 -22 -5 -26 -4 -15 4
14 9 59 15 49 6z m76 -26 c-3 -5 -12 -10 -18 -10 -7 0 -6 4 3 10 19 12 23 12
15 0z m-128 -22 c-3 -8 -6 -5 -6 6 -1 11 2 17 5 13 3 -3 4 -12 1 -19z m70 -24
c-3 -3 -12 -4 -19 -1 -8 3 -5 6 6 6 11 1 17 -2 13 -5z"/>
<path d="M3161 8523 c6 -7 15 -10 20 -7 5 3 9 1 9 -4 0 -16 50 -24 66 -11 20
16 7 30 -22 23 -13 -3 -30 -2 -37 4 -6 5 -20 9 -29 9 -14 0 -15 -3 -7 -14z"/>
<path d="M3882 8488 c-6 -7 -12 -26 -14 -42 -2 -17 -14 -37 -30 -49 -27 -20
-29 -20 -83 -3 -52 16 -94 14 -65 -4 9 -6 10 -12 1 -26 -6 -11 -11 -13 -11 -6
0 7 -4 10 -10 7 -6 -4 -3 -16 7 -31 16 -25 16 -26 -58 -95 -41 -38 -100 -94
-131 -124 -47 -45 -64 -55 -92 -55 -35 0 -43 5 -71 45 -10 15 -25 20 -58 20
-29 0 -43 4 -40 11 2 7 -9 16 -26 22 -26 9 -32 8 -40 -6 -16 -28 -36 0 -21 28
10 19 10 24 -5 32 -12 7 -15 17 -10 35 7 27 2 26 -52 -13 -17 -13 -36 -24 -42
-24 -15 0 -51 42 -45 52 3 5 -13 8 -37 6 -42 -3 -44 -4 -43 -35 1 -33 -10 -45
-19 -20 -2 6 -8 9 -12 5 -16 -15 18 -38 56 -38 28 0 46 -8 71 -30 23 -22 39
-29 53 -25 48 15 68 18 61 7 -9 -15 108 -101 171 -127 29 -12 50 -25 46 -28
-3 -4 1 -7 10 -7 10 0 17 -4 17 -9 0 -5 13 -14 28 -20 40 -17 77 0 132 57 25
26 80 80 123 121 42 40 77 81 78 90 1 9 2 27 2 41 2 19 7 24 22 22 102 -15 99
-15 128 13 15 15 27 37 27 49 0 11 7 30 15 40 21 27 20 112 -1 120 -21 8 -20
8 -32 -6z m-762 -303 c0 -8 -4 -15 -10 -15 -5 0 -7 7 -4 15 4 8 8 15 10 15 2
0 4 -7 4 -15z"/>
<path d="M2634 8372 c-17 -11 -24 -54 -12 -69 6 -7 25 -13 43 -13 21 0 46 -11
70 -30 22 -17 49 -30 64 -29 29 1 83 16 64 18 -21 2 -15 21 17 53 31 31 39 63
18 71 -7 2 -38 -10 -68 -26 l-55 -30 -44 31 c-43 31 -75 39 -97 24z m3 -34
c-3 -8 -6 -5 -6 6 -1 11 2 17 5 13 3 -3 4 -12 1 -19z"/>
<path d="M1262 8318 c-7 -7 -12 -9 -12 -5 0 4 -11 -3 -25 -15 -26 -23 -33 -48
-13 -48 6 0 8 3 5 6 -3 4 10 22 31 40 20 18 35 34 32 34 -4 0 -11 -5 -18 -12z"/>
<path d="M6616 8305 c4 -8 7 -15 9 -15 2 0 5 7 9 15 3 9 0 15 -9 15 -9 0 -12
-6 -9 -15z"/>
<path d="M1289 8293 c-13 -16 -12 -17 4 -4 16 13 21 21 13 21 -2 0 -10 -8 -17
-17z"/>
<path d="M8150 8295 c0 -20 -40 -28 -75 -15 -23 9 -31 8 -44 -5 -34 -34 42
-80 94 -57 26 12 59 67 50 82 -9 15 -25 12 -25 -5z"/>
<path d="M4810 8261 c0 -15 86 -44 108 -37 11 4 23 14 26 23 5 12 3 13 -6 6
-17 -14 -85 -10 -100 5 -14 14 -28 16 -28 3z"/>
<path d="M4514 8235 c-12 -30 96 -131 234 -217 77 -48 92 -54 92 -35 0 8 -6
17 -12 20 -10 3 -10 7 -1 17 14 15 6 40 -13 40 -8 0 -14 4 -14 9 0 5 -30 26
-67 47 -38 20 -96 59 -130 86 -67 51 -80 56 -89 33z"/>
<path d="M7420 8238 c14 -6 29 -12 33 -12 4 -1 11 -6 15 -13 4 -7 13 -9 20 -4
16 9 -44 41 -75 40 -14 0 -13 -3 7 -11z"/>
<path d="M2004 8206 c-68 -69 -106 -81 -163 -51 -16 8 -31 11 -35 8 -16 -16
-4 -56 26 -84 l32 -29 -31 -29 c-18 -16 -34 -27 -36 -25 -2 2 -18 6 -35 8 -40
4 -43 -16 -7 -40 14 -9 25 -22 25 -28 0 -17 -40 -53 -74 -65 -19 -8 -26 -16
-22 -26 6 -17 -49 -74 -72 -75 -7 0 -33 9 -58 20 -24 12 -49 18 -54 15 -20
-12 -9 -36 25 -56 19 -12 35 -25 35 -31 0 -5 5 -6 10 -3 6 3 10 2 10 -3 0 -5
15 -6 34 -3 47 8 196 150 196 187 0 29 67 104 93 104 9 0 19 5 22 10 3 6 14
10 24 10 9 0 43 23 75 52 l58 52 67 -34 c36 -18 83 -42 104 -53 42 -21 96 -17
116 7 6 8 25 16 40 19 36 7 71 43 71 71 -1 63 -26 86 -65 60 -14 -9 -31 -14
-39 -11 -8 3 -25 -3 -37 -14 -12 -11 -32 -22 -43 -25 -23 -5 -91 22 -168 67
-61 36 -85 35 -124 -5z m-164 -86 c0 -5 -2 -10 -4 -10 -3 0 -8 5 -11 10 -3 6
-1 10 4 10 6 0 11 -4 11 -10z"/>
<path d="M8300 8208 c-1 -7 -12 -26 -26 -43 -15 -16 -23 -25 -20 -18 8 14 -67
28 -86 16 -20 -12 -16 -37 8 -49 20 -11 108 -24 99 -16 -2 2 10 25 26 50 16
25 29 52 29 59 0 17 -30 17 -30 1z"/>
<path d="M7988 8143 c6 -2 18 -2 25 0 6 3 1 5 -13 5 -14 0 -19 -2 -12 -5z"/>
<path d="M4980 8109 c-94 -78 -92 -76 -88 -119 3 -38 -5 -54 -15 -27 -4 9 -6
9 -6 0 -2 -23 21 -25 50 -4 16 12 33 20 38 17 15 -10 33 23 27 47 -4 17 0 30
14 42 16 14 17 21 8 39 -10 20 -10 20 7 6 15 -13 17 -13 14 -1 -8 22 -22 22
-49 0z"/>
<path d="M4260 8044 c-37 -31 -50 -45 -50 -56 0 -15 15 -7 54 27 48 43 44 69
-4 29z"/>
<path d="M2522 8053 c-6 -2 -10 -9 -7 -14 3 -4 -3 -14 -15 -21 -11 -7 -20 -16
-20 -20 0 -14 32 -38 51 -38 11 0 37 -11 57 -25 44 -30 52 -31 82 -5 13 11 28
20 35 20 7 0 20 18 30 40 15 32 15 42 5 55 -17 20 -24 19 -71 -11 -31 -19 -48
-24 -68 -18 -14 4 -30 8 -36 8 -5 1 -9 9 -7 19 3 17 -10 21 -36 10z"/>
<path d="M3876 7998 c-9 -12 -16 -19 -16 -14 0 5 -8 2 -18 -7 -10 -10 -22 -14
-25 -10 -4 3 -7 -1 -7 -11 0 -9 -4 -15 -9 -12 -4 3 -28 -12 -51 -34 -24 -22
-49 -40 -56 -40 -6 0 -34 -18 -60 -40 -27 -22 -52 -40 -56 -40 -5 0 -8 -4 -8
-10 0 -16 35 -11 56 8 11 9 44 34 74 54 30 21 71 52 91 70 68 62 149 92 175
65 4 -4 12 -7 18 -7 6 0 4 5 -4 10 -13 9 -13 10 0 10 11 1 10 4 -4 15 -30 23
-82 19 -100 -7z"/>
<path d="M2845 7970 c-22 -16 -51 -31 -65 -32 -40 -5 -51 -16 -44 -46 16 -64
58 -69 127 -17 59 45 69 64 54 95 -17 33 -27 33 -72 0z"/>
<path d="M4180 7982 c-8 -3 -31 -17 -50 -32 -19 -15 -39 -28 -43 -28 -5 0 -12
-4 -15 -8 -4 -4 -2 -4 5 0 6 3 14 2 17 -3 3 -5 -7 -11 -22 -14 -15 -3 -55 -29
-89 -56 -34 -28 -66 -51 -72 -51 -5 0 -31 -18 -58 -41 -86 -73 -93 -79 -100
-79 -7 0 -90 -65 -116 -92 -10 -10 -23 -18 -29 -18 -6 0 -34 -20 -62 -43 -28
-24 -62 -50 -76 -57 -37 -19 -119 -89 -131 -112 -10 -18 -9 -19 13 -7 13 6 39
26 59 43 56 48 79 66 85 66 7 0 97 68 129 97 11 10 23 18 26 18 3 0 29 20 57
43 29 24 52 41 52 36 0 -4 8 3 19 14 10 12 22 22 25 22 4 0 27 16 50 35 24 19
46 35 50 35 4 0 40 27 80 60 40 33 76 60 80 60 5 0 30 18 56 40 26 22 52 40
58 40 9 0 26 30 20 35 -2 1 -10 0 -18 -3z"/>
<path d="M4020 7970 c0 -5 5 -10 10 -10 6 0 10 5 10 10 0 6 -4 10 -10 10 -5 0
-10 -4 -10 -10z"/>
<path d="M9363 7915 c-3 -9 -3 -18 0 -22 10 -9 37 5 37 19 0 9 -3 8 -10 -2 -9
-13 -14 -7 -11 13 2 13 -10 7 -16 -8z"/>
<path d="M1610 7901 c0 -15 28 -33 47 -29 14 3 11 8 -14 21 -18 10 -33 13 -33
8z"/>
<path d="M2494 7878 c-22 -18 -41 -36 -42 -41 -2 -4 -7 -5 -11 -3 -4 3 -33
-15 -66 -39 -53 -40 -86 -51 -69 -23 4 7 2 8 -4 4 -7 -4 -12 -2 -12 4 0 7 -12
10 -30 8 -16 -1 -38 4 -48 13 -26 22 -55 32 -50 17 3 -7 39 -28 82 -46 90 -39
96 -38 205 36 88 60 107 80 94 93 -7 7 -22 1 -49 -23z"/>
<path d="M2991 7886 c-6 -7 -25 -16 -42 -20 -36 -7 -34 -32 2 -28 28 3 76 47
61 56 -5 3 -15 0 -21 -8z"/>
<path d="M9389 7863 c-13 -16 -12 -17 4 -4 9 7 17 15 17 17 0 8 -8 3 -21 -13z"/>
<path d="M3237 7850 c-30 -24 -48 -25 -88 -4 -17 8 -42 14 -57 12 -35 -4 -41
-34 -10 -43 13 -4 31 -14 41 -23 21 -18 23 -46 3 -39 -19 8 -97 -43 -120 -77
-16 -26 -21 -27 -62 -21 -43 6 -104 -10 -104 -27 0 -4 15 -11 32 -16 43 -11
46 -32 11 -68 -16 -16 -27 -27 -26 -25 2 3 -11 10 -28 15 -18 6 -37 20 -43 31
-6 11 -12 22 -13 24 -2 2 -9 -2 -18 -9 -13 -11 -12 -15 5 -37 11 -14 20 -28
20 -32 0 -18 -107 -95 -139 -101 -21 -4 -35 -11 -33 -19 1 -7 -5 -11 -15 -9
-33 6 -19 -26 22 -49 52 -29 56 -29 104 10 22 17 54 42 70 55 24 18 29 29 26
52 -3 27 -2 28 22 19 21 -8 33 -5 64 17 21 14 41 35 44 45 4 10 18 22 33 25
15 4 47 26 72 49 25 24 60 50 78 59 18 10 37 27 42 40 5 14 20 25 37 29 42 8
83 50 83 85 0 44 -21 57 -53 32z"/>
<path d="M2680 7850 c0 -5 -3 -9 -7 -9 -20 3 -32 -2 -29 -13 1 -7 1 -10 -1 -5
-8 13 -33 7 -33 -8 0 -20 39 -19 68 1 22 15 30 44 12 44 -5 0 -10 -4 -10 -10z"/>
<path d="M4326 7815 c-19 -10 -41 -13 -59 -9 -21 4 -33 1 -48 -14 -18 -20 -18
-21 13 -27 23 -6 45 0 89 21 32 15 56 31 53 36 -7 11 -15 10 -48 -7z"/>
<path d="M2840 7751 c0 -5 -10 -7 -22 -3 -14 3 -19 2 -14 -6 10 -17 46 -15 46
3 0 8 -2 15 -5 15 -3 0 -5 -4 -5 -9z"/>
<path d="M9236 7745 c4 -8 10 -12 15 -9 14 8 10 24 -6 24 -9 0 -12 -6 -9 -15z"/>
<path d="M3565 7698 c-84 -60 -141 -104 -148 -115 -4 -7 -13 -13 -20 -13 -21
-1 -134 -95 -129 -108 2 -7 0 -12 -5 -11 -4 1 -11 0 -15 -1 -5 -1 -12 -3 -17
-4 -12 -1 -86 -54 -117 -82 -12 -12 -25 -19 -28 -16 -3 3 -6 0 -6 -6 0 -7 -5
-12 -11 -12 -10 0 -59 -36 -182 -135 -34 -27 -65 -50 -68 -50 -11 0 -92 -61
-123 -91 -15 -16 -32 -29 -37 -29 -18 0 -111 -78 -119 -101 -5 -13 -13 -23
-17 -23 -15 4 -87 -33 -131 -67 -25 -19 -41 -34 -36 -34 5 0 3 -4 -4 -9 -11
-7 -11 -9 2 -14 9 -4 16 -2 16 3 0 18 21 10 46 -17 14 -17 22 -21 18 -10 -3 9
-10 17 -15 17 -24 0 -4 42 34 71 23 18 47 39 54 46 6 8 14 14 17 13 18 -2 417
303 412 316 -3 7 2 10 13 7 10 -3 66 32 146 93 170 127 208 155 345 254 120
86 170 128 170 142 0 13 -13 9 -45 -14z"/>
<path d="M884 7690 c-19 -19 -26 -20 -85 -11 -35 6 -75 11 -89 11 l-25 -1 25
-14 c14 -7 29 -10 35 -6 5 5 24 -2 42 -14 l31 -22 -22 -28 c-23 -29 -38 -30
-126 -9 -22 5 -28 0 -42 -30 l-17 -35 46 -3 c26 -2 48 -8 50 -14 2 -6 -8 -23
-22 -38 -22 -24 -32 -27 -70 -24 -44 3 -45 2 -70 -43 -26 -49 -24 -65 5 -47
14 9 28 9 57 0 56 -18 81 -12 119 30 27 31 32 42 25 57 -12 21 3 41 30 41 9 0
30 15 46 33 16 17 46 45 66 61 49 36 64 67 49 101 -14 30 -31 32 -58 5z"/>
<path d="M4267 7704 c-9 -10 2 -24 19 -24 8 0 14 7 14 15 0 15 -21 21 -33 9z"/>
<path d="M1416 7683 c-11 -12 -6 -22 26 -52 56 -52 149 -48 163 8 9 37 -9 48
-50 28 -40 -19 -81 -22 -90 -7 -9 15 -41 30 -49 23z"/>
<path d="M2403 7634 c-26 -20 -59 -47 -72 -61 -12 -13 -29 -22 -37 -19 -8 3
-14 -1 -14 -9 0 -31 44 -13 116 46 41 33 72 65 69 70 -9 13 -8 13 -62 -27z"/>
<path d="M1985 7610 c-32 -27 -68 -50 -80 -50 -11 0 -42 8 -70 19 -29 11 -58
16 -70 11 -10 -4 -32 -2 -47 4 -20 7 -31 7 -40 -2 -17 -17 16 -50 66 -64 23
-6 46 -15 52 -20 6 -4 31 -14 55 -21 25 -8 69 -30 98 -50 50 -35 56 -37 107
-31 45 6 54 4 49 -8 -9 -24 25 -45 166 -104 236 -99 228 -96 263 -76 26 15 32
25 34 59 3 35 0 42 -18 48 -14 4 -28 1 -39 -9 -10 -9 -22 -16 -28 -16 -10 0
-168 63 -248 100 -45 20 -118 37 -96 22 10 -7 10 -11 1 -17 -17 -11 -24 2 -25
45 0 39 -18 60 -31 38 -4 -7 -3 -8 4 -4 7 4 12 1 12 -6 0 -9 -15 -13 -49 -12
-58 1 -111 21 -111 42 0 17 69 84 113 110 15 9 26 21 24 27 -8 23 -36 13 -92
-35z"/>
<path d="M716 7634 c-10 -25 -7 -34 9 -34 8 0 15 5 15 11 0 5 6 7 13 3 6 -4 3
2 -7 14 -23 26 -22 26 -30 6z"/>
<path d="M4390 7630 c-20 -12 -5 -24 16 -12 9 5 12 12 7 15 -5 3 -15 2 -23 -3z"/>
<path d="M2500 7590 c-18 -16 -37 -30 -42 -30 -6 0 -23 -11 -40 -25 -16 -14
-37 -25 -47 -25 -10 0 -18 -7 -18 -15 0 -29 44 -15 113 36 67 50 84 66 84 82
0 15 -19 6 -50 -23z"/>
<path d="M2169 7550 c-23 -19 -23 -21 -6 -34 11 -8 25 -12 33 -9 25 9 30 63 5
63 -5 0 -19 -9 -32 -20z"/>
<path d="M9053 7551 c0 -11 5 -18 9 -15 4 3 5 11 1 19 -7 21 -12 19 -10 -4z"/>
<path d="M3755 7539 c-14 -21 6 -57 45 -84 22 -15 40 -31 40 -36 0 -4 -13 -16
-30 -25 -28 -17 -48 -44 -31 -44 13 0 70 30 76 41 4 5 9 9 13 9 9 0 97 -64
172 -125 231 -187 255 -204 267 -187 7 9 17 23 24 30 6 7 9 14 8 16 -2 1 -28
17 -56 35 -29 18 -53 39 -53 47 0 8 -7 14 -16 14 -9 0 -39 23 -66 50 -27 28
-55 50 -62 50 -8 0 -36 19 -62 43 -65 57 -234 177 -250 177 -7 0 -16 -5 -19
-11z"/>
<path d="M3960 7546 c0 -2 7 -7 16 -10 8 -3 12 -2 9 4 -6 10 -25 14 -25 6z"/>
<path d="M4480 7525 c-16 -19 -3 -19 30 0 24 13 24 14 4 15 -12 0 -27 -7 -34
-15z"/>
<path d="M9620 7521 c0 -29 -110 -138 -143 -143 -12 -2 -23 -12 -25 -23 -2
-11 -9 -24 -14 -30 -8 -7 -8 -5 -3 5 6 11 3 10 -12 -2 -11 -10 -24 -18 -29
-18 -6 0 -15 -5 -21 -11 -9 -9 -8 -16 3 -27 14 -13 21 -10 63 32 25 25 50 46
55 46 4 0 21 14 36 30 15 17 32 30 37 30 4 0 23 -27 42 -61 37 -68 36 -78 -17
-148 -15 -20 -31 -43 -37 -52 -5 -9 -23 -33 -39 -53 -16 -20 -27 -39 -24 -41
3 -3 32 32 66 77 33 46 70 94 81 108 11 14 24 30 29 35 4 6 11 17 15 25 4 8
13 24 20 35 13 18 9 30 -34 115 -32 62 -49 87 -49 71z"/>
<path d="M638 7508 c6 -6 18 -8 28 -6 14 3 12 5 -9 10 -19 3 -25 2 -19 -4z"/>
<path d="M8992 7509 c2 -6 8 -10 13 -10 5 0 11 4 13 10 2 6 -4 11 -13 11 -9 0
-15 -5 -13 -11z"/>
<path d="M1044 7425 c-7 -18 13 -82 29 -92 7 -4 24 -6 39 -4 14 1 40 -5 57
-13 16 -9 41 -16 54 -16 40 0 51 -23 23 -49 -20 -19 -32 -22 -82 -18 -33 3
-49 3 -36 0 12 -2 20 -9 16 -14 -3 -5 4 -18 16 -27 l22 -18 -25 -29 c-24 -29
-26 -29 -68 -18 -24 6 -46 10 -48 7 -2 -2 -4 -16 -5 -32 -1 -36 -58 -102 -86
-102 -12 0 -19 -4 -16 -9 3 -5 -2 -8 -12 -7 -11 1 -16 -5 -14 -16 1 -10 3 -26
5 -35 2 -16 -6 -18 -65 -15 -53 2 -68 -1 -68 -11 0 -23 152 -38 165 -17 3 6
16 10 29 10 25 0 51 25 90 87 23 37 30 42 68 45 36 3 46 8 65 38 12 19 40 54
63 76 32 33 40 49 40 78 0 24 5 36 14 36 8 0 16 -5 18 -12 4 -10 78 -41 134
-55 13 -3 37 7 66 26 49 33 73 39 81 18 3 -7 43 -30 90 -51 l86 -38 48 36 c94
69 89 64 74 75 -17 11 -35 3 -68 -28 -12 -11 -23 -17 -25 -12 -4 9 -130 61
-150 61 -7 0 -20 -9 -28 -19 -18 -26 -30 -18 -24 15 3 14 -1 32 -7 40 -10 12
-7 19 10 38 13 13 21 32 19 43 -6 33 -43 26 -99 -20 -84 -68 -92 -71 -147 -51
-72 27 -95 44 -81 60 15 18 4 44 -18 44 -10 0 -29 -7 -41 -16 -20 -14 -32 -14
-88 -4 -35 7 -67 16 -70 21 -9 14 -44 10 -50 -6z"/>
<path d="M9495 7419 c-4 -6 -5 -13 -2 -16 7 -7 27 6 27 18 0 12 -17 12 -25 -2z"/>
<path d="M3300 7332 c-8 -3 -36 -22 -61 -43 -26 -22 -51 -39 -57 -39 -6 0 -8
-9 -5 -20 5 -19 6 -19 27 5 12 14 26 25 31 25 13 1 91 68 85 73 -3 2 -12 2
-20 -1z"/>
<path d="M8795 7322 c-12 -9 -18 -32 -7 -32 18 1 36 20 27 29 -6 6 -15 7 -20
3z"/>
<path d="M9701 7295 l-24 -35 75 -158 c42 -86 81 -174 89 -194 15 -43 18 -45
49 -20 22 18 22 20 8 48 -9 16 -26 56 -38 89 -22 57 -48 119 -91 211 -11 22
-19 46 -19 52 0 7 -4 12 -9 12 -5 0 -11 7 -13 15 -2 10 -11 3 -27 -20z"/>
<path d="M3720 7278 c-80 -43 -80 -41 -29 -85 l25 -23 40 19 c56 27 67 43 57
82 -5 18 -15 33 -23 34 -9 2 -40 -11 -70 -27z"/>
<path d="M535 7271 c6 -11 4 -13 -8 -8 -10 3 -17 2 -17 -4 0 -6 -20 -33 -44
-61 -38 -44 -112 -193 -120 -241 -1 -6 -5 -19 -10 -27 -14 -27 107 105 172
185 55 69 62 83 56 109 -3 17 -13 38 -21 46 -12 12 -14 12 -8 1z"/>
<path d="M8744 7266 c-8 -22 -2 -27 16 -16 12 7 12 12 3 21 -10 10 -14 9 -19
-5z"/>
<path d="M1007 7245 c-6 -13 1 -25 14 -25 14 0 18 28 4 34 -7 2 -16 -1 -18 -9z"/>
<path d="M3370 7235 c-11 -13 -8 -21 19 -49 17 -18 68 -59 113 -92 44 -32 108
-82 142 -110 33 -27 103 -81 155 -119 88 -64 94 -68 107 -50 7 10 11 21 9 25
-3 4 16 20 40 36 48 30 54 44 29 68 -20 21 -22 20 -69 -9 -22 -13 -45 -25 -51
-25 -23 0 -104 62 -104 81 0 12 -7 19 -18 19 -17 0 -50 21 -112 71 -14 10 -51
38 -82 62 -32 23 -77 57 -101 75 -50 36 -59 38 -77 17z"/>
<path d="M9335 7220 c-4 -6 -11 -7 -17 -4 -7 4 -8 2 -4 -4 4 -6 -5 -19 -19
-28 -14 -9 -31 -28 -38 -43 -7 -14 -18 -25 -25 -24 -6 2 -9 -3 -6 -11 3 -9 22
3 60 38 58 53 83 86 65 86 -5 0 -13 -5 -16 -10z"/>
<path d="M3140 7212 c-32 -14 -80 -57 -77 -67 3 -5 -6 -11 -19 -11 -13 -1 -45
-20 -71 -41 -27 -22 -73 -56 -103 -76 -30 -20 -72 -51 -92 -69 -20 -18 -56
-45 -80 -60 -24 -15 -56 -38 -73 -52 -65 -56 -125 -88 -150 -82 -18 5 -25 2
-25 -8 0 -17 33 -31 38 -17 5 15 52 14 53 -1 0 -7 4 -4 9 7 5 11 9 14 9 7 1
-21 50 17 57 44 3 13 10 24 15 24 6 0 5 -10 -1 -22 -9 -18 -5 -16 16 7 14 17
23 24 18 16 -4 -9 2 -7 19 5 14 10 31 29 37 40 7 12 75 68 153 125 77 57 151
114 164 126 13 13 27 23 31 24 4 1 30 21 57 45 47 40 51 52 15 36z"/>
<path d="M2021 7162 c-11 -9 -41 -32 -66 -51 -44 -33 -50 -51 -17 -51 19 0
132 85 132 99 0 18 -29 19 -49 3z"/>
<path d="M910 7141 c0 -5 7 -12 16 -15 22 -9 24 -8 18 9 -7 16 -34 21 -34 6z"/>
<path d="M615 7064 c-15 -19 -24 -38 -20 -42 6 -7 64 56 65 71 0 17 -20 5 -45
-29z"/>
<path d="M1402 7078 c-7 -7 -12 -18 -12 -24 0 -7 -14 -23 -32 -35 -17 -13 -28
-18 -24 -11 4 7 1 12 -9 12 -10 0 -15 -6 -13 -17 9 -42 102 9 96 51 -2 12 2
21 9 21 6 0 15 3 19 8 4 4 1 7 -7 7 -8 0 -20 -5 -27 -12z"/>
<path d="M1763 7073 c-9 -22 23 -43 65 -43 45 0 38 19 -17 42 -38 16 -42 16
-48 1z"/>
<path d="M2133 7054 c-29 -20 -54 -46 -57 -60 -6 -21 -12 -24 -48 -24 -35 0
-53 -9 -120 -60 l-79 -60 -37 16 c-20 8 -44 21 -52 29 -22 20 -25 19 -27 -5
-2 -21 12 -32 82 -69 22 -12 33 -21 25 -21 -26 0 -63 -31 -52 -42 10 -10 67
24 195 118 40 29 53 34 82 28 29 -5 35 -2 51 23 9 15 41 51 71 78 39 37 52 56
47 68 -9 25 -24 21 -81 -19z"/>
<path d="M1510 7074 c0 -18 20 -30 107 -67 80 -34 82 -34 65 -11 -9 13 -28 27
-42 30 -14 4 -38 16 -53 26 -15 11 -35 17 -44 14 -9 -4 -20 -1 -25 6 -5 8 -8
9 -8 2z"/>
<path d="M9187 7071 c-10 -4 -24 -18 -30 -31 -7 -14 -18 -25 -25 -25 -7 0 -12
-4 -13 -10 0 -5 -8 -19 -17 -29 -37 -42 23 2 67 49 45 48 48 57 18 46z"/>
<path d="M3118 7049 c-34 -19 -21 -47 33 -74 38 -20 55 -36 68 -65 21 -46 54
-75 98 -84 20 -5 62 -34 108 -76 82 -74 94 -77 157 -36 23 15 28 15 61 1 20
-8 38 -15 39 -15 2 0 2 18 0 40 -6 58 -19 63 -80 33 -63 -31 -87 -27 -138 26
-20 22 -50 45 -65 52 -16 6 -29 16 -29 21 0 5 -4 6 -10 3 -5 -3 -10 -2 -10 4
0 16 -30 41 -51 41 -34 0 -79 40 -73 65 4 17 -3 27 -35 48 -45 30 -49 31 -73
16z"/>
<path d="M9468 7023 c-20 -25 -49 -73 -44 -73 3 0 18 20 35 45 31 46 35 58 9
28z"/>
<path d="M1427 7004 c-11 -11 31 -61 63 -74 31 -13 85 -6 75 9 -3 5 1 11 7 14
10 3 10 9 2 23 -9 14 -21 18 -47 16 -20 -2 -45 2 -56 8 -16 8 -21 8 -21 -2 0
-10 -2 -10 -8 0 -5 7 -11 9 -15 6z"/>
<path d="M1130 6842 c-19 -26 -34 -50 -32 -54 1 -4 -4 -5 -12 -2 -7 3 -22 -6
-33 -19 -10 -13 -32 -31 -49 -40 -17 -9 -48 -41 -69 -71 -21 -31 -43 -56 -49
-56 -13 0 -229 27 -311 39 -80 11 -89 3 -64 -57 11 -26 25 -49 31 -53 5 -4 51
-12 101 -19 51 -6 129 -18 173 -26 79 -14 120 -11 108 7 -3 5 1 6 9 4 23 -10
53 34 56 81 1 7 46 58 102 115 109 113 124 136 109 174 -14 36 -30 31 -70 -23z"/>
<path d="M9859 6841 c-31 -25 -69 -55 -85 -66 -15 -11 -42 -32 -59 -46 -44
-38 -69 -49 -109 -49 -20 0 -36 -5 -36 -11 0 -19 73 -4 116 24 21 15 68 47
103 72 35 26 67 43 72 38 12 -12 103 -265 143 -399 72 -243 151 -600 134 -610
-4 -3 -34 -38 -65 -77 -31 -40 -74 -91 -95 -114 -21 -24 -38 -47 -38 -53 0 -6
15 6 32 27 18 21 55 61 82 90 26 29 55 62 64 75 8 13 26 35 40 50 23 25 24 29
14 90 -6 35 -18 106 -26 158 -9 52 -18 104 -22 115 -3 11 -11 47 -19 80 -7 33
-16 69 -19 80 -3 11 -10 43 -16 70 -6 28 -15 59 -20 70 -5 11 -14 45 -21 75
-6 30 -15 60 -19 65 -4 6 -13 35 -20 65 -7 30 -16 60 -20 65 -4 6 -13 33 -20
60 -7 28 -16 55 -20 60 -5 6 -9 17 -11 26 -3 12 -17 6 -60 -30z"/>
<path d="M3052 6870 c2 -18 -4 -23 -12 -10 -7 10 -13 11 -17 4 -5 -5 -29 -25
-55 -43 -44 -32 -48 -33 -94 -23 -27 6 -52 8 -56 6 -21 -13 -3 -32 50 -54 89
-36 99 -48 57 -70 -14 -7 -25 -19 -25 -26 0 -19 44 -46 64 -38 17 7 18 15 7
54 -7 21 -1 31 37 68 32 29 54 42 74 42 37 0 57 37 40 75 -9 20 -18 25 -41 23
-16 -1 -29 -5 -29 -8z"/>
<path d="M1338 6829 c-13 -17 -50 -60 -82 -95 -49 -54 -57 -66 -46 -79 7 -8
18 -15 24 -15 17 0 153 153 157 176 4 21 -7 44 -21 44 -5 0 -19 -14 -32 -31z"/>
<path d="M2015 6836 c-32 -25 -35 -26 -63 -26 -9 0 -22 -10 -27 -22 -6 -12
-28 -31 -50 -43 -22 -11 -67 -40 -99 -64 -55 -41 -62 -43 -90 -33 -23 9 -32 9
-38 -1 -6 -9 -10 -9 -18 3 -7 11 -14 12 -27 4 -27 -16 -93 -17 -93 -2 0 17
-38 41 -50 33 -6 -4 -10 -9 -10 -13 0 -6 55 -43 70 -47 48 -14 61 -15 79 -5
17 9 27 7 49 -7 64 -44 88 -47 122 -16 36 32 98 76 133 94 21 11 40 26 43 34
3 7 24 22 47 33 51 24 80 54 75 78 -5 26 -20 26 -53 0z"/>
<path d="M2290 6810 c38 -20 46 -19 37 5 -4 9 -19 15 -39 15 l-33 -1 35 -19z"/>
<path d="M4075 6774 c-41 -24 -66 -24 -96 2 -21 18 -39 18 -39 -1 0 -18 -16
-20 -23 -2 -3 6 -6 3 -6 -8 0 -12 20 -36 53 -62 80 -64 106 -58 149 40 29 63
23 68 -38 31z"/>
<path d="M3156 6710 c-34 -26 -56 -37 -70 -33 -62 15 -82 -1 -47 -36 39 -39
65 -37 136 9 68 46 82 64 64 86 -17 21 -29 17 -83 -26z"/>
<path d="M9525 6660 c-3 -5 -1 -10 4 -10 6 0 11 5 11 10 0 6 -2 10 -4 10 -3 0
-8 -4 -11 -10z"/>
<path d="M2355 6630 c-10 -11 -23 -20 -29 -20 -6 0 -22 -10 -36 -21 -14 -11
-19 -17 -11 -13 9 4 12 3 7 -4 -4 -6 -14 -8 -22 -5 -17 6 -36 -15 -28 -29 11
-18 39 -6 95 42 33 27 60 53 60 57 1 16 -18 13 -36 -7z"/>
<path d="M3645 6549 c-104 -55 -252 -130 -328 -168 -76 -38 -145 -75 -153 -81
-25 -22 -245 -130 -262 -130 -9 0 -44 14 -76 30 -32 17 -64 30 -71 30 -7 0
-18 7 -25 15 -11 13 -9 20 10 40 13 14 29 25 37 25 7 0 13 4 13 10 0 5 17 14
39 20 42 11 80 38 166 116 37 34 41 47 25 89 l-10 26 -43 -30 c-24 -16 -57
-33 -73 -37 -16 -4 -44 -20 -63 -35 -27 -22 -40 -26 -67 -22 -46 8 -44 -12 4
-34 20 -10 37 -25 37 -33 0 -8 -22 -31 -50 -52 -56 -43 -75 -43 -152 -2 -41
21 -80 23 -67 3 3 -5 -4 -9 -16 -9 -11 0 -23 -7 -26 -15 -8 -21 20 -62 48 -70
13 -4 103 -43 200 -87 130 -58 184 -78 200 -73 25 8 120 63 128 75 9 12 95 59
115 63 11 1 92 40 180 86 88 46 230 119 315 163 184 93 197 104 184 149 -5 18
-14 34 -19 35 -6 1 -95 -42 -200 -97z"/>
<path d="M2583 6623 c-16 -6 -17 -55 -1 -71 17 -17 53 -15 69 4 12 14 22 44
14 44 -1 0 -18 6 -36 14 -19 7 -40 11 -46 9z"/>
<path d="M1453 6607 c-97 -53 -226 -160 -211 -175 14 -14 3 -29 -35 -49 -35
-17 -150 -103 -155 -115 -2 -5 -16 -8 -30 -7 l-27 1 25 9 c23 8 22 8 -6 4 -18
-2 -43 -7 -57 -10 -21 -6 -27 -2 -40 24 -9 18 -11 33 -6 37 5 3 6 10 3 16 -4
6 -15 -1 -28 -16 -21 -27 -45 -35 -261 -81 -134 -28 -179 -43 -209 -70 -16
-14 -39 -25 -50 -25 -12 -1 -32 -7 -46 -15 -37 -21 -59 -18 -72 10 -11 25 -28
34 -28 16 0 -14 61 -71 86 -81 19 -8 127 9 150 23 5 3 27 8 49 11 22 4 85 18
140 31 55 14 110 25 122 25 12 0 24 4 27 9 3 4 29 11 59 14 29 3 72 15 95 27
23 12 59 23 81 23 21 1 37 5 34 10 -2 4 4 7 14 7 10 1 34 14 53 30 19 17 38
30 42 30 7 0 16 7 70 53 27 22 55 22 96 -3 18 -11 38 -20 45 -20 10 0 145 86
157 101 3 3 15 11 28 18 12 6 22 19 22 29 0 10 -3 13 -8 7 -4 -5 -18 -16 -31
-23 -19 -11 -22 -11 -16 0 5 7 0 5 -11 -4 -35 -32 -88 -73 -91 -70 -2 1 -17
-5 -34 -14 -17 -8 -41 -13 -54 -10 -24 6 -59 51 -50 65 7 13 168 119 186 123
19 4 28 18 22 35 -6 16 -21 16 -50 0z"/>
<path d="M1004 6552 c3 -5 1 -12 -6 -14 -8 -3 -6 -7 5 -11 20 -7 24 17 5 29
-6 4 -8 3 -4 -4z"/>
<path d="M1050 6521 c0 -5 7 -12 16 -15 21 -8 21 -8 28 9 4 11 -1 15 -19 15
-14 0 -25 -4 -25 -9z"/>
<path d="M1155 6490 c-7 -11 35 -31 48 -23 5 3 0 11 -10 19 -22 16 -30 17 -38
4z"/>
<path d="M1849 6454 c-35 -24 -70 -44 -76 -44 -7 0 -13 -5 -13 -10 0 -18 27
-22 52 -9 38 20 107 73 112 86 11 27 -13 20 -75 -23z"/>
<path d="M3894 6426 c-23 -11 -48 -26 -55 -33 -8 -6 -68 -39 -134 -73 -109
-55 -124 -60 -163 -54 -23 3 -42 2 -41 -2 4 -21 -2 -28 -11 -14 -8 12 -10 11
-10 -7 0 -16 13 -31 42 -49 38 -24 44 -25 82 -15 23 7 114 49 203 94 144 72
162 84 167 110 3 16 3 34 -1 40 -4 6 -1 7 7 2 8 -5 11 -3 8 6 -7 21 -48 19
-94 -5z"/>
<path d="M1806 6261 c-11 -18 13 -59 46 -79 18 -11 52 -28 76 -38 37 -14 47
-15 68 -3 14 7 23 19 22 27 -3 17 -162 102 -189 102 -10 0 -20 -4 -23 -9z"/>
<path d="M2200 6183 c-33 -23 -34 -24 -117 -90 -40 -32 -114 -89 -164 -128
-50 -38 -130 -101 -178 -140 -138 -112 -197 -155 -213 -155 -8 0 -23 -9 -33
-20 -10 -11 -14 -20 -9 -20 13 0 -42 -28 -63 -32 -10 -2 -19 -9 -19 -16 -3
-25 -5 -27 -15 -12 -8 12 -9 10 -7 -10 4 -35 69 -67 104 -51 13 6 28 21 33 34
6 15 20 26 39 30 16 3 61 32 98 64 38 32 95 79 127 103 149 115 312 245 327
260 3 3 18 14 34 24 57 36 116 98 116 121 0 55 -18 67 -60 38z m-660 -527 c0
-2 -8 -10 -17 -17 -16 -13 -17 -12 -4 4 13 16 21 21 21 13z"/>
<path d="M3783 6094 c3 -5 -13 -23 -36 -39 -22 -17 -70 -56 -106 -88 -76 -66
-70 -66 -206 -6 -147 66 -167 75 -226 104 -51 25 -88 28 -74 4 4 -5 1 -10 -4
-10 -6 -1 -16 -2 -23 -3 -27 -3 -17 -27 24 -57 42 -31 259 -140 355 -178 26
-10 89 -38 138 -61 140 -66 173 -79 179 -73 3 4 6 2 6 -4 0 -6 14 -16 30 -22
l30 -10 0 42 -1 42 -23 -26 -23 -26 -23 24 c-13 13 -29 22 -37 19 -7 -3 -13
-2 -13 2 0 10 -65 42 -85 42 -18 0 -55 30 -55 45 0 5 47 55 106 110 105 99
106 100 97 134 -5 19 -15 37 -22 39 -8 3 -11 1 -8 -4z"/>
<path d="M695 6050 c-15 -16 -32 -27 -37 -24 -4 3 -8 2 -8 -3 0 -4 -14 -16
-30 -25 -31 -18 -59 -14 -73 8 -6 10 -15 10 -47 -1 -22 -8 -55 -11 -73 -8 -23
3 -62 -4 -123 -25 -49 -17 -109 -35 -134 -42 -49 -13 -110 -46 -110 -60 0 -13
53 -60 67 -60 7 0 68 18 135 41 140 47 141 47 149 45 3 0 12 4 20 10 8 6 39
17 69 24 30 7 58 17 61 22 4 6 16 5 30 -3 23 -12 23 -12 4 -20 -14 -5 -15 -8
-5 -8 9 -1 23 7 32 17 27 28 52 47 62 47 5 0 11 6 14 14 3 8 0 11 -7 7 -7 -5
-9 -1 -5 8 3 9 12 16 20 16 9 0 11 -6 7 -17 -6 -16 -5 -16 10 -4 9 7 15 17 12
21 -3 5 0 12 6 16 8 4 9 3 5 -4 -4 -7 -3 -12 2 -12 12 0 24 29 16 41 -10 18
-41 9 -69 -21z"/>
<path d="M102 6035 c-12 -26 -17 -63 -7 -53 3 3 7 14 9 24 3 11 7 27 11 37 11
27 0 20 -13 -8z"/>
<path d="M2320 5973 c0 -33 -52 -80 -106 -94 -36 -11 -51 -40 -39 -77 8 -27
-10 -36 -61 -33 -32 2 -48 -3 -73 -24 -27 -24 -31 -32 -25 -60 5 -30 2 -36
-33 -62 -21 -16 -49 -38 -63 -50 -36 -32 -148 -123 -200 -162 -25 -19 -76 -62
-115 -95 -38 -34 -77 -65 -86 -71 -9 -5 -28 -18 -43 -29 -24 -17 -28 -17 -51
-2 -30 20 -59 21 -52 2 7 -17 -20 -30 -27 -13 -2 7 -5 5 -5 -4 -1 -9 11 -25
26 -34 l27 -18 -42 -38 -42 -37 -49 13 c-51 13 -81 6 -81 -20 0 -8 9 -19 20
-25 30 -16 24 -35 -22 -72 -23 -18 -56 -46 -73 -61 -26 -25 -35 -27 -70 -21
-65 11 -77 10 -88 -7 -8 -13 -5 -23 12 -45 22 -28 22 -28 2 -44 -11 -8 -35
-27 -53 -42 -18 -16 -64 -54 -102 -85 l-69 -56 -51 12 c-102 24 -106 24 -106
7 0 -8 14 -32 32 -52 l32 -36 -69 -64 c-39 -35 -74 -63 -79 -64 -4 0 -24 -13
-43 -30 -18 -16 -38 -30 -43 -30 -5 0 -30 11 -56 25 -26 14 -55 25 -65 25 -27
0 -12 -37 33 -80 39 -38 48 -55 26 -48 -7 3 -32 -10 -56 -29 -32 -24 -54 -33
-82 -33 -27 0 -48 -8 -72 -27 -18 -15 -34 -28 -36 -29 -8 -5 12 -104 21 -104
5 0 29 16 53 35 34 28 48 34 72 29 26 -5 39 0 82 37 49 41 51 46 46 80 -6 39
8 55 35 38 29 -18 57 -8 113 41 31 27 76 63 101 80 58 40 70 63 54 101 -15 38
-8 44 35 29 31 -10 40 -9 78 14 24 14 84 62 135 106 87 77 92 83 90 118 -2 39
3 42 57 28 20 -5 38 5 93 52 78 65 86 76 93 117 5 30 17 35 52 20 26 -10 108
69 108 106 0 35 11 42 44 29 23 -8 33 -3 88 43 35 29 83 69 108 88 25 18 82
64 125 101 44 37 123 103 175 146 82 68 96 84 101 116 9 53 29 70 83 67 38 -2
47 2 61 23 10 15 14 33 10 45 -5 16 0 23 24 33 32 14 121 93 121 108 0 17 28
-1 33 -21 6 -21 118 -79 155 -79 13 0 36 10 52 21 23 17 37 20 68 15 31 -4 45
-2 63 12 28 24 21 36 -41 67 -62 31 -81 31 -118 0 -17 -14 -34 -25 -40 -25
-17 0 -142 59 -143 67 -4 45 -18 63 -51 63 -13 0 -18 -8 -18 -27z m-1313
-1099 c-3 -3 -12 -4 -19 -1 -8 3 -5 6 6 6 11 1 17 -2 13 -5z"/>
<path d="M2905 5798 c-22 -17 -66 -53 -97 -80 -59 -50 -76 -56 -108 -36 -27
17 -36 3 -19 -28 13 -26 12 -28 -46 -80 -34 -31 -70 -54 -82 -54 -25 0 -31
-15 -10 -23 9 -4 8 -6 -2 -6 -7 -1 -23 -12 -35 -24 -39 -44 -85 -69 -111 -63
-21 5 -25 3 -25 -14 0 -12 4 -18 10 -15 5 3 7 0 4 -7 -2 -7 -26 -29 -52 -48
-26 -19 -49 -38 -52 -41 -3 -3 -20 -6 -38 -5 -29 1 -32 -2 -28 -20 4 -16 -6
-33 -43 -67 -27 -26 -61 -49 -74 -53 -15 -3 -24 -11 -21 -18 3 -7 -8 -21 -23
-31 -15 -10 -40 -29 -55 -42 -14 -14 -41 -28 -60 -32 -26 -5 -32 -12 -30 -27
2 -14 -15 -36 -58 -72 -57 -47 -62 -50 -91 -40 -22 8 -34 7 -42 -1 -9 -9 -4
-17 18 -35 36 -29 41 -23 -115 -156 -61 -52 -168 -144 -236 -203 -68 -59 -124
-105 -124 -100 0 4 -24 -15 -52 -43 -79 -75 -204 -184 -213 -184 -4 0 -36 -27
-72 -60 -36 -33 -72 -60 -80 -60 -8 0 -33 9 -55 20 -30 14 -45 17 -52 9 -11
-11 2 -25 54 -60 l25 -16 -37 -41 c-20 -22 -39 -48 -42 -59 -6 -19 -107 -113
-122 -113 -7 0 -159 -132 -186 -163 -10 -10 -18 -17 -18 -14 0 3 -13 -8 -30
-25 -16 -16 -30 -34 -30 -39 0 -6 -5 -7 -10 -4 -6 4 -8 11 -5 16 4 5 -8 9 -24
9 -17 0 -31 4 -31 9 0 5 -7 11 -15 15 -9 3 -15 0 -15 -10 0 -13 76 -54 100
-54 9 0 78 57 296 243 57 49 104 94 104 101 0 13 112 116 126 116 9 0 71 51
190 155 148 130 335 289 352 300 9 6 34 26 57 46 129 116 175 156 220 189 28
21 62 50 76 66 15 16 57 53 94 83 36 30 71 63 76 73 5 10 24 24 42 32 18 7 57
38 87 67 30 30 72 66 92 81 20 15 53 44 74 64 21 19 60 51 86 70 26 19 58 48
72 65 14 16 29 29 35 29 6 0 11 5 11 10 0 6 6 10 13 10 6 0 57 41 112 91 55
49 110 94 123 99 12 5 27 20 33 34 6 13 26 32 44 42 39 23 147 110 191 154 18
18 30 39 29 49 -2 9 -4 24 -4 34 -1 26 -32 21 -76 -15z m-172 -164 c-9 -15
-19 -21 -21 -15 -4 13 16 41 29 41 5 0 2 -12 -8 -26z m-479 -398 c-3 -9 -10
-13 -16 -10 -5 3 -4 12 3 20 15 18 22 13 13 -10z m-289 -236 c-3 -5 -12 -10
-18 -10 -7 0 -6 4 3 10 19 12 23 12 15 0z m-175 -154 c0 -3 -4 -8 -10 -11 -5
-3 -10 -1 -10 4 0 6 5 11 10 11 6 0 10 -2 10 -4z m-8 -48 c-7 -7 -12 -8 -12
-2 0 14 12 26 19 19 2 -3 -1 -11 -7 -17z"/>
<path d="M82 5761 c2 -25 5 -28 20 -20 15 8 16 14 8 29 -16 29 -31 24 -28 -9z"/>
<path d="M10171 5763 c0 -10 4 -36 8 -58 9 -40 9 -39 10 18 0 32 -3 57 -9 57
-5 0 -10 -8 -9 -17z"/>
<path d="M135 5724 c-8 -9 -34 -18 -57 -22 -36 -4 -39 -6 -20 -13 29 -11 28
-33 -3 -58 -30 -23 -47 -112 -25 -126 8 -5 11 -4 7 2 -8 13 19 37 32 29 6 -4
18 5 27 19 9 13 20 22 25 19 5 -3 9 0 9 6 0 6 5 8 10 5 6 -3 10 2 10 11 0 10
3 14 6 11 4 -3 15 5 26 18 11 14 23 23 28 20 5 -3 12 0 16 6 4 8 3 9 -4 5 -7
-4 -12 -3 -12 3 0 5 6 12 13 14 8 4 9 8 1 14 -6 4 -16 18 -23 31 -14 26 -43
29 -66 6z"/>
<path d="M10191 5640 c0 -14 6 -72 14 -130 l14 -105 -6 115 c-3 63 -9 122 -14
130 -6 11 -8 9 -8 -10z"/>
<path d="M3057 5628 c-22 -16 -14 -44 14 -53 10 -4 19 -10 19 -15 0 -5 10 -12
23 -15 12 -4 54 -22 92 -40 39 -18 165 -78 280 -133 116 -55 257 -123 315
-151 58 -28 107 -51 109 -51 3 0 -3 39 -15 101 -6 30 -71 64 -141 73 -51 7
-283 122 -283 140 0 7 27 37 61 66 41 36 57 56 50 63 -7 7 -28 -7 -66 -42 -31
-28 -65 -51 -75 -51 -10 0 -40 10 -67 22 -26 12 -57 23 -68 24 -39 3 -85 17
-85 25 0 5 -3 8 -7 7 -5 0 -26 7 -48 17 -53 25 -86 28 -108 13z"/>
<path d="M2980 5514 c0 -17 44 -36 73 -32 23 3 45 33 33 45 -4 4 -13 1 -19 -7
-14 -17 -57 -26 -57 -12 0 6 -7 12 -15 16 -9 3 -15 0 -15 -10z"/>
<path d="M9907 5493 c-35 -56 -41 -71 -19 -44 26 32 55 81 48 81 -3 0 -16 -17
-29 -37z"/>
<path d="M1274 5462 c-21 -16 -66 -52 -99 -80 -33 -29 -67 -52 -76 -52 -9 0
-24 -9 -34 -20 -10 -11 -24 -20 -32 -20 -16 0 -16 1 -3 34 11 29 0 41 -30 31
-25 -8 -25 -27 0 -50 44 -40 9 -60 -51 -30 -36 19 -64 7 -71 -29 -4 -21 0 -27
26 -36 17 -6 45 -18 61 -26 17 -8 48 -15 70 -17 l40 -2 0 40 c0 40 0 40 37 37
30 -3 43 3 76 32 22 20 43 36 47 36 14 0 125 102 125 116 0 23 -23 64 -35 64
-7 0 -30 -13 -51 -28z m-309 -220 c-5 -5 -45 22 -45 31 0 4 11 0 24 -10 13
-10 23 -19 21 -21z"/>
<path d="M3040 5368 l-35 -39 -88 37 c-85 36 -88 37 -103 18 -9 -10 -12 -12
-8 -4 5 12 3 11 -11 -2 -20 -19 -14 -46 12 -54 10 -3 57 -24 104 -46 94 -45
132 -46 143 -6 5 19 8 21 16 8 5 -8 10 -10 10 -4 0 5 -5 15 -10 20 -8 8 -6 20
7 41 12 22 14 36 8 51 -9 19 -12 18 -45 -20z"/>
<path d="M690 5330 c0 -5 7 -10 16 -10 8 0 12 5 9 10 -3 6 -10 10 -16 10 -5 0
-9 -4 -9 -10z"/>
<path d="M730 5295 c7 -8 18 -15 25 -15 6 0 33 -11 58 -24 43 -23 45 -23 50
-6 7 26 -69 65 -91 47 -12 -9 -16 -9 -19 1 -3 6 -12 12 -20 12 -13 0 -13 -3
-3 -15z"/>
<path d="M16 5275 c4 -8 15 -15 25 -15 10 0 19 -5 19 -12 0 -6 3 -8 7 -5 8 9
-26 47 -43 47 -8 0 -11 -6 -8 -15z"/>
<path d="M107 5279 c7 -7 15 -10 18 -7 3 3 -2 9 -12 12 -14 6 -15 5 -6 -5z"/>
<path d="M3103 5250 c6 -24 3 -25 -16 -6 -8 8 -19 11 -27 6 -24 -15 31 -57
130 -101 52 -23 100 -42 105 -41 6 1 21 3 34 4 13 2 26 9 29 17 3 8 0 11 -7 7
-6 -4 -11 0 -11 9 0 9 5 13 10 10 6 -3 10 -1 10 4 0 6 -6 11 -12 11 -7 0 -2 7
10 16 26 18 28 36 7 54 -13 11 -19 9 -38 -7 -12 -11 -27 -23 -33 -26 -12 -7
-131 37 -148 54 -6 5 -19 9 -29 9 -14 0 -18 -5 -14 -20z"/>
<path d="M118 5231 c-15 -16 -47 -42 -72 -57 -42 -27 -45 -32 -46 -72 0 -49
-6 -51 95 23 39 28 76 64 84 78 13 25 13 29 -5 42 -25 19 -24 19 -56 -14z"/>
<path d="M900 5125 c-48 -36 -134 -71 -127 -51 3 6 11 10 18 8 8 -1 3 7 -10
18 -18 16 -27 18 -38 9 -11 -10 -11 -15 4 -31 17 -19 17 -20 -2 -34 -11 -8
-56 -44 -100 -79 -44 -36 -108 -87 -142 -114 -34 -26 -59 -52 -55 -57 4 -5 0
-3 -8 3 -44 34 -300 159 -311 152 -9 -5 -7 -16 7 -44 17 -33 39 -48 175 -118
176 -91 161 -90 259 -8 30 26 80 65 110 88 100 76 123 101 116 128 -7 28 9 36
42 22 18 -8 27 -6 49 14 14 13 23 19 19 12 -3 -6 -2 -14 4 -18 5 -3 10 3 10
14 0 11 14 30 30 43 33 24 40 62 14 72 -19 7 -10 11 -64 -29z"/>
<path d="M10232 5120 c0 -14 2 -19 5 -12 2 6 2 18 0 25 -3 6 -5 1 -5 -13z"/>
<path d="M3572 5105 c-33 -27 -70 -28 -155 -3 -31 9 -40 9 -53 -4 -14 -13 -12
-18 11 -47 35 -41 59 -53 124 -62 37 -5 62 -16 80 -33 15 -14 32 -26 38 -26 7
0 28 -9 48 -21 46 -27 73 -20 119 31 26 29 36 49 36 74 0 41 -20 52 -48 25
-12 -10 -26 -19 -32 -19 -5 0 -10 -4 -10 -10 0 -5 -11 -12 -24 -16 -25 -6
-116 31 -116 48 0 5 -4 6 -10 3 -20 -12 -9 12 15 35 25 23 33 50 16 50 -5 0
-23 -11 -39 -25z m-39 -56 c-7 -24 -33 -25 -33 -1 0 10 8 18 19 19 14 1 17 -3
14 -18z m57 -40 c0 7 5 9 10 6 6 -3 10 -14 9 -23 0 -11 -2 -12 -6 -4 -2 6 -8
10 -13 7 -4 -3 -15 8 -24 23 l-17 27 20 -24 c12 -13 21 -18 21 -12z"/>
<path d="M1890 5020 c0 -5 5 -10 10 -10 6 0 10 5 10 10 0 6 -4 10 -10 10 -5 0
-10 -4 -10 -10z"/>
<path d="M2482 4994 c-51 -34 -61 -47 -44 -58 10 -6 112 61 112 74 0 21 -20
17 -68 -16z"/>
<path d="M3869 4861 c-19 -16 -22 -23 -13 -38 12 -20 140 -92 166 -93 15 0 15
4 -2 48 -15 40 -25 51 -71 75 -29 15 -54 27 -55 27 -1 0 -12 -9 -25 -19z"/>
<path d="M2494 4835 c-10 -8 -14 -15 -8 -15 6 0 17 7 24 15 16 19 9 19 -16 0z"/>
<path d="M2079 4634 c-48 -53 -99 -84 -120 -74 -10 6 -28 14 -38 20 -31 15
-19 -38 15 -66 l29 -24 -37 -35 c-36 -33 -38 -34 -71 -20 -18 7 -47 13 -63 13
-16 -1 -40 5 -53 11 -24 14 -56 7 -46 -9 3 -6 -1 -7 -9 -4 -22 8 -21 -19 2
-38 34 -30 102 -58 141 -58 22 0 43 -4 46 -10 3 -5 16 -10 29 -10 27 0 101 73
93 93 -8 20 8 40 34 44 13 2 28 9 34 15 7 8 6 9 -4 3 -11 -6 -12 -2 -7 21 9
34 26 54 51 58 29 4 41 30 30 62 -13 37 -27 39 -56 8z"/>
<path d="M1850 4597 c0 -8 7 -14 15 -14 11 0 12 4 4 14 -6 7 -13 13 -15 13 -2
0 -4 -6 -4 -13z"/>
<path d="M52 4488 c-9 -12 -2 -92 10 -103 11 -11 48 28 48 51 0 52 -33 81 -58
52z"/>
<path d="M9014 4419 c-21 -23 -23 -29 -9 -21 25 13 62 52 48 52 -5 0 -22 -14
-39 -31z"/>
<path d="M2162 4417 c-12 -13 -22 -30 -22 -38 0 -25 -12 -30 -26 -11 -12 16
-13 16 -20 -2 -14 -35 71 -78 91 -46 14 23 64 4 303 -115 138 -69 255 -125
259 -125 9 0 497 -244 503 -252 3 -3 5 16 6 43 l0 50 -78 37 c-81 38 -90 51
-61 86 15 18 14 18 -8 -1 -35 -32 -63 -29 -147 17 -82 45 -91 48 -71 23 13
-15 12 -15 -9 -4 -20 11 -21 15 -10 28 11 14 11 15 -2 11 -17 -6 -90 31 -90
46 0 5 10 21 23 35 21 24 21 24 -11 -2 -19 -15 -39 -27 -46 -27 -16 0 -145 67
-167 86 -8 8 -24 14 -34 14 -34 0 -145 61 -145 79 0 14 -6 17 -29 13 -19 -3
-47 7 -87 29 -32 18 -60 37 -62 41 -7 16 -39 8 -60 -15z m428 -197 c0 -5 -2
-10 -4 -10 -3 0 -8 5 -11 10 -3 6 -1 10 4 10 6 0 11 -4 11 -10z m6 -38 c-10
-2 -22 0 -28 6 -6 6 0 7 19 4 21 -5 23 -7 9 -10z m224 -82 c11 -7 2 -9 -30 -9
-37 1 -41 2 -20 9 34 11 33 11 50 0z"/>
<path d="M8947 4367 c-89 -71 -123 -102 -151 -137 -17 -21 -70 -87 -118 -147
-48 -59 -118 -146 -155 -192 -38 -46 -77 -97 -89 -115 -12 -17 -54 -60 -94
-96 -124 -112 -361 -344 -372 -365 -6 -11 66 54 158 145 93 91 201 195 239
231 60 57 108 113 210 246 11 15 47 59 80 99 33 40 78 96 100 125 38 48 116
128 195 197 40 36 38 42 -3 9z"/>
<path d="M1583 4359 c-18 -12 -33 -25 -33 -29 0 -17 33 -41 54 -38 28 4 45 53
25 73 -12 12 -18 12 -46 -6z"/>
<path d="M1740 4265 c-19 -20 -21 -27 -10 -40 16 -19 59 -20 66 0 9 22 -4 65
-19 65 -8 0 -24 -11 -37 -25z"/>
<path d="M1509 4243 l-24 -28 28 24 c25 23 32 31 24 31 -2 0 -14 -12 -28 -27z"/>
<path d="M4073 4212 c-17 -11 -5 -49 15 -48 9 1 26 6 37 13 16 9 17 13 6 27
-14 17 -38 20 -58 8z"/>
<path d="M1392 4193 c-6 -3 -9 -10 -5 -16 4 -7 0 -8 -11 -4 -14 5 -17 2 -14
-15 2 -17 77 -59 405 -222 220 -111 410 -209 420 -218 11 -10 23 -18 28 -18 4
0 108 -49 229 -109 122 -60 232 -113 245 -116 13 -4 50 -22 82 -41 80 -47 95
-45 162 25 32 33 57 66 57 74 0 8 9 22 20 32 30 27 26 115 -5 115 -17 0 -55
-48 -55 -69 0 -18 -99 -121 -116 -121 -6 0 -37 14 -69 30 -65 33 -69 35 -60
20 3 -5 1 -10 -5 -10 -20 0 2 55 39 95 32 35 31 35 -16 -8 l-52 -47 -38 14
c-21 7 -60 27 -88 43 -27 16 -77 41 -110 55 -33 15 -130 63 -215 106 -85 44
-186 96 -225 116 -38 19 -113 56 -165 81 -100 47 -175 89 -200 110 -8 7 -37
20 -64 28 -27 9 -63 27 -80 40 -33 25 -73 38 -94 30z m78 -48 c33 -35 34 -35
9 -35 -17 0 -20 3 -11 9 10 6 6 15 -18 35 -17 14 -28 26 -23 26 5 0 24 -16 43
-35z m1255 -634 c3 -5 2 -12 -3 -15 -5 -3 -9 1 -9 9 0 17 3 19 12 6z"/>
<path d="M3159 4093 c-13 -16 -12 -17 4 -4 16 13 21 21 13 21 -2 0 -10 -8 -17
-17z"/>
<path d="M3325 3958 l-40 -43 43 40 c39 36 47 45 39 45 -2 0 -21 -19 -42 -42z"/>
<path d="M3410 3918 c-31 -29 -66 -60 -78 -68 -12 -8 -27 -29 -33 -48 -8 -26
-14 -30 -24 -22 -10 8 -15 8 -21 -1 -9 -16 31 -49 60 -49 12 0 56 34 109 84
81 76 88 86 85 117 -5 52 -33 49 -98 -13z"/>
<path d="M1060 3903 c0 -15 -2 -16 -10 -3 -8 12 -10 12 -15 -2 -4 -10 -4 -21
-1 -27 9 -14 143 -86 496 -269 113 -58 221 -115 240 -127 19 -12 67 -37 105
-55 39 -18 86 -43 105 -55 19 -12 127 -69 240 -127 113 -58 240 -124 283 -147
84 -45 91 -45 136 3 14 14 35 26 47 26 25 0 54 24 54 45 0 19 -49 55 -74 55
-12 0 -37 -16 -56 -35 -19 -19 -39 -35 -45 -35 -12 0 -323 156 -342 171 -6 6
-83 47 -170 91 -87 44 -212 109 -278 143 -66 35 -187 98 -270 140 -82 43 -161
85 -175 94 -27 18 -255 131 -264 131 -3 0 -6 -8 -6 -17z m1644 -748 c-4 -8
-11 -15 -16 -15 -6 0 -5 6 2 15 7 8 14 15 16 15 2 0 1 -7 -2 -15z"/>
<path d="M390 3901 c0 -5 7 -11 14 -14 10 -4 13 -1 9 9 -6 15 -23 19 -23 5z"/>
<path d="M3270 3820 c0 -5 4 -10 9 -10 6 0 13 5 16 10 3 6 -1 10 -9 10 -9 0
-16 -4 -16 -10z"/>
<path d="M3840 3803 c-19 -15 -36 -31 -38 -35 -2 -5 -10 -8 -17 -8 -7 0 -15
-7 -19 -15 -3 -8 -12 -15 -19 -15 -8 0 -21 -8 -28 -17 -8 -9 -49 -43 -93 -75
-43 -32 -102 -79 -131 -103 -29 -25 -57 -45 -63 -45 -6 0 -12 -4 -14 -9 -1 -5
-52 -46 -112 -91 l-109 -82 -34 16 c-44 21 -56 20 -71 -4 -7 -12 -17 -18 -22
-15 -16 10 -24 -25 -9 -40 8 -7 46 -30 85 -50 82 -42 82 -43 174 33 30 25
-441 -452 -1048 -1059 l-1103 -1105 67 -85 c135 -167 621 -639 659 -639 5 0
111 101 234 224 l224 224 67 -34 c37 -19 71 -34 77 -34 5 0 26 30 48 68 34 57
40 63 43 43 2 -14 -5 -43 -17 -66 -36 -72 -33 -85 24 -109 28 -11 52 -24 53
-28 7 -16 22 4 22 28 0 35 27 84 48 85 9 1 -13 6 -50 13 -64 10 -66 12 -52 30
11 16 27 20 69 20 33 1 55 5 55 12 0 21 112 179 208 294 53 63 213 233 356
377 253 257 258 263 232 272 -35 14 -33 31 4 27 41 -5 39 16 -5 45 -32 22 -45
39 -29 39 3 0 35 -16 70 -36 42 -24 64 -31 64 -22 0 7 124 137 276 288 151
151 302 308 335 348 57 71 105 149 96 158 -6 6 -51 -18 -71 -39 -27 -26 -43
-21 -42 13 1 16 5 30 10 30 4 0 1 11 -7 24 -15 22 -15 25 2 40 10 9 21 13 25
9 4 -5 -2 19 -15 52 -12 33 -25 62 -28 65 -4 3 -18 21 -31 40 -33 48 -445 464
-500 505 -25 18 -62 42 -83 53 l-39 21 22 18 c13 10 37 29 54 43 17 14 83 66
146 115 63 49 118 93 121 98 10 14 1 88 -12 103 -15 19 -19 18 -59 -13z"/>
<path d="M2813 3738 c-42 -48 -29 -77 26 -57 18 7 22 15 19 41 -4 40 -18 45
-45 16z"/>
<path d="M967 3722 c-16 -18 -23 -42 -12 -42 15 0 55 34 55 46 0 20 -24 17
-43 -4z"/>
<path d="M840 3696 c0 -7 11 -21 25 -30 20 -13 29 -14 47 -5 l22 12 -23 18
c-27 22 -71 25 -71 5z"/>
<path d="M732 3653 c-6 -2 -10 -9 -6 -14 3 -5 1 -9 -4 -9 -4 0 -8 -13 -8 -29
0 -38 38 -49 67 -18 22 24 23 31 9 58 -10 18 -31 23 -58 12z"/>
<path d="M956 3607 c-9 -12 -14 -15 -10 -7 4 8 -11 -1 -33 -20 -40 -34 -54
-60 -32 -60 19 0 109 71 109 85 0 24 -17 25 -34 2z"/>
<path d="M506 3492 c-9 -15 33 -71 71 -95 49 -31 191 -112 268 -153 33 -17
110 -60 170 -94 61 -35 133 -75 160 -90 28 -14 90 -49 139 -76 48 -27 114 -63
145 -80 185 -100 339 -187 365 -207 92 -69 157 -99 246 -113 83 -13 97 -13
206 6 102 18 128 27 217 76 96 51 130 75 299 207 36 29 81 63 99 77 96 72 102
80 95 129 -9 68 -24 78 -69 44 -20 -15 -67 -50 -104 -78 -111 -81 -153 -118
-159 -140 -8 -26 -44 -65 -61 -65 -7 0 -13 -5 -13 -10 0 -7 -6 -7 -19 0 -18 9
-42 62 -50 108 -3 19 -51 8 -116 -27 -74 -41 -126 -57 -240 -75 -38 -6 -68
-15 -67 -20 2 -5 -2 -12 -9 -16 -14 -10 -41 -1 -34 10 6 10 -50 30 -86 30 -15
0 -61 18 -103 40 -80 43 -101 49 -93 26 3 -8 9 -31 13 -50 5 -28 3 -36 -8 -36
-19 0 -111 48 -120 64 -4 6 -8 8 -8 4 0 -4 -28 9 -62 29 -35 20 -92 51 -128
70 -93 49 -179 106 -180 119 0 6 9 19 20 29 11 10 18 20 15 23 -3 3 9 13 25
23 28 18 41 49 20 49 -5 0 -7 -8 -3 -17 3 -10 3 -15 -1 -12 -4 4 -32 -8 -62
-26 l-55 -33 -45 19 c-24 11 -84 43 -132 71 -136 78 -172 99 -238 134 -34 18
-72 39 -85 47 -25 15 -78 32 -93 28 -4 -1 -29 12 -55 29 -49 31 -66 36 -75 22z
m744 -372 c0 -5 -2 -10 -4 -10 -3 0 -8 5 -11 10 -3 6 -1 10 4 10 6 0 11 -4 11
-10z m963 -330 c6 -16 15 -30 20 -30 4 0 5 -4 2 -10 -3 -5 -26 -10 -51 -10
-52 0 -64 16 -39 54 24 36 54 34 68 -4z"/>
<path d="M4871 3333 c-6 -12 -6 -25 0 -34 5 -7 9 -24 9 -37 0 -15 5 -22 13
-19 16 5 16 99 0 104 -6 2 -16 -4 -22 -14z"/>
<path d="M5030 3329 c-11 -8 -12 -12 -2 -16 6 -2 12 -9 12 -14 0 -6 -4 -7 -10
-4 -6 4 -10 -7 -10 -26 0 -27 2 -30 15 -19 8 7 12 17 8 23 -4 6 0 8 10 4 20
-8 22 4 5 22 -11 11 -10 12 2 6 13 -8 13 -7 0 11 -8 10 -15 20 -15 21 0 1 -7
-3 -15 -8z"/>
<path d="M7929 3263 l-24 -28 28 24 c25 23 32 31 24 31 -2 0 -14 -12 -28 -27z"/>
<path d="M4670 3270 c0 -5 5 -10 11 -10 5 0 7 5 4 10 -3 6 -8 10 -11 10 -2 0
-4 -4 -4 -10z"/>
<path d="M5355 3270 c3 -5 0 -10 -9 -10 -8 0 -29 -12 -46 -27 -30 -25 -33 -25
-58 -11 -15 8 -40 18 -57 22 l-30 8 30 -23 c17 -13 33 -28 37 -34 4 -5 8 -6 8
-2 0 4 9 3 20 -3 16 -9 28 -4 70 27 46 35 64 63 39 63 -5 0 -7 -4 -4 -10z"/>
<path d="M4805 3260 c-3 -5 -1 -10 4 -10 6 0 11 5 11 10 0 6 -2 10 -4 10 -3 0
-8 -4 -11 -10z"/>
<path d="M4704 3231 c16 -18 65 -37 76 -29 2 2 6 10 7 19 2 12 -8 18 -35 23
-62 10 -67 8 -48 -13z"/>
<path d="M4809 3223 c11 -21 41 -22 41 -1 0 5 -5 6 -10 3 -6 -4 -18 -1 -27 7
-15 12 -15 11 -4 -9z"/>
<path d="M5136 3215 c7 -18 20 -19 30 -3 4 7 3 8 -4 4 -7 -4 -12 -2 -12 3 0 6
-4 11 -10 11 -5 0 -7 -7 -4 -15z"/>
<path d="M5582 3214 c9 -9 21 -13 27 -9 16 10 3 25 -22 25 -20 0 -20 -1 -5
-16z"/>
<path d="M7890 3210 c-6 -11 -8 -20 -6 -20 3 0 10 9 16 20 6 11 8 20 6 20 -3
0 -10 -9 -16 -20z"/>
<path d="M4950 3206 c0 -9 7 -16 16 -16 9 0 14 5 12 12 -6 18 -28 21 -28 4z"/>
<path d="M5512 3168 c-17 -17 -15 -37 3 -45 9 -3 22 2 29 13 24 32 -4 60 -32
32z"/>
<path d="M5216 3154 c-10 -26 -7 -34 13 -34 25 0 37 18 17 26 -9 3 -13 10 -10
15 3 5 1 9 -4 9 -6 0 -13 -7 -16 -16z"/>
<path d="M4834 3095 c-7 -17 4 -37 17 -30 12 8 12 45 -1 45 -6 0 -13 -7 -16
-15z"/>
<path d="M5437 3082 c-30 -19 -33 -25 -14 -40 16 -14 57 11 57 33 0 22 -14 25
-43 7z"/>
<path d="M6009 3063 c-19 -21 -44 -49 -54 -62 l-20 -24 23 14 c12 8 22 17 22
21 0 5 16 26 36 48 20 22 34 40 32 40 -2 0 -20 -17 -39 -37z"/>
<path d="M6658 3093 c12 -2 30 -2 40 0 9 3 -1 5 -23 4 -22 0 -30 -2 -17 -4z"/>
<path d="M2052 3038 c-17 -17 -15 -45 5 -52 26 -10 48 17 34 43 -13 24 -22 26
-39 9z"/>
<path d="M5165 3033 c1 -10 5 -26 10 -36 4 -11 3 -23 -4 -30 -6 -6 -11 -18
-11 -26 0 -8 -10 -25 -22 -38 -12 -13 -16 -23 -10 -23 17 0 72 79 72 104 0 36
-12 66 -25 66 -7 0 -11 -8 -10 -17z"/>
<path d="M4858 3023 c7 -3 16 -2 19 1 4 3 -2 6 -13 5 -11 0 -14 -3 -6 -6z"/>
<path d="M5392 3010 c0 -14 2 -19 5 -12 2 6 2 18 0 25 -3 6 -5 1 -5 -13z"/>
<path d="M5804 2958 l-19 -23 23 19 c12 11 22 21 22 23 0 8 -8 2 -26 -19z"/>
<path d="M5311 2954 c-11 -13 -11 -18 1 -30 13 -13 18 -12 39 5 20 18 22 22 9
31 -21 13 -33 12 -49 -6z"/>
<path d="M4640 2932 c-33 -22 -80 -70 -80 -82 0 -6 10 -10 23 -10 18 0 19 2 7
10 -12 8 -11 10 8 10 17 0 26 8 33 30 6 17 15 30 19 30 4 0 10 7 14 15 6 18 8
18 -24 -3z"/>
<path d="M510 2905 c0 -3 15 -36 34 -73 37 -72 38 -72 260 -197 30 -16 93 -52
141 -80 47 -27 101 -58 118 -67 38 -21 87 -73 87 -92 0 -26 41 -106 63 -121
12 -9 81 -50 152 -92 150 -87 162 -97 179 -138 20 -47 60 -88 123 -127 102
-63 87 -68 249 94 165 165 162 159 118 288 -14 41 -26 82 -27 91 -3 41 -45 13
-181 -122 -78 -77 -148 -141 -156 -142 -25 -1 -124 60 -159 99 -23 24 -31 43
-29 61 3 23 -6 32 -82 76 -47 28 -86 54 -88 59 -2 4 -8 8 -14 8 -5 0 -39 17
-75 38 -35 20 -73 42 -83 48 -10 5 -27 21 -37 33 -19 24 -182 129 -240 156
-17 8 -55 29 -85 46 -29 18 -78 45 -108 62 -30 16 -73 42 -95 56 -59 40 -65
43 -65 36z"/>
<path d="M5670 2889 c0 -5 5 -7 10 -4 6 3 10 8 10 11 0 2 -4 4 -10 4 -5 0 -10
-5 -10 -11z"/>
<path d="M4858 2883 c7 -3 16 -2 19 1 4 3 -2 6 -13 5 -11 0 -14 -3 -6 -6z"/>
<path d="M5236 2871 c-19 -20 -14 -41 8 -41 16 0 46 32 46 48 0 19 -35 14 -54
-7z"/>
<path d="M5707 2874 c3 -9 9 -12 12 -7 3 4 10 11 15 16 5 4 0 7 -12 7 -15 0
-20 -4 -15 -16z"/>
<path d="M4261 2866 c-12 -14 -5 -26 16 -26 15 0 18 26 4 34 -5 3 -14 0 -20
-8z"/>
<path d="M4525 2840 c-3 -5 -1 -10 4 -10 6 0 11 5 11 10 0 6 -2 10 -4 10 -3 0
-8 -4 -11 -10z"/>
<path d="M5800 2834 l-25 -15 24 7 c15 4 27 1 32 -7 7 -11 9 -10 9 3 0 25 -12
28 -40 12z"/>
<path d="M4294 2805 c-13 -41 -9 -42 30 -11 29 24 28 46 -2 46 -11 0 -21 -13
-28 -35z"/>
<path d="M4815 2828 c-16 -6 -42 -15 -57 -21 -16 -5 -28 -14 -28 -19 0 -5 6
-6 13 -3 6 4 3 -1 -7 -9 -25 -20 -7 -21 30 -1 39 20 163 20 211 0 33 -14 41
-14 85 1 49 16 72 34 44 34 -9 0 -16 -4 -16 -10 0 -5 -16 -10 -36 -10 -24 0
-33 4 -28 12 5 8 -2 9 -27 5 -20 -4 -29 -3 -21 2 21 13 -15 23 -38 11 -10 -6
-27 -10 -37 -9 -13 1 -11 3 7 9 14 5 18 8 9 9 -9 1 -29 3 -45 5 -16 3 -42 0
-59 -6z"/>
<path d="M5158 2785 c-14 -19 -15 -25 -5 -34 17 -14 59 14 55 37 -5 24 -31 22
-50 -3z"/>
<path d="M5589 2783 c-13 -16 -12 -17 4 -4 16 13 21 21 13 21 -2 0 -10 -8 -17
-17z"/>
<path d="M4450 2780 c-8 -5 -12 -12 -9 -15 4 -3 12 1 19 10 14 17 11 19 -10 5z"/>
<path d="M4392 2735 c-11 -12 -10 -15 3 -15 8 0 15 7 15 15 0 18 -2 18 -18 0z"/>
<path d="M4682 2700 c-16 -13 -32 -17 -51 -14 -19 4 -31 0 -41 -13 -8 -10 -10
-15 -5 -10 4 4 16 0 26 -9 24 -21 64 -11 85 21 22 33 14 48 -14 25z"/>
<path d="M5078 2703 c-18 -21 -13 -43 9 -43 17 0 54 41 46 52 -8 14 -40 8 -55
-9z"/>
<path d="M4340 2685 c0 -8 4 -15 10 -15 5 0 7 7 4 15 -4 8 -8 15 -10 15 -2 0
-4 -7 -4 -15z"/>
<path d="M4277 2663 c9 -14 22 -22 30 -19 8 4 17 6 19 6 2 0 4 5 4 10 0 6 -12
10 -26 10 -14 0 -23 4 -20 8 3 5 -1 9 -9 9 -11 0 -10 -5 2 -24z"/>
<path d="M4449 2653 c-7 -16 -15 -32 -17 -36 -2 -5 14 3 37 18 41 27 46 45 12
45 -10 0 -24 -12 -32 -27z"/>
<path d="M5509 2643 c-13 -16 -12 -17 4 -4 16 13 21 21 13 21 -2 0 -10 -8 -17
-17z"/>
<path d="M4998 2619 c-14 -15 -14 -20 -3 -36 13 -17 14 -17 34 2 24 21 24 47
1 50 -8 1 -23 -6 -32 -16z"/>
<path d="M4557 2573 c-12 -11 -8 -23 8 -23 8 0 15 7 15 15 0 16 -12 20 -23 8z"/>
<path d="M5419 2563 c-13 -16 -12 -17 4 -4 16 13 21 21 13 21 -2 0 -10 -8 -17
-17z"/>
<path d="M4917 2532 c-23 -25 -21 -42 4 -42 27 0 51 24 43 44 -8 21 -27 20
-47 -2z"/>
<path d="M4547 2493 c4 -11 3 -14 -5 -9 -7 4 -12 2 -12 -4 0 -7 6 -10 13 -8
15 6 22 38 8 38 -6 0 -7 -7 -4 -17z"/>
<path d="M4335 2489 c-11 -17 1 -21 15 -4 8 9 8 15 2 15 -6 0 -14 -5 -17 -11z"/>
<path d="M4835 2447 c-23 -19 -25 -25 -13 -35 11 -9 19 -8 36 4 23 16 29 39
13 49 -5 3 -22 -5 -36 -18z"/>
<path d="M4590 2440 c0 -5 5 -10 10 -10 6 0 10 5 10 10 0 6 -4 10 -10 10 -5 0
-10 -4 -10 -10z"/>
<path d="M4690 2409 c0 -5 5 -7 10 -4 6 3 10 8 10 11 0 2 -4 4 -10 4 -5 0 -10
-5 -10 -11z"/>
<path d="M5252 2376 c10 -7 14 -17 10 -21 -4 -5 -1 -5 6 -1 20 12 14 36 -10
36 -21 -1 -22 -2 -6 -14z"/>
<path d="M4736 2359 c-11 -17 -12 -24 -3 -34 19 -20 77 21 62 45 -11 17 -43
11 -59 -11z"/>
<path d="M4590 2350 c0 -5 5 -10 10 -10 6 0 10 5 10 10 0 6 -4 10 -10 10 -5 0
-10 -4 -10 -10z"/>
<path d="M5363 2345 c-9 -26 4 -28 26 -6 21 21 21 21 1 21 -11 0 -23 -7 -27
-15z"/>
<path d="M4660 2344 c0 -3 5 -14 11 -26 9 -16 7 -23 -10 -35 -25 -17 -27 -41
-6 -50 16 -5 55 22 55 39 0 5 -7 16 -15 25 -18 17 -14 40 4 35 7 -1 10 2 6 8
-6 10 -45 14 -45 4z"/>
<path d="M4590 2332 c-14 -2 -35 -15 -47 -29 -13 -15 -23 -23 -23 -19 0 4 -9
2 -20 -4 -11 -6 -20 -18 -20 -28 0 -12 -3 -13 -8 -5 -9 15 -54 -4 -58 -25 -1
-7 0 -9 2 -4 3 5 15 7 27 5 15 -3 42 7 73 26 69 44 114 63 130 57 8 -3 14 -2
14 2 0 12 -44 27 -70 24z"/>
<path d="M5409 2327 c7 -7 14 -8 21 -1 6 6 2 10 -12 11 -16 2 -18 -1 -9 -10z"/>
<path d="M5179 2293 c-18 -20 -27 -32 -18 -25 9 6 19 10 22 7 4 -3 5 -2 2 2
-3 3 5 17 17 30 12 13 19 23 17 23 -3 0 -21 -17 -40 -37z"/>
<path d="M5449 2306 c7 -8 25 -19 42 -25 23 -8 29 -7 29 4 0 7 -14 18 -31 24
-43 15 -54 14 -40 -3z"/>
<path d="M5556 2273 c-11 -11 -6 -23 9 -23 8 0 15 4 15 9 0 13 -16 22 -24 14z"/>
<path d="M5069 2193 l-24 -28 28 24 c25 23 32 31 24 31 -2 0 -14 -12 -28 -27z"/>
<path d="M4567 2192 c-24 -26 -21 -42 7 -42 28 0 51 24 42 45 -7 20 -29 19
-49 -3z"/>
<path d="M4303 2185 c-18 -20 -16 -24 7 -18 11 3 18 9 15 13 -3 5 1 11 7 13 9
4 8 6 -2 6 -8 0 -21 -6 -27 -14z"/>
<path d="M4487 2110 c-30 -24 -36 -50 -11 -50 9 0 27 8 40 19 19 15 21 21 11
35 -12 16 -15 16 -40 -4z"/>
<path d="M5005 2120 c-3 -5 -1 -10 4 -10 6 0 11 5 11 10 0 6 -2 10 -4 10 -3 0
-8 -4 -11 -10z"/>
<path d="M4280 2074 c0 -6 7 -14 15 -18 10 -3 15 1 15 13 0 10 -7 18 -15 18
-8 0 -15 -6 -15 -13z"/>
<path d="M4991 2058 c-14 -23 -14 -23 8 -4 22 20 25 26 13 26 -4 0 -13 -10
-21 -22z"/>
<path d="M4385 2020 c-17 -18 -11 -50 10 -50 17 0 48 36 43 51 -6 19 -35 19
-53 -1z"/>
<path d="M4919 2003 l-24 -28 28 24 c25 23 32 31 24 31 -2 0 -14 -12 -28 -27z"/>
<path d="M3980 1969 c0 -5 5 -7 10 -4 6 3 10 8 10 11 0 2 -4 4 -10 4 -5 0 -10
-5 -10 -11z"/>
<path d="M1187 1922 c-32 -33 -33 -43 -9 -65 17 -16 20 -15 50 16 39 40 43 77
9 77 -13 0 -35 -13 -50 -28z"/>
<path d="M4245 1883 c-36 -38 -65 -71 -65 -75 0 -4 9 -10 21 -13 31 -10 59 20
53 55 -4 15 -1 31 5 34 6 4 11 2 11 -3 0 -18 28 -12 56 12 18 16 25 30 21 40
-12 31 -37 18 -102 -50z"/>
<path d="M4750 1919 c0 -5 5 -7 10 -4 6 3 10 8 10 11 0 2 -4 4 -10 4 -5 0 -10
-5 -10 -11z"/>
<path d="M4827 1922 c-5 -7 -12 -10 -17 -7 -12 8 -24 -35 -13 -46 13 -13 46
25 41 48 -3 13 -6 15 -11 5z"/>
<path d="M3937 1901 c-4 -17 -3 -21 5 -13 5 5 8 16 6 23 -3 8 -7 3 -11 -10z"/>
<path d="M4830 1865 c-7 -8 -8 -15 -2 -15 5 0 15 7 22 15 7 8 8 15 2 15 -5 0
-15 -7 -22 -15z"/>
<path d="M1504 1736 c-101 -107 -108 -116 -95 -135 16 -24 37 -27 48 -6 5 8
49 56 98 107 62 64 91 102 93 121 6 54 -32 31 -144 -87z"/>
<path d="M3890 1840 c-8 -5 -12 -12 -9 -15 4 -3 12 1 19 10 14 17 11 19 -10 5z"/>
<path d="M4937 1843 c-4 -3 5 -17 19 -30 20 -19 29 -22 38 -12 8 8 8 13 -2 16
-7 3 -19 11 -26 19 -16 16 -20 17 -29 7z"/>
<path d="M4905 1831 c-3 -5 -1 -12 5 -16 5 -3 10 1 10 9 0 18 -6 21 -15 7z"/>
<path d="M4744 1788 c-16 -18 -20 -25 -8 -15 11 9 24 15 27 12 4 -3 5 -2 2 2
-3 3 0 12 6 20 23 27 2 12 -27 -19z"/>
<path d="M3580 1795 c0 -19 46 -49 65 -41 21 8 19 33 -4 46 -29 15 -61 12 -61
-5z"/>
<path d="M5008 1798 c-8 -19 17 -33 28 -16 4 6 3 8 -4 4 -6 -3 -12 2 -14 11
-3 16 -4 17 -10 1z"/>
<path d="M3847 1783 c-4 -3 -7 -13 -7 -22 1 -13 3 -13 11 2 11 19 8 33 -4 20z"/>
<path d="M5049 1773 c-13 -16 -12 -17 4 -4 9 7 17 15 17 17 0 8 -8 3 -21 -13z"/>
<path d="M5069 1763 c-13 -16 -12 -17 4 -4 9 7 17 15 17 17 0 8 -8 3 -21 -13z"/>
<path d="M4113 1748 c-19 -22 -21 -48 -4 -48 19 0 60 42 54 55 -8 21 -26 18
-50 -7z"/>
<path d="M5094 1759 c-7 -12 12 -29 34 -29 19 0 14 18 -7 30 -14 7 -22 7 -27
-1z m31 -17 c-3 -3 -11 0 -18 7 -9 10 -8 11 6 5 10 -3 15 -9 12 -12z"/>
<path d="M3690 1736 c0 -12 40 -46 54 -46 11 0 15 34 5 46 -15 18 -59 18 -59
0z"/>
<path d="M3785 1720 c3 -4 0 -10 -6 -12 -5 -2 -12 -16 -13 -32 -2 -15 -10 -32
-17 -37 -7 -4 -10 -11 -6 -15 4 -4 13 -1 20 8 19 24 43 28 67 11 19 -13 24
-13 31 -2 13 20 12 23 -16 53 -23 25 -73 46 -60 26z"/>
<path d="M4659 1713 c-13 -16 -12 -17 4 -4 16 13 21 21 13 21 -2 0 -10 -8 -17
-17z"/>
<path d="M4006 1654 c-21 -19 -35 -24 -53 -19 -34 8 -56 -11 -42 -37 6 -11 8
-26 5 -34 -7 -17 3 -44 15 -44 6 0 41 31 79 68 52 52 66 72 58 80 -17 17 -30
14 -62 -14z"/>
<path d="M4575 1639 c-4 -6 -5 -12 -2 -15 2 -3 7 2 10 11 7 17 1 20 -8 4z"/>
<path d="M3710 1585 c-7 -9 -11 -18 -8 -20 3 -3 11 1 18 10 7 9 11 18 8 20 -3
3 -11 -1 -18 -10z"/>
<path d="M3661 1522 c-7 -13 -11 -26 -8 -28 8 -8 29 25 25 38 -3 8 -9 4 -17
-10z"/>
<path d="M4504 1518 l-19 -23 23 19 c21 18 27 26 19 26 -2 0 -12 -10 -23 -22z"/>
<path d="M3830 1476 c-20 -23 -21 -26 -7 -41 14 -14 18 -13 43 8 18 16 25 30
21 40 -9 24 -30 21 -57 -7z"/>
<path d="M4303 1405 c-3 -9 -3 -19 1 -22 3 -4 6 2 6 11 0 12 5 16 16 12 8 -3
12 -2 9 4 -9 15 -25 12 -32 -5z"/>
<path d="M3746 1389 c-29 -23 -34 -44 -11 -53 22 -8 68 35 60 57 -9 22 -17 22
-49 -4z"/>
<path d="M3571 1383 c-7 -8 -11 -16 -8 -19 2 -2 10 2 17 11 17 20 9 27 -9 8z"/>
<path d="M4326 1381 c-3 -4 1 -17 9 -27 13 -18 14 -18 20 -2 4 10 11 15 16 12
5 -3 9 2 9 10 0 17 -45 23 -54 7z"/>
<path d="M4385 1350 c-20 -14 -25 -20 -13 -20 9 0 20 5 23 10 4 6 11 8 16 5 5
-4 9 1 9 9 0 20 1 20 -35 -4z"/>
<path d="M4475 1320 c-3 -5 1 -13 10 -16 22 -9 29 1 11 15 -10 8 -16 9 -21 1z"/>
<path d="M4450 1306 c0 -9 5 -16 10 -16 6 0 10 4 10 9 0 6 -4 13 -10 16 -5 3
-10 -1 -10 -9z"/>
<path d="M3515 1299 c-4 -6 -5 -12 -2 -15 2 -3 7 2 10 11 7 17 1 20 -8 4z"/>
<path d="M3639 1284 c-21 -22 -21 -26 -7 -40 13 -14 18 -13 47 12 23 19 29 30
22 37 -19 19 -39 16 -62 -9z"/>
<path d="M4306 1284 c-10 -25 1 -29 14 -5 6 12 7 21 1 21 -5 0 -12 -7 -15 -16z"/>
<path d="M4510 1279 c0 -5 12 -15 28 -21 15 -7 34 -17 42 -24 17 -14 88 -54
95 -54 3 0 5 6 5 14 0 7 -21 24 -47 37 -27 13 -55 30 -64 37 -21 16 -59 24
-59 11z"/>
<path d="M3465 1230 c-3 -5 -1 -10 4 -10 6 0 11 5 11 10 0 6 -2 10 -4 10 -3 0
-8 -4 -11 -10z"/>
<path d="M3545 1190 c-19 -21 -14 -50 8 -50 19 0 60 46 52 59 -10 17 -40 13
-60 -9z"/>
<path d="M3410 1151 c-6 -12 -7 -21 -1 -21 10 0 24 30 17 37 -2 3 -9 -5 -16
-16z"/>
<path d="M4115 1110 c-10 -11 -16 -22 -14 -24 2 -2 12 7 22 20 22 29 17 32 -8
4z"/>
<path d="M3452 1097 c-19 -20 -20 -26 -8 -42 13 -18 15 -18 44 6 23 20 27 30
20 42 -13 23 -31 21 -56 -6z"/>
<path d="M3370 1095 c-7 -9 -11 -18 -8 -20 3 -3 11 1 18 10 7 9 11 18 8 20 -3
3 -11 -1 -18 -10z"/>
<path d="M3320 1030 c-8 -16 -8 -20 3 -20 8 0 17 9 20 20 3 11 1 20 -4 20 -4
0 -13 -9 -19 -20z"/>
<path d="M3630 1030 c0 -5 10 -15 23 -21 12 -6 32 -21 44 -32 13 -11 26 -18
29 -14 7 7 -20 37 -34 37 -5 0 -17 9 -27 20 -19 21 -35 26 -35 10z"/>
<path d="M4051 996 l-24 -31 28 27 c16 15 27 29 24 31 -2 3 -15 -10 -28 -27z"/>
<path d="M3354 996 c-37 -42 0 -70 41 -31 15 14 19 25 13 38 -12 23 -29 21
-54 -7z"/>
<path d="M3216 883 c-30 -43 -82 -107 -115 -143 -63 -67 -72 -86 -44 -97 16
-6 28 5 88 78 11 13 29 29 39 35 32 17 43 41 29 64 -11 16 -10 18 2 14 8 -4
15 -2 15 3 0 5 10 9 23 8 23 -3 67 30 67 51 0 12 -28 29 -43 25 -5 -1 -6 3 -2
9 3 6 12 7 18 3 7 -4 6 0 -2 10 -7 9 -15 17 -17 17 -1 0 -27 -35 -58 -77z"/>
<path d="M3790 915 c0 -2 16 -22 36 -42 31 -32 36 -34 29 -14 -6 20 -4 23 9
18 10 -4 15 -3 11 3 -3 6 -13 10 -21 10 -9 0 -22 7 -30 15 -15 14 -34 20 -34
10z"/>
<path d="M3921 880 c-13 -11 -29 -20 -37 -20 -17 0 -19 -26 -1 -32 19 -8 37 2
37 20 0 8 7 24 17 34 21 23 14 23 -16 -2z"/>
<path d="M3930 819 c0 -5 -4 -8 -8 -5 -5 3 -9 -1 -9 -9 0 -11 4 -12 13 -4 9 7
18 0 34 -27 13 -19 25 -32 29 -27 3 5 14 12 24 16 10 4 16 11 12 16 -3 6 -11
8 -18 5 -7 -2 -24 7 -39 21 -30 27 -38 31 -38 14z"/>
<path d="M3842 808 c-14 -14 -16 -44 -3 -53 11 -6 16 1 25 38 7 29 -2 35 -22
15z"/>
<path d="M2754 788 c-3 -4 -4 -8 -2 -9 27 -6 38 -5 38 5 0 14 -28 17 -36 4z"/>
<path d="M4016 751 c-3 -5 11 -21 32 -37 20 -15 40 -33 44 -38 4 -6 8 -7 8 -3
0 5 17 -5 37 -22 24 -19 39 -27 42 -20 2 7 -9 22 -25 33 -104 77 -133 95 -138
87z"/>
<path d="M3050 734 c0 -8 5 -12 10 -9 6 4 8 11 5 16 -9 14 -15 11 -15 -7z"/>
<path d="M3799 693 c-13 -16 -12 -17 4 -4 9 7 17 15 17 17 0 8 -8 3 -21 -13z"/>
<path d="M3739 653 c-13 -16 -12 -17 4 -4 16 13 21 21 13 21 -2 0 -10 -8 -17
-17z"/>
<path d="M2971 594 c-37 -31 -39 -42 -9 -53 19 -7 27 -3 45 22 17 23 20 34 12
44 -15 17 -12 17 -48 -13z"/>
<path d="M3626 559 c-14 -17 -26 -27 -26 -23 0 4 -7 -1 -15 -12 -11 -14 -17
-16 -23 -7 -5 9 -24 -4 -61 -42 -30 -30 -52 -55 -49 -55 2 0 -16 -21 -40 -47
-42 -43 -44 -47 -26 -60 30 -22 86 -34 101 -22 7 6 11 15 8 19 -2 4 4 15 15
25 11 10 20 22 20 28 0 5 20 32 45 59 25 28 45 55 45 62 0 7 3 6 9 -2 6 -9 18
0 47 34 48 59 54 87 11 48 -17 -16 -24 -19 -14 -8 16 20 16 22 2 28 -23 8 -20
10 -49 -25z m14 -44 c0 -2 -10 -9 -22 -15 -22 -11 -22 -10 -4 4 21 17 26 19
26 11z"/>
<path d="M3643 365 c-51 -57 -93 -105 -93 -107 0 -3 18 -8 40 -12 23 -3 49
-11 58 -16 18 -10 84 -29 217 -61 221 -55 335 -78 381 -79 16 0 34 -4 40 -9 5
-5 70 -15 144 -21 74 -7 142 -16 151 -20 23 -12 499 -36 628 -32 119 4 54 14
-150 23 -354 15 -636 55 -974 139 -235 58 -455 126 -455 141 0 20 23 55 68
101 25 26 44 49 41 51 -2 2 -46 -42 -96 -98z"/>
<path d="M5559 333 c-13 -16 -12 -17 4 -4 9 7 17 15 17 17 0 8 -8 3 -21 -13z"/>
<path d="M5511 252 c-11 -22 -34 -61 -51 -85 -17 -25 -37 -61 -45 -80 -17 -42
-32 -54 -70 -60 -19 -3 -15 -4 14 -3 l43 1 43 80 c24 44 55 102 69 129 15 27
24 51 22 53 -3 3 -14 -13 -25 -35z"/>
</g>
</svg>
