<?xml version="1.0" standalone="no"?>
<!DOCTYPE svg PUBLIC "-//W3C//DTD SVG 20010904//EN"
 "http://www.w3.org/TR/2001/REC-SVG-20010904/DTD/svg10.dtd">
<svg version="1.0" xmlns="http://www.w3.org/2000/svg"
 width="16.000000pt" height="16.000000pt" viewBox="0 0 16.000000 16.000000"
 preserveAspectRatio="xMidYMid meet">
<metadata>
Created by potrace 1.11, written by Peter Selinger 2001-2013
</metadata>
<g transform="translate(0.000000,16.000000) scale(0.003125,-0.003125)"
fill="#000000" stroke="none">
<path d="M3280 4703 c-268 -43 -445 -116 -640 -264 -71 -54 -187 -165 -228
-219 -79 -104 -160 -250 -201 -362 -117 -317 -103 -708 35 -1007 l35 -76 -32
-26 -32 -26 33 -58 c27 -47 33 -68 31 -106 -1 -26 5 -64 14 -84 l15 -37 -59
-67 c-33 -36 -80 -86 -105 -110 l-45 -44 99 -103 c54 -57 107 -115 116 -129
16 -25 16 -27 -12 -56 l-29 -30 -16 23 c-28 38 -256 260 -289 281 -16 10 -36
17 -44 15 -8 -2 -290 -277 -626 -611 -483 -482 -610 -613 -605 -628 3 -10 78
-90 165 -177 l159 -159 -42 -41 -42 -42 -134 132 c-74 73 -118 113 -97 88 22
-26 43 -67 52 -100 8 -30 22 -73 29 -95 42 -117 180 -168 302 -111 46 22 170
101 183 117 12 15 125 61 250 102 140 47 493 170 663 231 65 24 115 36 150 36
61 0 180 -29 447 -110 488 -146 486 -146 800 -81 432 89 641 155 682 215 14
20 -2 18 -109 -17 -154 -51 -270 -81 -585 -152 l-276 -62 -124 34 c-67 19
-247 72 -398 120 -151 47 -318 96 -372 110 l-96 24 -54 -27 c-81 -41 -224 -90
-423 -144 -277 -75 -288 -77 -389 -56 -47 10 -86 21 -85 25 0 3 48 47 105 96
58 50 189 167 292 261 103 95 188 171 190 169 2 -2 -1 -19 -6 -38 -10 -37 -1
-57 26 -57 9 0 11 7 7 19 -4 12 8 48 29 93 29 61 50 87 127 158 103 95 161
176 179 251 8 31 17 49 24 46 10 -4 76 110 90 156 3 9 14 17 25 17 12 0 19 5
16 12 -15 43 138 75 217 45 50 -18 92 -25 96 -14 6 18 -3 30 -87 118 -49 52
-88 96 -86 98 2 1 19 -8 37 -22 18 -14 62 -42 97 -62 l64 -38 26 31 26 32 75
-35 c182 -82 378 -119 595 -112 160 6 247 21 390 69 270 89 502 271 672 526
188 281 256 693 172 1027 -58 229 -146 399 -295 570 -210 239 -480 389 -799
440 -82 14 -311 18 -375 8z m330 -48 c202 -27 389 -99 566 -217 104 -70 265
-232 336 -338 248 -373 296 -823 128 -1217 -116 -270 -328 -500 -591 -642
-260 -140 -614 -184 -899 -111 -152 39 -291 95 -284 115 3 7 -26 31 -72 60
-106 67 -228 170 -300 257 -64 76 -139 186 -149 219 -5 13 -12 18 -24 14 -18
-5 -41 39 -87 165 -55 153 -79 419 -55 603 42 317 224 628 485 831 282 219
603 308 946 261z"/>
<path d="M3234 4125 c-3 -8 -3 -19 0 -24 6 -9 -1 -20 -40 -62 -5 -5 -21 -19
-36 -30 -16 -11 -28 -25 -28 -31 0 -6 8 -4 18 5 22 20 38 22 48 5 4 -7 3 -8
-4 -4 -7 4 -12 1 -12 -8 0 -8 -10 -16 -22 -19 -22 -3 -22 -4 5 -15 29 -12 33
-22 17 -38 -8 -8 -27 -8 -62 -1 -41 8 -61 20 -100 59 -26 26 -51 48 -55 48 -4
0 17 -23 45 -51 29 -28 45 -48 35 -44 -10 4 -25 8 -33 9 -8 0 -21 13 -28 28
-8 14 -26 29 -40 33 -47 13 -280 16 -287 5 -4 -6 1 -23 11 -38 16 -25 16 -26
0 -13 -9 8 -24 28 -32 44 -20 38 -26 30 -18 -22 4 -24 10 -38 14 -32 4 8 12 5
24 -8 19 -21 49 -34 114 -51 37 -10 46 -17 62 -53 10 -22 17 -44 14 -48 -2 -4
-84 -8 -182 -8 -97 0 -183 0 -189 0 -7 -1 -13 -7 -13 -13 0 -10 66 -13 293
-15 160 -1 312 -2 336 -3 34 0 42 -3 37 -15 -3 -8 -1 -15 3 -15 5 0 12 7 15
17 6 14 25 15 189 9 346 -12 545 -68 719 -199 37 -28 81 -68 98 -89 l31 -38
-59 0 c-33 0 -79 7 -103 16 -65 23 -182 20 -254 -7 -58 -22 -67 -22 -335 -15
-151 3 -288 8 -305 10 -16 2 -74 7 -127 11 -87 6 -98 9 -98 26 0 10 -4 19 -9
19 -5 0 -7 -10 -3 -22 5 -20 3 -21 -34 -14 -21 3 -66 9 -99 12 -33 3 -67 8
-75 11 -54 20 -161 26 -210 12 -25 -7 -49 -12 -54 -10 -4 1 -15 -4 -23 -11 -8
-6 -25 -13 -36 -15 -12 -2 -28 -5 -34 -8 -17 -6 -17 -35 0 -35 13 0 17 -20 15
-85 -7 -189 8 -266 72 -354 80 -110 225 -134 321 -54 39 34 79 112 86 173 5
43 9 50 36 59 46 16 63 13 81 -14 9 -13 35 -35 58 -49 93 -53 170 -43 248 33
l49 48 113 7 c62 4 123 10 136 13 21 5 22 3 22 -79 0 -178 91 -328 247 -407
148 -74 305 -52 414 60 26 27 57 72 69 103 22 51 25 55 64 60 58 9 141 59 176
107 120 166 65 408 -114 499 -64 33 -76 35 -162 35 -81 0 -95 3 -108 20 -9 11
-1 -10 17 -46 18 -37 34 -63 37 -59 10 16 70 21 112 10 23 -6 60 -22 80 -36
38 -24 68 -64 48 -64 -5 0 -10 7 -10 15 0 8 -4 15 -10 15 -5 0 -10 -5 -10 -11
0 -5 -4 -8 -10 -4 -5 3 -6 13 -3 23 6 15 4 15 -14 -1 -18 -15 -25 -17 -43 -7
-18 10 -24 9 -31 -1 -6 -11 -9 -11 -14 1 -3 10 -21 16 -47 17 -37 1 -48 8 -89
51 -95 101 -212 173 -360 221 -136 44 -239 60 -436 68 l-172 6 25 32 c28 37
30 52 9 82 -13 19 -12 23 10 47 13 15 39 29 57 33 32 7 32 7 8 13 -24 6 -24 7
16 27 74 39 86 83 21 83 -20 0 -41 7 -50 18 -21 23 -21 32 -2 32 8 0 15 -5 15
-12 0 -6 3 -8 6 -5 4 4 1 13 -6 22 -16 19 -59 20 -66 0z m26 -55 c0 -5 -7 -10
-16 -10 -8 0 -12 5 -9 10 3 6 10 10 16 10 5 0 9 -4 9 -10z m96 -21 c9 -15 -35
-48 -64 -49 -19 0 -23 5 -20 22 3 21 15 27 70 37 4 0 10 -4 14 -10z m-101 -29
c-3 -5 -1 -19 5 -30 7 -13 7 -20 1 -20 -18 0 -31 36 -19 48 15 15 21 15 13 2z
m-35 -16 c0 -8 -5 -12 -10 -9 -6 4 -8 11 -5 16 9 14 15 11 15 -7z m-10 -99
c-10 -12 -10 -21 -1 -41 16 -37 14 -50 -15 -81 l-26 -28 21 29 c25 34 26 49 5
81 -13 20 -14 27 -2 39 17 20 34 21 18 1z m-331 -125 l-1 -25 -7 25 c-4 14
-11 39 -14 55 l-6 30 14 -30 c8 -16 14 -41 14 -55z m206 51 c25 -6 20 -8 -34
-14 -88 -10 -149 -9 -156 2 -3 5 3 12 12 14 27 7 144 6 178 -2z m1289 -327
c48 -16 136 -85 136 -107 0 -6 -15 3 -32 20 -47 44 -103 70 -180 83 -38 7 -66
15 -63 20 7 11 82 2 139 -16z m-1775 -58 c62 -12 79 -20 113 -53 43 -41 88
-123 88 -161 0 -32 -17 -18 -25 21 -12 52 -41 101 -84 140 -56 50 -65 47 -14
-5 39 -41 63 -77 63 -95 0 -4 -21 16 -46 45 -61 69 -112 96 -176 90 -27 -3
-57 -13 -68 -23 -11 -10 -22 -16 -25 -13 -7 7 52 51 79 60 11 3 21 6 21 7 0 1
33 -5 74 -13z m1426 -66 c77 -37 152 -106 184 -168 25 -50 28 -77 3 -41 -94
140 -234 219 -363 205 -93 -10 -111 -18 -162 -70 -74 -76 -91 -120 -91 -241
-1 -92 2 -105 29 -160 40 -81 145 -186 211 -210 54 -20 77 -35 54 -35 -29 0
-136 58 -181 98 -85 75 -139 211 -139 346 0 91 23 155 77 217 l31 34 -257 1
c-141 1 -248 -1 -238 -3 10 -3 16 -10 14 -16 -3 -7 -11 -10 -18 -8 -8 2 -52 5
-99 8 -114 7 -127 23 -20 24 l85 2 -134 13 c-132 13 -180 24 -105 24 21 0 149
-7 284 -15 374 -22 508 -22 550 0 87 45 183 44 285 -5z m-1415 8 c111 -57 172
-235 125 -368 -19 -53 -19 -55 2 -39 9 8 3 -7 -15 -33 -18 -26 -46 -56 -62
-68 -37 -27 -102 -30 -146 -7 -37 19 -89 69 -105 100 -6 12 4 5 22 -17 36 -42
98 -75 142 -76 35 0 95 25 124 52 41 38 24 42 -17 4 -39 -35 -61 -42 -125 -37
-97 8 -185 143 -185 285 0 176 110 269 240 204z m210 12 c0 -11 -31 -11 -75 0
-26 7 -22 8 23 9 29 0 52 -3 52 -9z m1535 -64 c24 -16 27 -17 16 -3 -8 10 -11
20 -8 23 12 13 87 -9 113 -32 25 -24 26 -26 8 -38 -11 -7 -32 -16 -49 -19 -27
-5 -26 -4 7 11 21 9 38 20 38 24 0 4 -25 -3 -55 -17 -51 -22 -92 -25 -80 -5 3
5 -9 5 -27 -1 -41 -11 -47 -11 -28 1 11 7 9 11 -13 19 -16 6 -33 11 -38 11 -5
0 -26 7 -47 16 l-37 15 33 14 c18 8 32 18 31 22 -1 4 -1 11 0 15 1 9 98 -31
136 -56z m-155 44 c0 -5 -21 -9 -47 -8 l-48 1 45 7 c25 4 46 8 48 8 1 1 2 -2
2 -8z m348 -45 c-3 -3 -9 2 -12 12 -6 14 -5 15 5 6 7 -7 10 -15 7 -18z m-1173
-5 c46 -17 47 -19 19 -19 -80 -2 -184 12 -184 25 0 21 104 17 165 -6z m640
-24 c74 -37 131 -96 168 -174 29 -60 32 -77 32 -157 0 -99 -12 -133 -69 -193
-52 -56 -101 -76 -186 -76 -61 -1 -85 4 -130 25 -174 82 -262 301 -185 463 24
51 88 107 147 128 70 25 151 19 223 -16z m165 -8 c0 -6 7 -7 16 -4 8 3 12 2 9
-4 -3 -5 5 -25 18 -42 31 -42 52 -85 61 -123 4 -18 -9 -1 -33 44 -22 41 -50
86 -63 100 -13 14 -32 37 -43 50 l-20 24 28 -18 c15 -9 27 -22 27 -27z m-1276
-2 c-3 -9 -12 -16 -20 -16 -11 0 -10 4 4 18 20 22 25 21 16 -2z m1665 -43 c-2
-46 -2 -46 -8 -13 -4 23 -12 34 -21 32 -10 -1 -8 3 4 13 11 8 21 15 23 15 2 0
2 -21 2 -47z m-1129 8 c0 -13 -27 -21 -45 -15 -25 10 -17 24 15 24 17 0 30 -4
30 -9z m1074 -32 c13 -79 -18 -165 -76 -214 -31 -27 -87 -55 -107 -55 -5 0
-11 26 -14 58 -2 31 -7 68 -11 82 -7 24 -6 24 9 -3 10 -17 21 -25 28 -20 7 4
7 0 -2 -10 -17 -21 -12 -21 27 -2 22 11 29 21 25 32 -7 18 0 15 48 -19 24 -16
28 -16 33 -2 3 8 2 13 -3 10 -5 -3 -43 15 -85 41 -76 46 -83 62 -29 63 13 0
24 8 28 21 7 20 73 57 106 58 12 1 18 -11 23 -40z m-997 25 c-3 -3 -12 -4 -19
-1 -8 3 -5 6 6 6 11 1 17 -2 13 -5z m857 -13 c3 -5 0 -11 -8 -14 -15 -6 -26 1
-26 15 0 11 27 10 34 -1z m-39 -10 c3 -5 1 -12 -5 -16 -5 -3 -10 1 -10 9 0 18
6 21 15 7z m-1175 -47 c65 -6 71 -8 45 -16 -41 -12 -108 -11 -173 4 -42 9 -50
14 -36 20 11 4 35 6 54 3 19 -2 69 -7 110 -11z m-120 -34 c12 -6 17 -17 14
-32 -4 -22 -4 -22 6 1 l10 23 27 -26 c37 -37 20 -52 -38 -34 -48 14 -79 36
-79 54 0 7 8 15 18 17 9 3 18 5 20 6 2 0 12 -3 22 -9z m174 -10 c-15 -15 -92
-26 -79 -12 6 6 26 12 45 15 19 2 37 5 40 5 2 1 -1 -3 -6 -8z m1356 4 c0 -2
-7 -22 -16 -45 -11 -27 -19 -36 -25 -28 -4 7 -1 19 8 27 8 8 13 23 10 32 -2
10 2 17 9 17 8 0 14 -2 14 -3z m-199 -20 c12 -14 11 -16 -5 -13 -11 2 -21 10
-24 17 -5 17 13 15 29 -4z m149 -58 c0 -2 -8 -10 -17 -17 -16 -13 -17 -12 -4
4 13 16 21 21 21 13z m-7 -42 c-22 -34 -90 -84 -114 -84 -10 0 -21 -4 -24 -10
-9 -14 -58 -13 -53 2 2 6 23 17 46 24 24 6 58 24 76 38 18 14 36 23 38 21 3
-3 13 4 23 15 25 28 29 25 8 -6z m-331 -251 c-46 -65 -120 -103 -197 -102
l-50 1 63 13 c69 15 133 49 171 89 32 34 37 33 13 -1z"/>
<path d="M2484 3386 c-37 -16 -79 -69 -90 -111 -7 -27 -6 -29 9 -16 11 8 17 9
17 3 0 -6 6 -9 14 -6 13 5 66 -48 66 -67 0 -5 7 -9 15 -9 8 0 15 -4 15 -10 0
-5 -10 -10 -21 -10 -16 0 -19 -3 -11 -13 14 -16 5 -30 -33 -50 -58 -31 -58
-31 -41 -71 25 -60 34 -35 10 28 -8 21 80 66 97 49 8 -8 8 -17 0 -31 -9 -17
-8 -19 9 -15 18 5 20 0 22 -53 l2 -59 3 53 c2 28 8 52 13 52 10 0 36 -55 46
-97 8 -30 -14 -31 -26 0 -8 21 -9 21 -9 -5 -1 -32 7 -38 36 -27 l23 8 -35 82
c-34 82 -41 119 -11 60 11 -20 21 -28 32 -24 9 3 27 -6 45 -23 16 -15 29 -23
29 -18 0 6 -25 32 -56 58 -30 27 -53 51 -49 54 3 3 18 -6 33 -21 23 -22 32
-25 62 -18 21 4 36 14 38 24 2 9 -1 17 -7 17 -6 0 -11 -4 -11 -10 0 -5 -4 -10
-10 -10 -5 0 -10 7 -10 15 0 10 -10 15 -27 16 -16 0 -37 5 -48 10 -13 6 2 7
48 3 l68 -6 -7 39 c-11 64 -15 66 -67 33 -26 -16 -52 -30 -58 -30 -20 0 2 19
52 46 29 16 48 33 45 40 -18 47 -59 93 -100 113 -53 24 -78 26 -122 7z m71
-159 c-14 -7 -12 -11 10 -28 24 -20 34 -49 16 -49 -5 0 -45 34 -89 76 l-80 75
23 25 c25 27 37 31 29 10 -3 -7 2 -16 10 -19 9 -4 16 -12 16 -18 0 -8 -4 -8
-15 1 -8 6 -21 10 -30 8 -12 -2 -3 -16 34 -51 54 -52 61 -47 36 23 -8 23 -15
50 -14 59 0 9 10 -11 22 -44 18 -54 21 -57 28 -35 4 14 8 48 10 75 2 41 4 36
6 -24 3 -60 1 -76 -12 -84z m69 33 c-15 -33 -31 -60 -35 -60 -14 0 -11 9 23
77 40 78 49 66 12 -17z m-34 -130 c0 -5 -10 -15 -22 -21 -23 -12 -23 -12 -4
10 21 23 26 26 26 11z m-20 -50 c0 -5 -2 -10 -4 -10 -3 0 -8 5 -11 10 -3 6 -1
10 4 10 6 0 11 -4 11 -10z"/>
<path d="M2550 3180 c0 -5 5 -10 10 -10 6 0 10 5 10 10 0 6 -4 10 -10 10 -5 0
-10 -4 -10 -10z"/>
<path d="M2380 3176 c0 -7 7 -21 15 -32 14 -18 14 -18 15 4 0 21 4 22 38 17
46 -6 32 1 -25 14 -32 6 -43 6 -43 -3z"/>
<path d="M2488 2995 c-6 -14 -15 -25 -20 -25 -5 0 -6 -4 -3 -10 10 -16 35 -12
29 4 -3 8 -1 24 6 35 6 12 8 21 5 21 -3 0 -11 -11 -17 -25z"/>
<path d="M2550 2925 c-8 -9 -8 -15 -2 -15 12 0 26 19 19 26 -2 2 -10 -2 -17
-11z"/>
<path d="M3792 3305 c-17 -8 -48 -26 -67 -41 -38 -29 -89 -122 -83 -151 3 -13
8 -9 20 19 26 58 48 57 126 -2 69 -53 65 -50 -62 62 -17 14 -28 29 -25 33 4 3
22 -7 40 -23 19 -16 51 -32 72 -36 32 -6 39 -12 44 -37 3 -16 9 -29 14 -29 9
0 5 12 -35 108 -15 35 -26 71 -24 80 2 10 14 -8 26 -39 21 -52 25 -55 52 -51
29 4 30 6 30 59 0 36 4 52 11 48 6 -5 9 -41 7 -98 -2 -60 1 -92 8 -94 6 -2 33
28 59 66 27 39 52 68 57 65 5 -3 2 -16 -6 -27 -9 -12 -32 -47 -52 -79 l-36
-56 -34 14 c-20 9 -34 10 -34 4 0 -5 7 -10 15 -10 16 0 20 -12 8 -24 -8 -7 -8
-11 -11 -51 -2 -18 -3 -18 -18 3 -19 28 -32 28 -43 -1 -6 -15 -23 -27 -51 -36
-23 -7 -40 -14 -38 -17 3 -2 24 2 47 11 41 14 43 14 69 -10 15 -14 34 -25 43
-25 9 0 22 -14 29 -30 7 -17 15 -29 17 -26 3 2 -1 14 -7 26 -10 18 -9 25 3 38
14 13 21 9 66 -37 27 -28 53 -51 58 -51 4 -1 19 -10 32 -21 l24 -20 -23 -24
c-13 -14 -20 -25 -16 -25 11 0 66 63 66 75 0 5 -4 4 -9 -4 -8 -12 -13 -11 -33
5 -66 52 -138 119 -138 127 0 6 9 2 20 -8 14 -13 28 -16 55 -11 39 8 65 -5 65
-31 0 -15 -9 -15 -55 2 -14 5 -11 -1 10 -18 29 -24 30 -25 44 -5 9 13 21 18
36 15 17 -3 25 2 29 17 7 27 -2 32 -111 52 -78 15 -93 21 -95 38 -3 19 -4 19
-20 3 -16 -17 -18 -16 -27 2 -6 11 -8 27 -5 36 6 14 8 14 25 -1 11 -9 19 -12
19 -7 0 6 21 16 46 23 25 7 53 20 62 29 8 9 27 16 40 16 28 0 36 13 22 35 -7
12 -12 12 -22 2 -20 -20 -58 -15 -67 11 -10 26 -6 36 22 46 19 7 18 9 -15 35
-77 58 -205 82 -276 51z m278 -195 c0 -5 -2 -10 -4 -10 -3 0 -8 5 -11 10 -3 6
-1 10 4 10 6 0 11 -4 11 -10z m-185 -110 c3 -5 1 -10 -4 -10 -6 0 -11 5 -11
10 0 6 2 10 4 10 3 0 8 -4 11 -10z m89 -14 c-3 -9 -10 -16 -15 -16 -6 0 -5 9
1 21 13 24 24 20 14 -5z m196 -40 c0 -2 -7 -7 -16 -10 -8 -3 -12 -2 -9 4 6 10
25 14 25 6z"/>
<path d="M3870 3173 c1 -21 19 -35 36 -29 18 7 18 8 0 22 -22 15 -36 18 -36 7z"/>
<path d="M4077 3078 c-43 -16 -76 -35 -74 -41 2 -6 27 -17 55 -24 46 -12 55
-11 80 4 16 10 22 11 15 3 -17 -19 -16 -30 3 -30 8 0 12 5 8 11 -4 8 1 9 17 5
13 -3 18 -3 11 0 -9 4 -10 10 -3 18 6 7 6 18 1 26 -7 12 -11 12 -25 0 -14 -11
-19 -10 -37 8 l-21 21 34 15 c61 26 16 15 -64 -16z m40 -23 c8 -9 13 -19 9
-22 -7 -7 -36 16 -36 28 0 13 10 11 27 -6z"/>
<path d="M3641 3061 c1 -16 3 -19 6 -9 2 9 16 18 31 20 26 3 26 4 -5 9 -30 5
-33 3 -32 -20z"/>
<path d="M3718 3063 c6 -2 18 -2 25 0 6 3 1 5 -13 5 -14 0 -19 -2 -12 -5z"/>
<path d="M3872 3054 c10 -10 20 -15 24 -12 3 4 -5 12 -18 18 -22 12 -22 12 -6
-6z"/>
<path d="M3780 3050 c14 -4 34 -8 45 -8 16 0 15 2 -5 8 -14 4 -34 8 -45 8 -16
0 -15 -2 5 -8z"/>
<path d="M3660 2930 c0 -3 9 -11 19 -17 17 -11 20 -10 18 7 -1 11 -8 18 -19
17 -10 -1 -18 -4 -18 -7z"/>
<path d="M3845 2914 c-9 -15 -12 -23 -6 -20 11 7 35 46 28 46 -3 0 -12 -12
-22 -26z"/>
<path d="M3733 2903 c-13 -9 -23 -25 -23 -37 1 -21 1 -21 12 -1 6 11 19 25 27
32 24 18 9 23 -16 6z"/>
<path d="M3796 2843 c-14 -20 -22 -41 -18 -47 4 -7 8 -3 10 9 3 11 13 32 24
48 11 15 17 27 14 27 -3 0 -16 -17 -30 -37z"/>
<path d="M3970 2865 c0 -5 5 -17 10 -25 5 -8 10 -10 10 -5 0 6 -5 17 -10 25
-5 8 -10 11 -10 5z"/>
<path d="M3991 2815 c0 -5 8 -26 19 -45 11 -19 19 -30 19 -25 0 6 -8 26 -19
45 -11 19 -19 31 -19 25z"/>
<path d="M3815 2787 c-4 -10 -5 -21 -1 -24 10 -10 18 4 13 24 -4 17 -4 17 -12
0z"/>
<path d="M4390 3196 c0 -8 51 -13 56 -5 3 5 -9 9 -25 9 -17 0 -31 -2 -31 -4z"/>
<path d="M4475 3190 c-19 -8 -19 -9 3 -9 12 -1 22 4 22 9 0 6 -1 10 -2 9 -2 0
-12 -4 -23 -9z"/>
<path d="M4480 3140 c0 -5 5 -10 10 -10 6 0 10 5 10 10 0 6 -4 10 -10 10 -5 0
-10 -4 -10 -10z"/>
<path d="M2693 4023 c9 -2 25 -2 35 0 9 3 1 5 -18 5 -19 0 -27 -2 -17 -5z"/>
<path d="M2798 4023 c12 -2 30 -2 40 0 9 3 -1 5 -23 4 -22 0 -30 -2 -17 -4z"/>
<path d="M3366 3946 c3 -9 -3 -17 -16 -21 -12 -4 -19 -9 -17 -12 3 -2 15 0 26
7 21 11 29 40 11 40 -5 0 -7 -6 -4 -14z"/>
<path d="M3475 3949 c-4 -6 -3 -15 3 -21 6 -6 11 -4 15 6 7 18 -9 31 -18 15z"/>
<path d="M2640 3881 c-8 -5 -39 -11 -69 -14 -29 -4 -55 -8 -56 -9 -2 -2 -6
-22 -10 -45 -7 -43 -7 -43 22 -38 63 11 109 12 122 1 11 -9 12 -5 6 23 -5 23
-4 31 4 27 7 -5 11 3 11 23 0 34 -9 43 -30 32z"/>
<path d="M2460 3640 c0 -46 2 -81 5 -78 8 7 8 148 1 156 -3 3 -6 -32 -6 -78z"/>
<path d="M2642 3695 c0 -16 2 -22 5 -12 2 9 2 23 0 30 -3 6 -5 -1 -5 -18z"/>
<path d="M2893 3665 c0 -27 2 -38 4 -22 2 15 2 37 0 50 -2 12 -4 0 -4 -28z"/>
<path d="M4060 3658 c41 -45 50 -53 50 -45 0 2 -21 23 -47 47 l-48 45 45 -47z"/>
<path d="M3110 3679 c0 -4 6 -11 13 -18 10 -8 17 -7 25 1 18 18 14 26 -13 24
-14 0 -25 -4 -25 -7z"/>
<path d="M2643 3570 c0 -30 2 -43 4 -27 2 15 2 39 0 55 -2 15 -4 2 -4 -28z"/>
<path d="M2457 3543 c-4 -3 -7 -20 -6 -37 l1 -31 8 35 c9 36 8 45 -3 33z"/>
<path d="M2640 3491 c0 -5 5 -13 10 -16 6 -3 10 -2 10 4 0 5 -4 13 -10 16 -5
3 -10 2 -10 -4z"/>
<path d="M2880 3485 c0 -8 5 -15 10 -15 6 0 10 7 10 15 0 8 -4 15 -10 15 -5 0
-10 -7 -10 -15z"/>
<path d="M3130 3460 c-11 -7 -12 -12 -3 -21 8 -8 14 -6 22 10 12 22 5 27 -19
11z"/>
<path d="M4276 3435 c4 -8 8 -15 10 -15 2 0 4 7 4 15 0 8 -4 15 -10 15 -5 0
-7 -7 -4 -15z"/>
<path d="M2801 2024 c-66 -18 -75 -24 -32 -24 31 0 101 24 101 34 0 8 -6 7
-69 -10z"/>
<path d="M3448 1890 c40 -28 41 -31 44 -92 4 -85 22 -80 26 7 l3 70 -43 23
c-61 32 -78 27 -30 -8z"/>
<path d="M4462 1734 c-7 -26 -11 -49 -8 -51 6 -6 28 76 24 88 -2 6 -9 -11 -16
-37z"/>
<path d="M4441 1663 c-1 -6 -4 -20 -7 -30 -5 -17 -5 -17 6 0 6 10 9 23 6 30
-3 9 -5 9 -5 0z"/>
<path d="M425 930 c-8 -13 33 -28 116 -44 37 -7 71 -16 77 -20 8 -5 82 57 82
70 0 9 -269 3 -275 -6z"/>
</g>
</svg>
